{"glyphs":{"0":{"ha":931,"x_min":69,"x_max":861,"o":"m 178 733 q 233 793 178 733 q 465 853 288 853 q 752 733 643 853 q 861 417 861 613 q 752 101 861 221 q 465 -19 643 -19 q 178 101 288 -19 q 69 417 69 221 q 178 733 69 613 m 682 703 q 641 757 682 703 q 465 811 600 811 q 249 703 331 811 q 167 417 167 594 q 249 131 167 239 q 465 22 331 22 q 622 72 554 22 q 727 210 690 121 q 764 417 764 300 q 682 703 764 594 z "},"1":{"ha":478,"x_min":92,"x_max":396,"o":"m 199 89 l 199 746 q 176 798 199 776 q 122 819 153 819 l 93 819 l 93 833 l 393 833 l 393 819 l 364 819 q 311 797 333 819 q 289 744 289 775 l 289 89 q 328 24 289 46 q 365 14 344 14 l 394 14 l 394 0 l 93 0 l 94 14 l 124 14 q 176 36 154 14 q 199 89 199 58 z "},"2":{"ha":768,"x_min":79,"x_max":725,"o":"m 351 853 q 575 789 492 853 q 658 615 658 725 q 589 424 658 519 q 545 365 564 389 q 491 306 526 340 q 436 252 456 271 q 376 200 417 233 q 321 155 336 167 q 266 113 306 143 q 221 78 226 82 l 546 78 q 638 99 606 78 q 710 181 671 121 l 724 181 l 657 0 l 81 0 l 81 13 q 554 613 554 401 q 501 762 554 708 q 357 815 447 815 q 195 767 254 815 q 139 632 136 719 l 125 632 l 101 774 q 212 831 140 808 q 351 853 283 853 z "},"3":{"ha":699,"x_min":83,"x_max":603,"o":"m 85 751 q 324 850 172 850 q 503 793 432 850 q 575 647 575 736 q 515 489 575 558 q 385 413 456 419 q 538 331 474 397 q 601 173 601 265 q 560 10 601 81 q 282 -181 472 -139 q 180 -192 229 -192 q 83 -183 131 -192 l 86 -169 q 100 -169 93 -169 q 292 -129 201 -169 q 440 -10 383 -89 q 497 174 497 68 q 419 337 497 279 q 213 394 342 394 l 215 408 q 217 408 215 408 q 338 435 279 408 q 433 515 396 463 q 469 632 469 568 q 425 759 469 710 q 297 808 381 808 q 167 759 213 808 q 122 636 122 710 q 122 622 122 629 l 108 622 l 85 751 z "},"4":{"ha":810,"x_min":56,"x_max":728,"o":"m 578 207 l 578 -51 q 594 -97 578 -82 q 654 -125 622 -125 l 669 -125 l 669 -139 l 394 -139 l 396 -125 l 410 -125 q 464 -104 442 -125 q 488 -53 486 -83 l 488 207 l 56 207 l 56 221 l 564 853 l 578 853 l 578 283 l 638 283 q 687 289 674 283 q 714 311 700 294 l 728 311 l 699 207 l 578 207 m 488 283 l 488 689 l 160 283 l 488 283 z "},"5":{"ha":692,"x_min":68,"x_max":589,"o":"m 150 488 q 291 504 228 504 q 408 485 354 504 q 588 229 588 421 q 562 88 588 151 q 499 -16 536 25 q 414 -90 461 -57 q 318 -142 367 -124 q 136 -185 194 -185 q 69 -182 103 -185 l 72 -168 q 94 -168 75 -168 q 160 -155 113 -168 q 262 -111 207 -142 q 364 -39 317 -81 q 444 67 411 3 q 483 222 483 142 q 435 358 483 301 q 253 428 375 428 q 92 401 181 428 l 79 407 l 188 783 l 463 804 q 572 874 538 804 l 586 874 l 540 728 l 214 707 l 150 488 z "},"6":{"ha":778,"x_min":89,"x_max":703,"o":"m 411 510 q 257 438 311 510 l 249 450 q 349 531 292 501 q 464 561 406 561 q 574 536 522 561 q 661 450 625 511 q 701 271 701 376 q 624 74 701 165 q 405 -21 544 -21 q 178 84 265 -21 q 90 367 90 189 q 142 663 90 518 q 296 900 192 801 q 557 1019 401 1001 l 563 1010 q 394 917 465 979 q 279 768 322 854 q 194 378 194 601 q 250 118 194 215 q 404 21 306 21 q 550 95 503 21 q 597 272 597 169 q 511 481 597 424 q 411 510 469 510 z "},"7":{"ha":697,"x_min":49,"x_max":643,"o":"m 167 757 q 103 737 126 757 q 63 674 79 717 l 49 674 l 88 831 l 643 831 l 493 431 q 391 140 451 318 q 307 -139 331 -39 q 210 -139 307 -139 q 436 436 367 256 l 558 757 l 167 757 z "},"8":{"ha":767,"x_min":82,"x_max":685,"o":"m 683 243 q 601 53 683 126 q 383 -19 519 -19 q 165 53 246 -19 q 83 238 83 126 q 135 398 83 333 q 283 508 186 463 q 133 760 133 617 q 201 925 133 860 q 383 992 271 992 q 565 929 496 992 q 633 757 633 867 q 589 610 633 674 q 463 518 544 547 q 636 393 589 456 q 683 243 683 328 m 238 778 q 381 560 238 642 l 411 543 q 529 768 529 631 q 490 901 529 851 q 383 950 451 950 q 276 899 315 950 q 238 778 238 849 m 188 233 q 240 80 188 138 q 385 22 292 22 q 529 81 479 22 q 579 224 579 140 q 567 298 579 274 q 547 336 556 322 q 523 363 538 350 q 497 385 508 376 q 467 405 486 394 q 438 422 449 415 q 406 438 426 428 q 325 482 357 463 q 188 233 188 389 z "},"9":{"ha":778,"x_min":76,"x_max":688,"o":"m 318 271 q 114 383 178 271 q 78 543 78 449 q 158 763 78 678 q 380 850 242 850 q 603 745 518 850 q 688 450 688 640 q 615 114 688 269 q 393 -139 535 -62 q 221 -190 314 -182 l 217 -181 q 383 -92 311 -154 q 499 56 456 -31 q 583 419 583 224 q 369 808 583 808 q 228 736 275 808 q 182 558 182 664 q 231 384 182 449 q 365 319 281 319 q 479 354 426 319 q 522 392 503 369 l 529 379 q 432 299 489 328 q 318 271 375 271 z "}," ":{"ha":347,"x_min":0,"x_max":0,"o":""},"!":{"ha":319,"x_min":96,"x_max":222,"o":"m 194 560 l 165 236 l 151 236 l 124 560 l 107 975 l 211 975 l 194 560 m 204 13 q 195 3 204 13 q 160 -6 186 -6 q 115 13 133 -6 q 97 57 97 31 q 115 101 97 83 q 160 119 133 119 q 204 101 186 119 q 222 57 222 83 q 204 13 222 31 z "},"\"":{"ha":438,"x_min":69,"x_max":369,"o":"m 69 701 q 94 874 94 819 q 92 972 94 929 l 189 992 q 189 963 189 985 q 181 890 189 940 q 148 778 174 839 q 82 694 122 717 l 69 701 m 250 701 q 275 874 275 819 q 272 972 275 929 l 369 992 q 369 963 369 985 q 362 890 369 940 q 328 778 354 839 q 263 694 303 717 l 250 701 z "},"#":{"ha":744,"x_min":26,"x_max":717,"o":"m 717 649 l 560 649 l 507 343 l 656 343 l 656 301 l 499 301 l 446 0 l 401 0 l 454 301 l 221 301 l 168 0 l 124 0 l 176 301 l 28 301 l 28 343 l 185 343 l 238 649 l 89 649 l 89 690 l 246 690 l 294 972 l 339 972 l 290 690 l 524 690 l 572 972 l 617 972 l 568 690 l 717 690 l 717 649 m 463 343 l 515 649 l 282 649 l 229 343 l 463 343 z "},"$":{"ha":651,"x_min":75,"x_max":576,"o":"m 82 57 q 76 132 76 76 q 97 250 76 188 l 110 250 q 108 221 108 235 q 147 92 108 146 q 264 25 186 38 l 299 471 l 175 585 q 100 755 100 654 q 168 924 100 856 q 338 992 236 992 l 346 1094 l 388 1093 l 381 990 q 465 978 425 986 l 518 978 l 518 807 l 506 807 q 444 924 506 885 q 376 947 415 942 l 347 558 l 507 410 q 576 253 576 346 q 544 101 576 160 q 303 -19 478 -18 l 293 -142 l 251 -137 l 261 -15 q 82 57 138 -1 m 335 949 q 224 899 269 946 q 178 783 178 853 q 235 663 178 714 l 307 594 l 335 949 m 306 22 q 442 76 388 25 q 496 208 496 128 q 442 338 496 288 l 338 435 l 306 22 z "},"%":{"ha":950,"x_min":61,"x_max":890,"o":"m 432 917 q 454 828 454 874 q 363 567 454 661 q 214 501 299 501 q 89 567 129 501 q 61 661 61 611 q 151 924 61 831 q 303 992 215 992 q 352 985 326 992 q 432 946 378 978 q 530 913 493 913 q 598 923 567 913 q 673 958 629 933 q 721 985 717 983 l 751 972 l 233 -15 l 199 0 l 693 939 q 670 927 689 938 q 644 913 651 917 q 618 902 636 910 q 588 892 600 894 q 519 886 553 883 q 432 917 485 889 m 374 746 q 382 833 382 793 q 371 906 382 874 q 296 964 350 964 q 165 838 213 964 q 133 685 133 751 q 144 588 133 618 q 219 529 165 529 q 315 588 274 529 q 374 746 356 646 m 588 404 q 738 471 653 471 q 863 404 822 471 q 890 311 890 360 q 799 47 890 140 q 650 -19 735 -19 q 525 47 565 -19 q 497 140 497 92 q 588 404 497 311 m 810 225 q 818 313 818 272 q 807 385 818 354 q 732 443 786 443 q 637 385 678 443 q 578 225 596 326 q 569 138 569 179 q 581 67 569 97 q 656 8 601 8 q 751 67 710 8 q 810 225 792 125 z "},"&":{"ha":1136,"x_min":88,"x_max":1589,"o":"m 1589 -97 q 1318 -203 1467 -203 q 1089 -146 1213 -203 q 950 -60 1014 -110 q 793 65 886 -11 q 508 -18 667 -18 q 353 4 429 -18 q 167 113 242 35 q 89 308 89 193 q 131 463 89 397 q 249 568 174 529 q 189 759 189 660 q 258 925 189 858 q 453 992 328 992 q 699 893 611 992 l 679 736 l 665 736 q 606 892 661 835 q 465 950 550 950 q 332 897 381 950 q 283 764 283 843 q 340 600 283 675 q 526 413 396 525 q 835 149 656 300 q 958 310 910 217 q 1025 579 1025 433 q 1008 717 1025 649 q 900 919 983 821 q 683 1088 817 1018 l 690 1096 q 889 974 807 1049 q 1064 569 1064 814 q 982 269 1064 417 q 867 122 935 186 l 956 50 q 1239 -112 1097 -64 q 1392 -135 1304 -135 q 1582 -85 1479 -135 l 1589 -97 m 310 100 q 533 25 408 25 q 761 92 654 25 q 449 357 568 253 q 272 535 329 461 q 189 324 189 457 q 310 100 189 190 z "},"'":{"ha":236,"x_min":49,"x_max":168,"o":"m 49 701 q 74 874 74 819 q 71 972 74 929 l 168 992 q 168 963 168 985 q 160 890 168 940 q 127 778 153 839 q 61 694 101 717 l 49 701 z "},"(":{"ha":469,"x_min":124,"x_max":429,"o":"m 222 469 q 222 372 222 469 q 284 102 222 275 q 426 -126 346 -71 l 418 -139 q 213 94 299 -76 q 125 466 125 269 q 211 818 125 663 q 421 1017 297 974 l 429 1006 q 282 814 342 964 q 222 469 222 664 z "},")":{"ha":469,"x_min":40,"x_max":346,"o":"m 249 469 q 249 567 249 469 q 188 814 249 664 q 42 1006 128 964 l 50 1017 q 260 818 174 974 q 346 472 346 663 q 258 97 346 269 q 53 -139 171 -76 l 44 -126 q 185 99 125 -71 q 249 469 249 275 z "},"*":{"ha":536,"x_min":50,"x_max":488,"o":"m 483 865 l 344 839 l 278 840 l 332 804 l 431 701 l 404 658 l 356 647 l 288 771 l 269 835 l 250 771 l 183 647 l 135 658 l 108 700 l 206 804 l 260 840 l 194 839 l 54 865 l 50 914 l 83 951 l 211 892 l 264 851 l 242 914 l 222 1054 l 268 1074 l 314 1054 l 297 914 l 275 851 l 326 892 l 454 953 l 488 915 l 483 865 z "},"+":{"ha":668,"x_min":54,"x_max":614,"o":"m 614 461 l 614 399 l 365 399 l 365 151 l 303 151 l 303 399 l 56 399 l 56 461 l 303 461 l 303 710 l 365 710 l 365 461 l 614 461 z "},",":{"ha":257,"x_min":63,"x_max":196,"o":"m 63 -112 q 113 -78 100 -100 q 126 -44 126 -56 q 99 21 126 -10 q 75 56 78 46 q 78 92 71 75 q 124 119 90 119 q 181 81 165 119 q 196 19 196 43 q 144 -93 196 -53 q 65 -124 110 -122 l 63 -112 z "},"-":{"ha":528,"x_min":47,"x_max":481,"o":"m 47 406 l 56 436 l 472 436 l 481 406 l 472 374 l 56 374 l 47 406 z "},".":{"ha":249,"x_min":63,"x_max":188,"o":"m 169 13 q 160 3 169 13 q 125 -6 151 -6 q 81 13 99 -6 q 63 57 63 31 q 81 101 63 83 q 125 119 99 119 q 169 101 151 119 q 188 57 188 83 q 169 13 188 31 z "},"/":{"ha":564,"x_min":10,"x_max":554,"o":"m 10 7 l 511 992 l 554 967 l 53 -19 l 10 7 z "},":":{"ha":249,"x_min":63,"x_max":188,"o":"m 169 544 q 160 535 169 544 q 125 526 151 526 q 81 544 99 526 q 63 588 63 563 q 81 633 63 614 q 125 651 99 651 q 169 633 151 651 q 188 588 188 614 q 169 544 188 563 m 169 13 q 160 3 169 13 q 125 -6 151 -6 q 81 13 99 -6 q 63 57 63 31 q 81 101 63 83 q 125 119 99 119 q 169 101 151 119 q 188 57 188 83 q 169 13 188 31 z "},";":{"ha":256,"x_min":63,"x_max":196,"o":"m 169 584 q 160 575 169 584 q 125 565 151 565 q 81 584 99 565 q 63 628 63 603 q 81 672 63 654 q 125 690 99 690 q 169 672 151 690 q 188 628 188 654 q 169 584 188 603 m 63 -112 q 113 -78 100 -100 q 126 -44 126 -56 q 99 21 126 -10 q 75 56 78 46 q 78 92 71 75 q 124 119 90 119 q 181 81 165 119 q 196 19 196 43 q 144 -93 196 -53 q 65 -124 110 -122 l 63 -112 z "},"<":{"ha":668,"x_min":56,"x_max":614,"o":"m 614 726 l 614 660 l 138 431 l 614 200 l 614 133 l 56 399 l 56 461 l 614 726 z "},"=":{"ha":668,"x_min":56,"x_max":614,"o":"m 56 506 l 56 568 l 614 568 l 614 506 l 56 506 m 56 263 l 56 325 l 614 325 l 614 263 l 56 263 z "},">":{"ha":668,"x_min":56,"x_max":614,"o":"m 56 726 l 614 461 l 614 399 l 56 133 l 56 200 l 531 431 l 56 660 l 56 726 z "},"?":{"ha":574,"x_min":28,"x_max":506,"o":"m 233 992 q 432 929 360 992 q 504 756 504 867 q 449 601 504 669 q 357 503 403 544 q 258 371 275 428 q 249 309 249 343 q 272 243 249 275 l 264 236 q 203 369 203 293 q 272 513 203 432 q 331 582 301 546 q 400 756 400 667 q 322 926 400 879 q 233 950 285 950 q 103 894 150 950 q 56 744 56 838 q 56 736 56 740 l 42 736 l 28 868 q 113 959 60 926 q 233 992 167 992 m 294 13 q 285 3 294 13 q 251 -6 276 -6 q 206 13 225 -6 q 188 57 188 31 q 206 101 188 83 q 251 119 225 119 q 294 101 276 119 q 313 57 313 83 q 294 13 313 31 z "},"@":{"ha":1357,"x_min":82,"x_max":1275,"o":"m 135 166 q 109 198 135 166 q 82 333 82 231 q 126 549 82 436 q 414 875 217 763 q 750 963 567 963 q 1179 781 1039 963 q 1274 496 1274 657 q 1239 281 1274 382 q 1157 108 1204 181 q 1047 -21 1110 36 q 722 -165 918 -139 q 632 -171 685 -171 q 269 -87 467 -171 l 264 -74 q 578 -136 433 -136 q 708 -122 646 -136 q 1028 69 903 -79 q 1181 429 1154 217 q 1185 531 1185 469 q 1161 664 1185 592 q 1047 833 1126 769 q 777 919 943 919 q 476 842 611 919 q 217 542 306 742 q 160 306 160 415 q 181 201 160 243 q 267 143 208 143 q 344 169 311 143 q 395 214 376 196 q 437 261 414 232 q 474 309 460 290 q 510 360 488 328 q 542 404 532 392 l 794 751 l 804 751 l 861 190 q 881 142 865 158 q 918 125 897 125 l 925 125 l 924 115 l 704 115 l 706 125 l 715 125 q 753 140 733 125 q 772 176 772 154 l 764 325 l 536 325 q 393 156 453 208 q 261 101 333 101 q 135 166 189 101 m 747 626 l 558 357 l 763 357 l 747 626 z "},"A":{"ha":989,"x_min":-14,"x_max":1314,"o":"m 164 1019 q 338 1057 254 1057 q 481 1006 407 1057 q 571 897 521 978 q 656 696 604 842 l 825 215 q 944 -41 883 54 q 1054 -184 1004 -136 q 1158 -251 1104 -232 q 1248 -271 1213 -271 q 1311 -265 1283 -271 l 1313 -279 q 1182 -301 1246 -301 q 1054 -269 1118 -301 q 935 -178 990 -236 q 732 190 815 -57 l 678 349 l 297 349 l 201 101 q 194 68 194 85 q 209 33 194 51 q 254 14 224 14 l 265 14 l 265 0 l -14 0 l -14 14 l -1 14 q 64 34 32 14 q 117 94 96 54 l 461 919 q 275 1026 386 1026 q 168 1006 225 1026 l 164 1019 m 313 390 l 664 390 l 554 714 q 496 860 522 807 l 313 390 z "},"B":{"ha":825,"x_min":-1,"x_max":771,"o":"m 549 606 q 492 567 524 579 q 699 470 628 547 q 769 282 769 393 q 661 64 769 147 q 376 -19 553 -19 q 100 67 200 -19 q 0 313 0 154 q 0 329 0 321 l 15 332 q 188 64 43 125 l 188 872 q 159 934 185 910 q 97 958 133 958 l 81 958 l 81 972 l 314 972 q 523 913 444 972 q 601 756 601 853 q 549 606 601 660 m 278 928 l 278 39 q 383 32 324 32 q 591 103 517 32 q 665 289 665 175 q 642 397 665 350 q 585 471 619 444 q 326 542 493 542 q 325 542 325 542 l 324 554 q 325 554 325 554 q 447 601 396 554 q 497 744 497 647 q 296 928 497 928 l 296 928 l 278 928 z "},"C":{"ha":1140,"x_min":61,"x_max":1107,"o":"m 1107 488 q 978 115 1107 249 q 615 -19 850 -19 q 330 47 457 -19 q 133 229 203 114 q 63 487 63 344 q 132 744 63 629 q 324 926 201 860 q 596 992 446 992 q 788 966 690 992 q 951 897 886 940 l 979 701 l 967 701 q 832 884 938 818 q 597 950 726 950 q 290 819 413 950 q 167 489 167 688 q 294 156 167 290 q 626 22 421 22 q 962 156 832 22 q 1092 521 1092 289 l 1106 521 q 1107 488 1107 504 z "},"D":{"ha":1164,"x_min":-139,"x_max":1082,"o":"m -139 769 q -4 932 -99 888 q 331 976 90 976 q 583 972 381 976 q 843 908 731 968 q 1019 740 956 849 q 1082 486 1082 631 q 944 134 1082 268 q 583 0 806 0 l 113 0 l 114 14 l 131 14 q 190 37 165 14 q 219 93 215 60 l 219 931 q -26 876 46 926 q -83 826 -64 850 q -124 764 -103 801 l -139 769 m 310 931 l 310 42 l 583 42 q 869 164 760 42 q 978 486 978 286 q 928 719 978 618 q 790 875 879 819 q 583 931 700 931 l 310 931 z "},"E":{"ha":843,"x_min":83,"x_max":838,"o":"m 101 14 q 163 40 138 14 q 190 101 189 65 l 190 879 q 164 935 190 913 q 101 958 138 958 l 85 958 l 83 972 l 365 972 q 459 981 408 972 q 531 997 510 989 l 531 822 l 517 822 l 517 847 q 494 904 517 881 q 439 929 471 928 l 281 929 l 281 500 l 544 500 q 592 521 572 501 q 611 569 611 540 l 611 589 l 625 589 l 625 369 l 611 369 l 611 390 q 592 438 611 418 q 546 458 574 457 l 281 458 l 281 43 l 576 43 q 733 89 679 43 q 824 225 788 135 l 838 225 l 757 0 l 83 0 l 83 14 l 101 14 z "},"F":{"ha":804,"x_min":83,"x_max":806,"o":"m 790 390 q 772 438 790 418 q 725 458 753 457 l 281 458 l 281 101 q 307 40 281 65 q 369 14 333 14 l 388 14 l 388 0 l 83 0 l 83 14 l 101 14 q 163 40 138 14 q 190 101 189 65 l 190 879 q 163 935 190 913 q 101 958 136 958 l 85 958 l 83 972 l 490 972 q 596 982 550 972 q 656 997 642 992 l 656 840 l 642 840 l 642 861 q 622 909 642 889 q 574 929 603 929 l 281 929 l 281 500 l 724 500 q 771 521 751 501 q 790 569 790 540 l 790 589 l 804 589 l 804 369 l 790 369 l 790 390 z "},"G":{"ha":1175,"x_min":83,"x_max":1551,"o":"m 1346 -242 q 1057 -129 1169 -242 q 947 81 974 -46 q 624 -19 815 -19 q 348 47 472 -19 q 153 228 224 113 q 83 488 83 343 q 153 748 83 632 q 347 928 224 864 q 624 992 471 992 q 961 897 815 992 l 989 701 l 976 701 q 788 921 935 863 q 624 950 715 950 q 312 819 436 950 q 188 488 188 689 q 313 156 188 288 q 624 22 438 24 q 796 54 714 22 q 936 143 878 86 l 936 389 q 918 435 936 419 q 867 451 900 451 l 844 451 l 844 465 l 1117 465 l 1117 451 l 1096 451 q 1043 435 1061 451 q 1026 389 1025 419 l 1026 175 q 1169 -139 1035 -44 q 1414 -206 1264 -206 q 1550 -193 1476 -206 l 1551 -207 q 1346 -242 1440 -242 z "},"H":{"ha":1129,"x_min":82,"x_max":1047,"o":"m 1013 14 l 1029 14 l 1029 0 l 726 0 l 726 14 l 744 14 q 805 38 779 14 q 833 99 831 63 l 833 460 l 296 460 l 296 97 q 201 -164 296 -97 q 90 -210 158 -194 l 83 -197 q 176 -94 146 -164 q 206 97 206 -25 l 206 872 q 179 933 206 908 q 117 958 153 958 l 100 958 l 100 972 l 403 972 l 403 958 l 385 958 q 323 933 349 958 q 296 872 297 908 l 296 501 l 833 501 l 833 847 q 913 1094 835 1025 q 1040 1154 960 1136 l 1047 1142 q 954 1039 985 1108 q 924 847 924 969 l 924 101 q 949 40 924 65 q 1013 14 975 14 z "},"I":{"ha":546,"x_min":-71,"x_max":467,"o":"m 446 14 l 464 14 l 464 0 l 160 0 l 160 14 l 178 14 q 240 40 214 14 q 267 101 267 65 l 267 935 l 118 926 q -22 825 -22 918 q 2 761 -22 788 q 79 732 26 735 l 79 724 q 40 719 60 719 q -51 768 -21 719 q -69 829 -69 796 q 110 967 -69 947 q 248 976 111 967 q 464 1000 385 985 l 467 986 q 382 946 407 976 q 357 861 357 915 l 357 101 q 384 40 358 65 q 446 14 410 14 z "},"J":{"ha":471,"x_min":-117,"x_max":389,"o":"m -111 -187 q -37 -200 -74 -200 q 40 -185 0 -200 q 114 -137 81 -169 q 169 -39 147 -104 q 190 115 190 26 l 190 871 q 163 933 189 907 q 101 958 138 958 l 83 958 l 83 972 l 388 972 l 388 958 l 369 958 q 308 933 333 958 q 281 871 282 908 l 281 111 q 251 -54 281 17 q 178 -161 222 -125 q -7 -226 94 -226 q -117 -203 -67 -226 l -111 -187 z "},"K":{"ha":929,"x_min":82,"x_max":1333,"o":"m 369 14 l 388 14 l 388 0 l 83 0 l 83 14 l 101 14 q 163 40 138 14 q 190 101 189 65 l 190 872 q 163 933 189 908 q 101 958 138 958 l 83 958 l 83 972 l 388 972 l 388 958 l 369 958 q 308 933 333 958 q 281 872 282 908 l 281 101 q 307 40 281 65 q 369 14 333 14 m 1332 -208 l 1332 -222 q 1226 -235 1279 -235 q 785 -7 999 -235 l 325 483 l 653 894 q 664 919 664 908 q 660 939 664 931 q 619 960 649 960 l 606 960 l 606 972 l 899 972 l 899 960 l 893 960 q 743 894 801 960 l 419 521 l 892 17 q 1098 -145 983 -82 q 1332 -208 1213 -208 z "},"L":{"ha":557,"x_min":83,"x_max":1288,"o":"m 347 -26 q 791 -166 643 -129 q 1045 -203 939 -203 q 1279 -154 1151 -203 l 1286 -165 q 944 -282 1117 -282 q 543 -172 768 -282 q 328 -68 369 -86 q 83 0 179 -1 l 83 14 l 101 14 q 163 39 138 14 q 190 101 189 64 l 190 871 q 163 933 189 907 q 101 958 138 958 l 83 958 l 83 972 l 388 972 l 388 958 l 369 958 q 307 933 333 958 q 281 871 281 907 l 281 69 q 283 31 281 44 q 301 1 286 18 q 347 -26 317 -15 z "},"M":{"ha":1293,"x_min":-93,"x_max":1544,"o":"m 1528 -225 q 1544 -225 1536 -225 l 1544 -239 q 1458 -244 1506 -244 q 1340 -224 1410 -244 q 1213 -146 1269 -203 q 1071 157 1096 -29 l 986 775 l 697 122 q 650 -19 658 38 l 636 -19 l 276 763 l 215 72 q 230 31 213 49 q 268 13 247 13 q 268 13 268 13 l 290 13 l 290 0 l 21 0 l 21 14 l 43 14 q 109 37 81 14 q 144 97 138 60 l 232 856 q -61 1096 110 1096 q -93 1094 -76 1096 l -93 1108 q -32 1118 -56 1118 q 19 1116 -8 1118 q 85 1103 47 1114 q 156 1070 122 1092 q 214 1026 189 1049 q 261 975 239 1003 q 321 879 299 925 l 656 154 l 1029 992 l 1042 992 l 1171 169 q 1297 -125 1200 -25 q 1528 -225 1393 -225 z "},"N":{"ha":1168,"x_min":-262,"x_max":1464,"o":"m 1464 -211 q 1264 -224 1353 -246 q 1103 -146 1171 -199 q 969 -19 1038 -93 l 238 792 l 238 97 q 281 25 239 49 q 322 14 300 14 l 349 14 l 349 0 l 63 0 l 63 14 l 89 14 q 149 38 124 14 q 174 99 174 63 l 174 861 q 146 898 167 871 q 111 942 125 925 q 74 985 97 958 q 30 1029 50 1013 q -17 1068 10 1046 q -106 1114 -58 1100 q -185 1128 -153 1128 q -256 1117 -218 1128 l -261 1131 q -133 1158 -194 1158 q -26 1144 -71 1158 q 69 1092 18 1129 q 153 1022 121 1054 q 232 939 186 990 l 932 161 l 932 874 q 906 934 931 910 q 846 958 881 958 l 819 958 l 819 972 l 1106 972 l 1106 958 l 1081 958 q 1021 934 1046 958 q 994 875 996 910 l 994 90 q 1034 44 1008 75 q 1070 1 1060 14 q 1101 -35 1081 -11 q 1137 -72 1122 -58 q 1173 -105 1151 -85 q 1213 -137 1194 -125 q 1256 -164 1232 -149 q 1331 -193 1289 -183 q 1401 -203 1374 -203 q 1458 -197 1428 -203 l 1464 -211 z "},"O":{"ha":1290,"x_min":83,"x_max":1207,"o":"m 385 649 q 379 680 379 667 q 381 710 379 693 q 387 756 382 726 q 406 813 392 785 q 438 868 419 842 q 484 917 456 894 q 547 956 513 939 q 726 992 621 992 q 1073 851 939 992 q 1207 490 1207 710 q 1049 126 1207 271 q 647 -19 890 -19 q 244 125 404 -19 q 83 500 83 269 q 153 764 83 649 q 351 944 222 879 l 360 932 q 230 760 269 872 q 190 521 190 647 q 318 154 190 286 q 646 22 446 22 q 973 155 846 22 q 1100 504 1100 288 q 999 821 1100 692 q 715 950 899 950 q 567 921 633 950 q 407 751 446 869 q 396 692 396 717 q 399 651 396 667 l 385 649 z "},"P":{"ha":861,"x_min":82,"x_max":800,"o":"m 489 994 q 690 936 610 994 q 799 693 799 858 q 732 489 799 574 q 531 399 660 399 q 407 431 463 399 q 342 543 351 464 l 354 547 q 425 464 369 488 q 492 447 463 447 q 657 536 606 447 q 694 692 694 601 q 614 900 694 836 q 458 950 553 950 q 420 948 436 950 q 281 925 404 946 l 281 101 q 308 39 282 64 q 369 14 335 14 l 388 14 l 388 0 l 83 0 l 83 14 l 101 14 q 163 39 136 14 q 190 101 189 64 l 190 853 q 169 909 190 889 q 115 929 149 929 q 101 928 108 929 l 85 926 l 82 940 q 276 967 154 947 q 426 991 397 988 q 489 994 456 994 z "},"Q":{"ha":1276,"x_min":69,"x_max":2160,"o":"m 2006 -242 q 1873 -290 1949 -271 q 1738 -315 1797 -310 q 1633 -321 1679 -321 q 1326 -269 1483 -321 q 1121 -192 1265 -250 q 618 -19 760 -47 l 618 -6 q 622 -6 619 -6 q 992 153 864 -6 q 1086 470 1086 271 q 961 811 1086 669 q 629 957 833 957 q 401 899 506 957 q 237 732 297 840 q 176 488 176 624 q 208 314 176 394 q 297 182 240 233 q 488 107 379 107 q 604 133 546 107 q 719 264 690 172 l 732 260 q 624 106 706 160 q 475 65 563 65 q 415 69 447 65 q 161 209 253 93 q 69 479 69 325 q 144 752 69 633 q 345 935 218 871 q 624 999 472 999 q 922 928 792 999 q 1123 740 1053 857 q 1193 482 1193 622 q 1152 273 1193 367 q 1046 119 1111 179 q 751 -22 915 0 q 1100 -115 864 -44 q 1338 -185 1336 -185 q 1722 -240 1538 -240 q 1931 -219 1828 -240 q 2154 -117 2078 -192 l 2160 -124 q 2006 -242 2122 -183 z "},"R":{"ha":906,"x_min":83,"x_max":1317,"o":"m 1317 -236 q 1213 -251 1258 -251 q 1133 -246 1168 -251 q 1059 -224 1099 -240 q 985 -187 1019 -208 q 915 -136 950 -167 q 799 -25 851 -85 q 599 199 747 35 q 401 418 450 364 q 326 475 353 472 l 326 489 q 434 492 407 489 q 492 505 461 496 q 543 529 522 514 q 625 704 625 582 q 580 867 625 806 q 453 929 535 928 l 281 929 l 281 101 q 306 40 281 67 q 369 14 332 14 l 386 14 l 388 0 l 83 0 l 83 14 l 101 14 q 163 39 136 14 q 190 100 189 64 l 190 871 q 163 933 189 907 q 101 958 138 958 l 83 958 l 83 972 l 458 972 q 655 903 581 972 q 729 722 729 835 q 661 527 729 608 q 494 446 593 446 q 493 446 494 446 q 600 329 540 396 q 908 -4 840 64 q 1028 -116 976 -72 q 1121 -181 1081 -160 q 1283 -225 1203 -225 q 1317 -222 1300 -225 l 1317 -236 z "},"S":{"ha":763,"x_min":57,"x_max":714,"o":"m 165 369 q 93 165 93 275 q 203 -37 93 35 q 348 -81 267 -81 q 489 -49 429 -81 q 615 147 601 10 q 617 167 617 157 q 588 278 617 218 q 496 388 560 338 l 246 585 q 164 750 164 649 q 229 922 164 851 q 406 992 294 992 q 526 978 461 992 l 582 978 l 585 807 l 571 807 q 523 912 569 874 q 406 950 476 950 q 289 903 336 950 q 242 784 242 857 q 303 663 242 711 l 560 460 q 713 168 713 339 q 611 -51 713 40 q 378 -131 524 -131 q 219 -97 289 -131 q 63 111 89 -36 q 58 167 58 133 q 78 260 58 201 q 153 379 97 319 l 165 369 z "},"T":{"ha":858,"x_min":-125,"x_max":832,"o":"m -82 696 q -125 798 -125 747 q -101 885 -125 849 q -25 948 -78 922 q 94 974 28 974 l 664 974 q 759 982 707 974 q 832 999 811 990 l 832 824 l 818 825 l 818 849 q 794 906 818 882 q 739 932 771 931 l 475 932 l 475 100 q 519 25 476 50 q 564 14 540 14 l 582 14 l 582 0 l 278 0 l 278 14 l 296 14 q 358 39 332 14 q 385 99 383 64 l 385 932 l 94 932 q -67 861 -17 932 q -93 785 -93 825 q -71 703 -93 746 l -82 696 z "},"U":{"ha":1088,"x_min":68,"x_max":1256,"o":"m 1232 1211 q 1256 1211 1243 1211 l 1256 1197 q 1014 1097 1103 1197 q 925 806 925 996 l 925 343 q 822 81 925 181 q 549 -19 719 -19 q 272 80 378 -19 q 165 342 165 179 l 165 890 q 129 950 165 931 q 92 958 113 958 l 69 958 l 69 972 l 351 972 l 351 958 l 329 958 q 278 940 299 958 q 256 892 257 921 l 256 361 q 337 117 256 210 q 550 25 418 25 q 775 113 690 25 q 860 343 860 200 l 860 804 q 963 1110 860 1008 q 1232 1211 1067 1211 z "},"V":{"ha":997,"x_min":-14,"x_max":1346,"o":"m 1075 1244 q 1188 1294 1122 1276 q 1293 1313 1253 1313 q 1344 1313 1333 1313 l 1344 1299 q 1222 1273 1279 1296 q 1128 1220 1165 1250 q 1057 1141 1092 1190 q 1003 1057 1022 1092 q 960 968 985 1022 l 574 124 q 522 -19 522 11 l 510 -19 l 119 871 q 66 937 100 915 q -3 958 32 958 l -14 958 l -14 972 l 299 972 l 299 958 l 286 958 q 231 919 244 958 q 228 900 228 911 q 235 872 228 889 l 525 144 l 869 968 q 1075 1244 951 1161 z "},"W":{"ha":1325,"x_min":-14,"x_max":1674,"o":"m 1654 1311 q 1672 1311 1664 1311 l 1672 1297 q 1549 1267 1607 1294 q 1450 1201 1490 1239 q 1375 1108 1410 1163 q 1281 911 1319 1022 l 1014 138 q 983 -17 986 50 l 971 -17 l 688 776 l 464 76 q 303 -168 414 -81 q 122 -233 222 -233 q 49 -225 88 -233 l 51 -211 q 99 -215 72 -215 q 172 -199 126 -215 q 261 -139 217 -182 q 400 81 351 -51 l 119 874 q 68 937 103 915 q -3 958 33 958 l -14 958 l -14 972 l 294 972 l 294 958 l 282 958 q 238 940 253 958 q 224 904 224 921 q 228 874 224 888 l 439 197 l 697 994 l 710 993 l 985 224 l 1190 911 q 1301 1129 1226 1032 q 1654 1311 1440 1311 z "},"X":{"ha":919,"x_min":-239,"x_max":1121,"o":"m 915 14 l 935 14 l 935 0 l 596 0 l 596 14 l 613 14 q 660 42 643 14 q 669 71 669 57 q 663 99 669 85 l 449 436 l 181 43 q -15 -161 83 -99 q -189 -210 -94 -210 q -239 -207 -214 -210 l -239 -193 q -60 -117 -142 -189 q 72 33 10 -54 q 111 86 85 49 l 406 503 l 169 876 q 85 947 136 925 q 29 958 57 958 l 10 958 l 10 972 l 346 972 l 346 958 l 329 958 q 294 944 311 958 q 279 874 260 915 l 467 579 l 733 958 q 907 1139 825 1088 q 1085 1190 989 1190 q 1121 1189 1103 1190 l 1121 1175 q 1004 1140 1054 1174 q 958 1107 978 1121 q 913 1063 939 1093 q 876 1018 888 1032 q 838 969 864 1004 q 807 926 813 933 l 507 515 l 775 94 q 837 37 800 60 q 915 14 874 14 z "},"Y":{"ha":858,"x_min":-56,"x_max":915,"o":"m -56 1051 q -21 1051 -46 1051 q 47 1043 4 1051 q 127 1019 90 1035 q 199 973 164 1003 q 260 917 235 943 q 310 850 285 892 q 352 779 336 808 q 388 703 368 750 q 428 599 413 643 q 444 551 443 556 q 449 542 446 547 q 456 522 453 531 q 475 574 460 532 q 503 649 490 615 q 544 743 517 682 q 595 840 572 804 q 654 921 618 875 q 726 992 690 967 q 915 1051 815 1051 l 915 1038 q 756 956 838 1038 q 617 758 675 874 q 523 517 560 642 q 486 306 486 393 l 486 101 q 529 26 486 51 q 575 14 550 14 l 592 14 l 592 0 l 289 0 l 289 14 l 307 14 q 368 39 342 14 q 396 100 394 64 l 396 307 q 357 525 396 400 q 257 765 318 650 q 111 958 196 879 q -56 1038 26 1038 l -56 1051 z "},"Z":{"ha":883,"x_min":82,"x_max":1385,"o":"m 1383 -124 q 1036 -274 1254 -274 q 696 -215 869 -274 q 385 -99 499 -149 q 100 0 171 -4 l 83 0 l 83 13 l 667 932 l 199 932 q 128 890 151 931 q 117 849 117 871 l 117 824 l 103 824 l 103 999 q 176 982 124 990 q 249 974 229 974 q 271 974 269 974 l 658 974 q 757 981 717 974 q 806 992 797 988 l 806 979 l 199 21 q 347 -26 211 18 q 1051 -182 822 -182 q 1376 -112 1228 -182 l 1383 -124 z "},"[":{"ha":461,"x_min":167,"x_max":407,"o":"m 167 -125 l 167 1003 l 401 1003 l 401 989 l 257 961 l 257 -83 l 406 -111 l 406 -125 l 167 -125 z "},"\\":{"ha":564,"x_min":10,"x_max":554,"o":"m 10 967 l 53 992 l 554 7 l 511 -19 l 10 967 z "},"]":{"ha":461,"x_min":54,"x_max":296,"o":"m 60 1003 l 294 1003 l 294 -125 l 56 -125 l 56 -111 l 204 -83 l 204 961 l 60 989 l 60 1003 z "},"^":{"ha":726,"x_min":49,"x_max":678,"o":"m 322 515 l 406 515 l 678 253 l 590 253 l 364 467 l 136 253 l 49 253 l 322 515 z "},"_":{"ha":694,"x_min":0,"x_max":694,"o":"m 0 -125 l 0 -83 l 694 -83 l 694 -125 l 0 -125 z "},"`":{"ha":610,"x_min":99,"x_max":333,"o":"m 333 1046 l 324 1036 q 100 1154 211 1089 q 157 1228 119 1193 q 333 1046 244 1143 z "},"a":{"ha":989,"x_min":-15,"x_max":1004,"o":"m 993 14 l 1004 14 l 1004 0 l 692 0 l 692 14 l 704 14 q 748 33 733 14 q 763 68 763 51 q 757 101 763 85 l 668 338 l 293 338 l 200 100 q 194 67 194 83 q 209 33 194 51 q 253 14 224 14 l 265 14 l 265 0 l -14 0 l -14 14 l -1 14 q 67 36 33 14 q 121 101 100 58 l 435 849 q 486 992 486 961 l 499 992 l 871 101 q 924 36 890 58 q 993 14 957 14 m 310 379 l 651 379 l 485 825 l 310 379 z "},"b":{"ha":814,"x_min":83,"x_max":746,"o":"m 422 0 l 83 0 l 85 14 l 101 14 q 163 39 138 14 q 190 100 189 64 l 190 872 q 163 933 189 908 q 101 958 138 958 l 85 958 l 83 972 l 360 972 q 582 909 503 972 q 661 740 661 846 q 617 602 661 657 q 508 529 572 547 q 682 439 618 513 q 746 253 746 365 q 660 71 746 142 q 422 0 575 0 m 281 51 l 417 51 q 419 51 418 51 q 583 108 525 51 q 642 271 642 165 q 622 376 642 331 q 571 447 601 421 q 329 514 490 514 q 328 514 329 514 l 328 526 q 549 663 511 526 q 557 731 557 693 q 505 876 557 825 q 354 928 453 928 l 281 928 l 281 51 z "},"c":{"ha":1056,"x_min":83,"x_max":988,"o":"m 579 -19 q 222 121 360 -18 q 83 487 83 260 q 222 853 83 714 q 588 992 360 992 q 917 897 774 992 l 944 701 l 932 701 q 808 885 901 821 q 588 950 715 950 q 297 824 406 950 q 188 489 188 697 q 295 153 188 281 q 579 22 403 26 q 839 107 735 22 q 975 406 951 199 l 986 406 l 969 188 q 579 -19 843 -19 z "},"d":{"ha":1121,"x_min":82,"x_max":1053,"o":"m 554 972 q 915 838 776 972 q 1053 486 1053 704 q 915 134 1053 268 q 554 0 776 0 l 83 0 l 83 14 l 101 14 q 163 40 138 14 q 190 101 189 65 l 190 879 q 163 935 190 913 q 101 958 136 958 l 85 958 l 83 972 l 554 972 m 281 931 l 281 42 l 554 42 q 760 97 671 42 q 899 253 850 153 q 949 486 949 354 q 840 808 949 686 q 554 931 731 931 l 281 931 z "},"e":{"ha":801,"x_min":83,"x_max":740,"o":"m 101 14 q 163 40 138 14 q 190 101 189 65 l 190 879 q 164 935 190 913 q 101 958 138 958 l 85 958 l 83 972 l 490 972 q 584 981 533 972 q 656 997 635 989 l 656 822 l 642 822 l 642 847 q 619 904 642 881 q 564 929 596 928 l 281 929 l 281 500 l 515 500 q 563 521 543 501 q 582 569 582 540 l 582 589 l 596 589 l 596 369 l 582 369 l 582 390 q 563 438 582 418 q 517 458 544 457 l 281 458 l 281 43 l 479 43 q 636 89 582 43 q 726 225 690 135 l 740 225 l 660 0 l 83 0 l 83 14 l 101 14 z "},"f":{"ha":751,"x_min":82,"x_max":656,"o":"m 656 957 l 656 840 l 642 840 l 642 861 q 622 909 642 889 q 574 929 603 929 l 281 929 l 281 500 l 515 500 q 563 521 543 501 q 582 568 582 540 l 582 589 l 596 589 l 596 369 l 582 369 l 582 390 q 563 438 582 418 q 517 458 544 457 l 281 458 l 281 101 q 307 40 281 65 q 369 14 333 14 l 388 14 l 388 0 l 83 0 l 83 14 l 101 14 q 163 40 138 14 q 190 101 189 65 l 190 879 q 163 935 190 913 q 101 958 136 958 l 85 958 l 83 972 l 490 972 q 584 981 533 972 q 656 997 635 989 l 656 957 z "},"g":{"ha":1108,"x_min":83,"x_max":1075,"o":"m 582 -19 q 222 121 360 -18 q 83 486 83 260 q 222 852 83 713 q 582 992 360 992 q 919 897 774 992 l 947 701 l 935 701 q 812 885 904 821 q 582 950 719 950 q 297 822 406 950 q 188 486 188 694 q 297 151 188 278 q 582 22 406 24 q 753 54 672 22 q 896 143 835 86 l 896 389 q 877 435 896 419 q 825 451 858 451 l 803 451 l 803 465 l 1075 465 l 1075 451 l 1054 451 q 1001 435 1019 451 q 985 389 983 419 l 985 160 q 899 75 949 113 q 765 9 849 38 q 582 -19 681 -19 z "},"h":{"ha":1129,"x_min":82,"x_max":1047,"o":"m 760 14 q 822 40 796 14 q 849 100 847 65 l 849 460 l 281 460 l 281 100 q 307 39 281 64 q 369 14 333 14 l 388 14 l 388 0 l 83 0 l 83 14 l 101 14 q 163 39 138 14 q 190 100 189 64 l 190 872 q 163 933 189 908 q 101 958 138 958 l 83 958 l 83 972 l 388 972 l 388 958 l 369 958 q 308 933 333 958 q 281 872 282 908 l 281 501 l 849 501 l 849 872 q 804 947 847 922 q 760 958 783 958 l 742 958 l 742 972 l 1046 972 l 1046 958 l 1028 958 q 966 933 992 958 q 939 871 940 907 l 939 100 q 966 39 940 64 q 1028 14 992 14 l 1046 14 l 1046 0 l 742 0 l 742 14 l 760 14 z "},"i":{"ha":469,"x_min":82,"x_max":388,"o":"m 101 14 q 163 40 138 14 q 190 101 189 65 l 190 872 q 163 933 189 908 q 101 958 138 958 l 83 958 l 83 972 l 388 972 l 388 958 l 369 958 q 308 933 333 958 q 281 872 282 908 l 281 101 q 307 40 281 65 q 369 14 333 14 l 388 14 l 388 0 l 83 0 l 83 14 l 101 14 z "},"j":{"ha":450,"x_min":28,"x_max":389,"o":"m 369 958 q 293 915 319 958 q 281 871 282 896 l 281 0 q 208 -197 281 -117 q 28 -278 135 -278 l 28 -265 q 143 -163 96 -242 q 190 4 190 -85 l 190 871 q 163 933 189 907 q 101 958 138 958 l 83 958 l 83 972 l 388 972 l 388 958 l 369 958 z "},"k":{"ha":913,"x_min":82,"x_max":928,"o":"m 369 14 l 388 14 l 388 0 l 83 0 l 83 14 l 101 14 q 163 40 138 14 q 190 101 189 65 l 190 872 q 163 933 189 908 q 101 958 138 958 l 83 958 l 83 972 l 388 972 l 388 958 l 369 958 q 308 933 333 958 q 281 872 282 908 l 281 101 q 307 40 281 65 q 369 14 333 14 m 928 0 l 868 0 q 660 79 726 0 l 325 483 l 653 894 q 664 919 664 908 q 660 939 664 931 q 619 960 649 960 l 606 960 l 606 972 l 899 972 l 899 960 l 893 960 q 743 894 801 960 l 417 517 l 796 71 q 928 14 851 15 l 928 0 z "},"l":{"ha":781,"x_min":83,"x_max":740,"o":"m 101 14 q 163 40 138 14 q 190 101 189 65 l 190 871 q 163 933 189 907 q 101 958 138 958 l 83 958 l 83 972 l 388 972 l 388 958 l 369 958 q 293 915 319 958 q 281 871 281 894 l 281 43 l 479 43 q 636 89 582 43 q 726 225 690 135 l 740 225 l 660 0 l 83 0 l 83 14 l 101 14 z "},"m":{"ha":1293,"x_min":21,"x_max":1274,"o":"m 1250 14 l 1272 14 l 1272 0 l 971 0 l 971 13 l 992 13 q 1032 31 1015 13 q 1046 72 1049 49 l 983 771 l 692 122 q 644 -19 653 38 l 631 -19 l 275 751 l 215 72 q 229 31 213 50 q 269 13 246 13 l 290 13 l 290 0 l 21 0 l 21 14 l 43 14 q 110 38 82 14 q 144 101 139 61 l 249 992 l 263 992 l 650 154 l 1029 992 l 1042 992 l 1149 101 q 1183 38 1154 61 q 1250 14 1213 14 z "},"n":{"ha":1168,"x_min":61,"x_max":1107,"o":"m 1081 958 q 1021 934 1046 958 q 994 875 996 910 l 994 158 q 1004 6 994 78 l 1007 -19 l 994 -19 l 238 789 l 238 97 q 263 38 238 63 q 322 14 288 14 l 349 14 l 349 0 l 63 0 l 63 14 l 89 14 q 149 38 124 14 q 174 99 174 63 l 174 819 q 164 971 174 904 l 161 993 l 175 993 l 932 185 l 932 874 q 906 934 931 910 q 846 958 881 958 l 819 958 l 819 972 l 1106 972 l 1106 958 l 1081 958 z "},"o":{"ha":1178,"x_min":54,"x_max":1124,"o":"m 204 852 q 278 922 204 852 q 590 992 353 992 q 975 852 826 992 q 1124 486 1124 713 q 975 120 1124 260 q 590 -19 826 -19 q 204 120 353 -19 q 56 486 56 260 q 204 852 56 713 m 280 150 q 339 86 280 150 q 589 22 397 22 q 898 150 781 22 q 1015 486 1015 278 q 898 822 1015 694 q 589 950 781 950 q 280 822 397 950 q 163 486 163 694 q 280 150 163 278 z "},"p":{"ha":801,"x_min":82,"x_max":733,"o":"m 732 704 q 707 590 732 643 q 546 453 661 492 q 476 439 506 439 q 328 471 390 439 l 328 485 q 515 507 429 463 q 619 635 592 546 q 628 688 628 663 q 628 718 628 713 q 576 873 625 815 q 440 931 528 931 l 281 931 l 281 101 q 308 40 282 65 q 369 14 333 14 l 388 14 l 388 0 l 83 0 l 83 14 l 101 14 q 163 40 138 14 q 190 101 189 65 l 190 878 q 161 935 186 913 q 101 958 136 958 l 85 958 l 83 972 l 446 972 q 656 901 579 972 q 732 704 732 829 z "},"q":{"ha":1204,"x_min":68,"x_max":1844,"o":"m 1799 -190 q 1781 -208 1799 -190 q 1699 -262 1764 -226 q 1570 -315 1635 -297 q 1456 -332 1506 -332 q 1150 -269 1294 -332 q 976 -183 1097 -246 q 567 -18 703 -43 q 207 131 344 -7 q 69 490 69 268 q 217 852 69 713 q 603 992 365 992 q 989 852 840 992 q 1138 486 1138 713 q 1022 154 1138 288 q 713 -11 906 21 q 1161 -185 858 -56 q 1461 -246 1308 -246 q 1635 -225 1547 -246 q 1839 -117 1757 -193 l 1844 -124 q 1799 -190 1833 -153 m 294 822 q 235 758 294 822 q 176 486 176 694 q 294 150 176 278 q 603 22 411 22 q 912 150 794 22 q 1029 486 1029 278 q 912 822 1029 694 q 603 950 794 950 q 294 822 411 950 z "},"r":{"ha":940,"x_min":83,"x_max":956,"o":"m 369 929 l 281 929 l 281 101 q 306 40 281 65 q 369 14 332 14 l 386 14 l 388 0 l 83 0 l 83 14 l 101 14 q 163 39 138 14 q 190 100 189 64 l 190 871 q 163 933 189 907 q 101 958 138 958 l 83 958 l 83 972 l 458 972 q 657 902 585 972 q 729 720 729 832 q 660 527 729 608 q 493 446 592 446 q 542 408 514 436 q 593 349 571 379 q 749 138 713 178 q 800 84 785 99 q 833 56 815 69 q 869 33 851 42 q 956 14 910 14 l 956 0 l 879 0 q 768 22 819 0 q 691 66 717 43 q 647 110 665 89 q 543 254 628 132 q 444 394 458 376 q 415 428 431 411 q 326 475 371 475 l 326 489 q 356 488 338 488 q 400 489 374 488 q 617 633 572 493 q 625 685 625 661 q 625 717 625 710 q 576 867 622 810 q 453 928 531 924 q 369 929 419 929 z "},"s":{"ha":661,"x_min":79,"x_max":581,"o":"m 85 57 q 81 132 81 76 q 101 250 81 188 l 114 250 q 113 219 113 235 q 164 78 113 135 q 300 22 215 22 q 444 75 388 22 q 500 208 500 128 q 446 338 500 288 l 179 585 q 104 753 104 654 q 170 922 104 851 q 349 992 236 992 q 468 978 401 992 l 522 978 l 522 807 l 510 807 q 465 911 510 872 q 349 950 419 950 q 230 903 278 950 q 182 785 182 856 q 238 663 182 714 l 511 410 q 581 235 581 346 q 510 52 581 124 q 321 -19 439 -19 q 191 -1 260 -19 q 85 57 122 18 z "},"t":{"ha":858,"x_min":28,"x_max":832,"o":"m 818 849 q 794 906 818 882 q 739 932 771 931 l 475 932 l 475 100 q 502 39 476 64 q 564 14 528 14 l 582 14 l 582 0 l 278 0 l 278 14 l 296 14 q 358 39 332 14 q 385 99 383 64 l 385 932 l 121 932 q 65 906 88 931 q 42 849 42 882 l 42 825 l 28 824 l 28 999 q 100 982 49 990 q 194 974 151 974 l 664 974 q 777 984 732 974 q 832 999 822 994 l 832 824 l 818 825 l 818 849 z "},"u":{"ha":1090,"x_min":68,"x_max":1022,"o":"m 1021 958 l 999 958 q 948 940 969 958 q 925 893 926 921 l 925 343 q 822 81 925 181 q 549 -19 719 -19 q 272 80 378 -19 q 165 342 165 179 l 165 889 q 129 950 165 931 q 92 958 113 958 l 69 958 l 69 972 l 351 972 l 351 958 l 329 958 q 278 940 299 958 q 256 892 257 921 l 256 361 q 337 117 256 210 q 554 24 418 24 q 775 112 690 24 q 860 343 860 200 l 860 892 q 838 940 858 921 q 786 958 817 958 l 764 958 l 764 972 l 1021 972 l 1021 958 z "},"v":{"ha":1028,"x_min":-15,"x_max":1043,"o":"m 763 972 l 1042 972 l 1042 958 l 1029 958 q 961 937 994 958 q 908 872 928 915 l 574 124 q 522 -19 522 11 l 510 -19 l 119 871 q 66 937 100 915 q -3 958 32 958 l -14 958 l -14 972 l 299 972 l 299 958 l 286 958 q 242 940 257 958 q 228 905 228 921 q 235 872 228 889 l 525 144 l 828 872 q 833 905 833 889 q 819 940 833 921 q 775 958 804 958 l 763 958 l 763 972 z "},"w":{"ha":1364,"x_min":-14,"x_max":1379,"o":"m 1104 972 l 1378 972 l 1378 958 l 1367 958 q 1295 937 1331 958 q 1244 872 1260 915 l 1014 138 q 983 -17 986 50 l 971 -17 l 688 778 l 476 138 q 447 -17 450 51 l 435 -17 l 119 874 q 68 937 103 915 q -3 958 33 958 l -14 958 l -14 972 l 294 972 l 294 958 l 282 958 q 238 940 253 958 q 224 904 224 921 q 228 874 224 888 l 439 197 l 697 994 l 710 993 l 983 225 l 1169 875 q 1174 906 1174 890 q 1160 940 1174 922 q 1117 958 1146 958 l 1104 958 l 1104 972 z "},"x":{"ha":919,"x_min":-14,"x_max":935,"o":"m 935 0 l 596 0 l 596 14 l 613 14 q 660 42 643 14 q 669 71 669 57 q 663 99 669 85 l 449 436 l 235 100 q 226 72 226 86 q 236 43 226 57 q 283 14 254 14 l 301 14 l 301 0 l -14 0 l -14 14 l 6 14 q 85 38 47 14 q 147 96 122 61 l 413 492 l 169 876 q 108 935 144 911 q 29 958 71 958 l 10 958 l 10 972 l 346 972 l 346 958 l 329 958 q 282 931 300 958 q 272 901 272 915 q 279 874 272 888 l 471 574 l 660 872 q 668 901 668 886 q 660 929 668 915 q 613 958 643 958 l 596 958 l 596 972 l 908 972 l 908 958 l 889 958 q 810 935 847 958 q 749 876 774 911 l 506 518 l 775 94 q 860 25 808 47 q 915 14 888 14 l 935 14 l 935 0 z "},"y":{"ha":918,"x_min":-14,"x_max":933,"o":"m 933 958 l 914 958 q 835 935 872 958 q 774 878 799 913 l 500 433 l 500 101 q 526 40 500 65 q 589 14 551 14 l 606 14 l 606 0 l 303 0 l 303 14 l 321 14 q 383 39 357 14 q 410 100 408 64 l 410 435 l 144 878 q 85 935 124 911 q 6 958 47 958 l -14 958 l -14 972 l 328 972 l 328 958 l 310 958 q 263 931 279 958 q 254 901 254 915 q 261 872 254 886 l 469 483 l 692 874 q 699 901 699 888 q 689 931 699 915 q 642 958 672 958 l 625 958 l 625 972 l 933 972 l 933 958 z "},"z":{"ha":904,"x_min":82,"x_max":857,"o":"m 117 849 l 117 824 l 103 824 l 103 999 q 176 982 124 990 q 249 974 229 974 q 271 974 269 974 l 658 974 q 763 981 726 974 q 806 992 799 989 l 806 979 l 211 42 l 653 42 q 774 89 726 42 q 843 214 822 136 l 857 214 l 811 0 l 83 0 l 83 13 l 667 932 l 199 932 q 140 907 164 931 q 117 849 117 883 z "},"{":{"ha":600,"x_min":0,"x_max":553,"o":"m 553 1067 l 546 1057 q 468 1068 503 1068 q 369 1029 407 1068 q 321 844 321 979 l 324 735 q 313 608 324 669 q 278 530 304 565 q 214 477 253 494 q 138 460 175 460 q 33 506 72 460 q 0 581 10 535 l 11 585 q 40 531 19 554 q 121 490 75 490 q 215 544 179 490 q 228 578 224 557 q 236 615 233 600 q 240 658 239 631 q 240 699 240 685 q 238 742 239 713 q 235 785 236 772 q 235 844 235 799 q 250 949 235 890 q 424 1106 290 1106 q 553 1067 483 1106 m 546 -168 l 553 -178 q 417 -217 482 -217 q 368 -207 394 -217 q 250 -60 279 -178 q 235 50 235 1 q 238 146 235 99 q 240 190 239 175 q 240 231 240 204 q 236 274 239 258 q 228 310 233 289 q 215 345 224 332 q 192 371 206 358 q 160 391 179 383 q 117 399 140 399 q 67 382 93 399 q 10 304 24 353 l 0 308 q 33 383 10 354 q 138 431 71 431 q 272 369 210 431 q 292 339 283 358 q 307 308 301 319 q 316 272 313 297 q 321 238 319 247 q 322 200 322 229 q 322 165 322 171 q 321 120 322 160 q 319 61 319 81 q 383 -151 319 -104 q 435 -176 408 -171 q 483 -181 461 -181 q 546 -168 506 -181 z "},"|":{"ha":340,"x_min":139,"x_max":201,"o":"m 139 -250 l 139 972 l 201 972 l 201 -250 l 139 -250 z "},"}":{"ha":600,"x_min":49,"x_max":601,"o":"m 281 844 q 232 1029 281 979 q 56 1057 175 1088 l 49 1067 q 181 1106 118 1106 q 228 1097 203 1106 q 350 953 319 1071 q 367 840 367 890 q 364 747 367 789 q 362 708 363 722 q 361 671 361 694 q 363 633 361 647 q 367 599 364 618 q 376 566 371 579 q 390 539 382 553 q 411 515 399 525 q 442 498 424 506 q 485 490 461 490 q 533 507 508 490 q 589 585 576 536 l 600 581 q 567 506 590 535 q 463 460 529 460 q 322 529 374 460 q 276 735 276 593 l 281 844 m 49 -178 l 56 -168 q 137 -181 94 -181 q 218 -151 179 -181 q 259 -93 244 -132 q 278 -16 274 -54 q 282 51 282 22 q 279 128 282 81 q 278 165 278 160 q 278 200 278 171 q 280 238 278 229 q 285 272 282 247 q 294 308 289 297 q 308 339 300 319 q 328 369 317 358 q 356 393 340 381 q 471 431 403 431 q 514 421 493 431 q 600 308 582 394 l 590 304 q 533 382 578 353 q 481 399 508 399 q 386 344 421 399 q 372 310 378 332 q 365 274 367 289 q 362 231 363 258 q 362 190 361 204 q 364 146 363 175 q 366 103 365 117 q 367 46 367 90 q 353 -54 367 1 q 179 -217 313 -217 q 49 -178 119 -217 z "},"~":{"ha":685,"x_min":50,"x_max":638,"o":"m 636 435 q 604 346 636 381 q 481 297 558 297 q 361 344 431 297 q 304 385 332 364 q 192 435 232 435 q 133 408 151 435 q 114 354 114 382 q 118 304 114 326 l 56 304 q 51 351 51 329 q 82 446 51 410 q 197 497 125 497 q 347 429 258 497 q 485 360 440 360 q 557 394 529 360 q 575 440 575 415 q 567 490 575 465 l 629 490 q 636 435 636 460 z "},"¡":{"ha":319,"x_min":97,"x_max":222,"o":"m 115 962 q 124 971 115 962 q 160 981 133 981 q 204 962 186 981 q 222 917 222 943 q 204 874 222 892 q 160 856 186 856 q 115 874 133 856 q 97 917 97 892 q 115 962 97 943 m 125 415 l 154 735 l 168 735 l 196 415 l 213 0 l 108 0 l 125 415 z "},"¢":{"ha":836,"x_min":68,"x_max":782,"o":"m 407 107 q 160 222 251 122 q 69 489 69 321 q 176 757 69 657 q 467 857 283 857 l 476 974 l 518 972 l 510 854 q 724 785 635 842 l 749 615 l 739 615 q 506 814 696 794 l 451 146 q 676 214 590 146 q 771 422 763 282 l 782 422 l 771 258 q 642 144 725 185 q 447 104 558 104 l 438 -12 l 397 -8 l 407 107 m 174 481 q 282 203 174 290 q 410 150 335 161 l 464 815 q 249 728 325 815 q 174 481 174 640 z "},"£":{"ha":801,"x_min":69,"x_max":761,"o":"m 468 64 q 747 221 668 64 l 761 221 l 697 33 q 481 -14 593 -14 q 276 24 407 -14 q 181 38 229 38 q 94 0 132 38 l 81 0 l 81 14 q 180 178 139 61 q 222 457 221 294 l 69 457 l 86 507 l 221 507 q 219 565 219 538 q 500 992 219 965 q 543 993 513 993 q 620 972 574 993 q 697 913 667 951 l 660 786 l 646 786 q 649 822 649 804 q 613 917 649 883 q 519 951 578 951 q 419 926 458 951 q 360 863 381 900 q 317 599 317 781 q 318 507 317 556 l 574 507 l 556 457 l 318 457 q 269 196 317 281 q 226 129 244 151 q 174 75 208 107 q 266 85 217 89 q 335 78 315 81 q 468 64 432 64 z "},"¤":{"ha":751,"x_min":69,"x_max":683,"o":"m 569 268 q 375 193 486 193 q 181 265 264 193 l 99 183 l 69 214 l 151 294 q 78 490 78 378 q 153 685 78 601 l 69 768 l 99 797 l 182 714 q 375 785 265 785 q 568 713 485 785 l 653 797 l 683 768 l 597 683 q 669 490 669 600 q 599 297 669 379 l 683 214 l 653 183 l 569 268 m 194 309 q 232 272 194 309 q 374 235 269 235 q 553 309 479 235 q 628 489 628 383 q 553 669 628 594 q 374 743 479 743 q 194 669 269 743 q 119 489 119 594 q 194 309 119 383 z "},"¥":{"ha":918,"x_min":-14,"x_max":933,"o":"m 933 958 l 914 958 q 835 935 872 958 q 774 878 799 913 l 588 576 l 764 576 l 764 535 l 563 535 l 500 433 l 500 410 l 764 410 l 764 368 l 500 368 l 500 100 q 526 39 500 64 q 589 14 553 14 l 606 14 l 606 0 l 303 0 l 303 14 l 321 14 q 383 40 357 14 q 410 101 408 65 l 410 368 l 146 368 l 146 410 l 410 410 l 410 435 l 350 535 l 146 535 l 146 576 l 325 576 l 144 878 q 85 935 124 911 q 6 958 47 958 l -14 958 l -14 972 l 328 972 l 328 958 l 310 958 q 263 931 279 958 q 254 901 254 915 q 261 872 254 886 l 469 483 l 692 874 q 699 901 699 888 q 689 931 699 915 q 642 958 672 958 l 625 958 l 625 972 l 933 972 l 933 958 z "},"¦":{"ha":340,"x_min":139,"x_max":201,"o":"m 139 486 l 139 972 l 201 972 l 201 486 l 139 486 m 139 -250 l 139 236 l 201 236 l 201 -250 l 139 -250 z "},"§":{"ha":710,"x_min":89,"x_max":622,"o":"m 561 940 q 585 896 585 915 q 567 853 585 867 q 527 850 549 839 q 482 881 506 861 q 363 936 421 936 q 288 905 332 936 q 243 829 243 874 q 467 510 243 735 q 621 167 621 354 q 558 -47 621 54 q 421 -181 506 -135 q 281 -214 358 -214 q 161 -168 204 -214 q 138 -124 138 -143 q 160 -75 138 -92 q 177 -69 167 -69 q 211 -84 188 -69 q 264 -125 235 -99 q 349 -161 307 -161 q 426 -136 390 -161 q 475 -50 475 -103 q 249 274 475 56 q 123 449 156 363 q 90 601 90 536 q 150 808 90 703 q 257 926 193 881 q 431 988 343 988 q 561 940 519 988 m 193 810 q 144 638 144 718 q 311 344 144 496 q 522 21 522 153 q 515 -21 522 0 q 565 136 565 57 q 401 440 565 283 q 203 703 235 601 q 192 767 192 739 q 193 810 192 794 z "},"¨":{"ha":833,"x_min":204,"x_max":575,"o":"m 297 988 q 289 980 297 988 q 258 972 281 972 q 220 988 236 972 q 204 1026 204 1004 q 220 1065 204 1049 q 258 1081 236 1081 q 297 1065 281 1081 q 313 1026 313 1049 q 297 988 313 1004 m 559 988 q 551 980 559 988 q 520 972 543 972 q 482 988 497 972 q 467 1026 467 1004 q 482 1065 467 1049 q 520 1081 497 1081 q 559 1065 543 1081 q 575 1026 575 1049 q 559 988 575 1004 z "},"©":{"ha":1178,"x_min":83,"x_max":1094,"o":"m 231 844 q 305 918 231 844 q 589 992 379 992 q 947 844 799 992 q 1094 486 1094 696 q 947 128 1094 276 q 589 -19 799 -19 q 231 128 379 -19 q 83 486 83 276 q 231 844 83 696 m 817 880 q 765 910 817 880 q 589 940 713 940 q 360 880 465 940 q 195 715 256 819 q 135 486 135 610 q 195 258 135 363 q 360 92 256 153 q 589 32 465 32 q 817 92 713 32 q 983 258 922 153 q 1043 486 1043 363 q 983 715 1043 610 q 817 880 922 819 m 597 176 q 370 265 461 176 q 279 487 279 354 q 370 708 279 619 q 592 796 461 796 q 817 736 724 796 l 836 597 l 828 597 q 748 716 810 672 q 593 760 686 760 q 435 681 500 760 q 371 487 371 603 q 435 293 371 371 q 585 214 500 215 q 724 235 669 213 q 815 308 779 257 q 856 439 850 360 l 864 439 l 854 304 q 749 210 818 244 q 597 176 681 176 z "},"ª":{"ha":511,"x_min":0,"x_max":513,"o":"m 506 532 l 511 532 l 511 525 l 340 525 l 340 532 l 347 532 q 376 556 368 532 q 374 583 379 567 l 338 675 l 167 675 l 126 582 q 128 546 118 560 q 153 532 138 532 l 158 532 l 158 525 l 0 525 l 0 532 l 6 532 q 67 581 43 532 l 222 910 q 251 992 250 971 l 258 992 l 446 583 q 506 532 471 532 m 181 708 l 325 708 l 256 886 l 181 708 z "},"«":{"ha":590,"x_min":54,"x_max":536,"o":"m 310 674 q 146 406 249 518 q 311 132 249 289 l 299 125 q 56 406 193 290 q 190 531 133 469 q 299 681 246 592 l 310 674 m 535 674 q 371 406 474 518 q 536 132 474 289 l 524 125 q 281 406 418 290 q 415 531 358 469 q 524 681 471 592 l 535 674 z "},"¬":{"ha":835,"x_min":56,"x_max":781,"o":"m 56 551 l 781 551 l 781 271 l 718 271 l 718 489 l 56 489 l 56 551 z "},"­":{"ha":528,"x_min":47,"x_max":481,"o":"m 47 406 l 56 436 l 472 436 l 481 406 l 472 374 l 56 374 l 47 406 z "},"®":{"ha":340,"x_min":14,"x_max":328,"o":"m 60 928 q 83 951 60 928 q 171 974 106 974 q 282 928 236 974 q 328 817 328 882 q 282 706 328 751 q 171 660 236 660 q 60 706 106 660 q 14 817 14 751 q 60 928 14 882 m 79 726 q 98 707 79 726 q 170 688 117 688 q 262 726 224 688 q 300 817 300 764 q 262 908 300 869 q 170 946 224 946 q 79 908 117 946 q 42 817 42 869 q 79 726 42 764 m 175 906 q 217 893 201 906 q 233 862 233 881 q 222 830 233 843 q 193 814 211 817 q 217 792 204 813 q 240 758 231 771 q 261 742 249 746 l 261 739 l 244 739 q 206 750 217 739 q 190 767 194 761 q 179 785 186 772 q 156 819 161 819 l 156 822 l 169 822 q 197 860 197 828 q 163 892 196 892 q 163 892 163 892 l 146 893 l 146 757 q 160 742 146 742 l 164 742 l 164 739 l 94 739 l 94 742 l 97 742 q 113 756 111 742 l 113 888 q 97 903 111 903 l 94 903 l 94 906 l 146 906 l 175 906 z "},"¯":{"ha":833,"x_min":236,"x_max":585,"o":"m 236 976 l 236 1025 l 583 1025 l 583 976 l 236 976 z "},"°":{"ha":357,"x_min":42,"x_max":317,"o":"m 82 883 q 102 902 82 883 q 178 922 122 922 q 275 883 235 922 q 315 786 315 843 q 275 689 315 729 q 178 649 235 649 q 82 689 122 649 q 42 786 42 729 q 82 883 42 843 m 237 844 q 225 856 237 844 q 178 868 213 868 q 120 844 144 868 q 96 786 96 821 q 120 728 96 751 q 178 704 144 704 q 237 728 213 704 q 261 786 261 751 q 237 844 261 821 z "},"±":{"ha":668,"x_min":56,"x_max":614,"o":"m 365 558 l 614 558 l 614 496 l 365 496 l 365 249 l 303 249 l 303 496 l 56 496 l 56 558 l 303 558 l 303 807 l 365 807 l 365 558 m 56 83 l 56 146 l 614 146 l 614 83 l 56 83 z "},"²":{"ha":521,"x_min":42,"x_max":467,"o":"m 56 931 q 126 975 82 958 q 220 992 169 992 q 317 971 271 992 q 392 911 364 950 q 419 826 419 872 q 401 737 419 779 q 362 664 383 694 q 300 597 340 633 q 206 521 250 553 q 157 486 163 489 l 349 486 q 421 511 396 486 q 457 564 438 529 l 465 564 l 422 428 l 42 428 l 42 438 q 113 499 58 453 q 197 576 167 546 q 267 649 228 606 q 343 810 343 736 q 308 920 343 883 q 217 957 272 957 q 118 922 157 957 q 81 826 79 886 l 71 826 l 56 931 z "},"³":{"ha":431,"x_min":40,"x_max":378,"o":"m 56 938 q 181 989 99 989 q 310 954 263 989 q 358 870 358 919 q 322 785 358 821 q 239 739 285 749 q 336 697 294 732 q 378 610 378 661 q 281 429 378 488 q 129 389 215 389 q 42 397 88 389 l 43 407 q 56 407 50 407 q 233 458 163 407 q 304 607 304 510 q 124 726 304 726 l 125 735 q 240 769 194 735 q 286 855 286 804 q 258 931 286 906 q 182 956 231 956 q 81 858 81 956 q 81 851 81 854 l 71 851 l 56 938 z "},"´":{"ha":610,"x_min":278,"x_max":513,"o":"m 289 1036 l 279 1046 q 456 1228 385 1160 q 513 1154 492 1190 q 289 1036 422 1103 z "},"¶":{"ha":722,"x_min":68,"x_max":710,"o":"m 544 931 l 544 204 q 531 76 544 122 q 478 -18 518 31 l 465 -7 q 501 118 500 51 q 503 201 503 139 l 503 931 l 388 931 l 388 0 q 360 -185 388 -129 q 268 -276 329 -244 l 258 -264 q 329 -159 315 -206 q 343 -65 343 -112 q 342 0 343 -18 l 342 463 q 147 532 224 463 q 69 717 69 601 q 148 902 69 832 q 342 972 226 972 l 567 972 q 576 972 567 972 q 589 972 586 972 q 601 973 592 972 q 615 976 610 974 q 630 980 621 978 q 647 987 639 982 q 663 997 654 992 q 699 1032 679 1008 l 708 1024 q 563 931 668 933 l 544 931 z "},"·":{"ha":236,"x_min":14,"x_max":222,"o":"m 85 504 q 126 508 101 508 q 181 490 151 508 q 222 446 211 472 q 181 401 211 419 q 118 383 151 383 q 55 401 85 383 q 14 446 25 419 q 85 504 31 488 m 158 470 q 148 475 158 470 q 118 481 138 481 q 78 470 99 481 q 53 446 58 460 q 78 422 58 432 q 118 411 99 411 q 158 422 138 411 q 183 446 178 432 q 158 470 178 460 z "},"¸":{"ha":833,"x_min":340,"x_max":538,"o":"m 392 -67 q 469 -61 435 -51 q 538 -146 538 -79 q 476 -242 538 -212 q 406 -258 440 -258 q 342 -249 372 -258 l 343 -235 q 431 -214 393 -235 q 468 -150 468 -193 q 397 -89 468 -89 q 351 -100 374 -89 l 344 -86 l 411 1 l 449 1 l 392 -67 z "},"¹":{"ha":293,"x_min":54,"x_max":267,"o":"m 265 438 l 265 428 l 63 428 l 63 438 l 82 438 q 118 452 103 438 q 133 488 133 467 l 133 878 q 90 924 133 924 l 56 924 l 56 932 q 131 951 100 939 q 186 992 161 963 l 194 992 l 194 486 q 210 452 194 467 q 246 438 225 438 l 265 438 z "},"º":{"ha":572,"x_min":42,"x_max":532,"o":"m 113 922 q 149 957 113 922 q 286 992 185 992 q 460 922 388 992 q 532 753 532 853 q 460 583 532 653 q 286 514 388 514 q 113 583 185 514 q 42 753 42 653 q 113 922 42 853 m 166 603 q 190 573 166 603 q 287 543 214 543 q 408 603 360 543 q 456 753 456 663 q 408 903 456 843 q 287 963 360 963 q 166 903 214 963 q 118 753 118 843 q 166 603 118 663 z "},"»":{"ha":590,"x_min":54,"x_max":536,"o":"m 281 132 q 446 406 342 289 q 282 674 343 518 l 293 681 q 402 531 346 592 q 536 406 458 469 q 293 125 399 290 l 281 132 m 56 132 q 221 406 117 289 q 57 674 118 518 l 68 681 q 177 531 121 592 q 311 406 233 469 q 68 125 174 290 l 56 132 z "},"¼":{"ha":990,"x_min":82,"x_max":958,"o":"m 803 992 l 836 968 l 174 -19 l 139 3 l 803 992 m 293 428 l 90 428 l 90 438 l 110 438 q 146 452 131 438 q 161 488 161 467 l 161 878 q 118 924 161 924 l 83 924 l 83 932 q 158 951 128 939 q 214 992 189 963 l 224 992 l 224 486 q 238 452 224 467 q 274 438 253 438 l 293 438 l 293 428 m 857 181 l 857 57 q 873 23 858 38 q 908 8 888 8 l 918 8 l 918 -1 l 735 -1 l 735 8 l 744 8 q 780 22 765 8 q 796 56 794 35 l 796 181 l 543 181 l 543 189 l 849 563 l 857 563 l 857 226 l 897 226 q 930 231 921 226 q 949 246 939 235 l 957 246 l 938 181 l 857 181 m 796 226 l 796 449 l 618 226 l 796 226 z "},"½":{"ha":1118,"x_min":82,"x_max":1064,"o":"m 801 992 l 835 968 l 172 -19 l 138 3 l 801 992 m 293 438 l 293 428 l 90 428 l 90 438 l 110 438 q 146 452 131 438 q 161 488 161 467 l 161 878 q 118 924 161 924 l 83 924 l 83 932 q 132 942 113 936 q 214 992 182 954 l 222 992 l 222 486 q 238 452 222 467 q 274 438 253 438 l 293 438 m 810 564 q 957 517 897 564 q 1017 394 1017 469 q 835 117 1017 254 q 785 80 811 99 q 754 58 760 61 l 946 58 q 1006 74 985 58 q 1054 136 1028 90 l 1063 136 l 1019 0 l 639 0 l 639 10 q 698 62 657 26 q 766 122 739 97 q 829 183 793 146 q 888 251 865 221 q 940 391 940 326 q 905 492 940 456 q 814 529 869 529 q 715 494 754 529 q 678 399 676 458 l 668 399 l 651 503 q 723 547 679 531 q 810 564 767 564 z "},"¾":{"ha":990,"x_min":40,"x_max":965,"o":"m 863 992 l 896 968 l 233 -19 l 199 3 l 863 992 m 56 938 q 181 989 99 989 q 310 954 263 989 q 358 870 358 919 q 322 785 358 821 q 239 739 285 749 q 357 672 317 729 q 378 610 378 644 q 281 429 378 488 q 129 389 215 389 q 42 397 88 389 l 43 407 q 76 407 49 407 q 149 419 104 407 q 229 454 193 431 q 304 607 304 507 q 124 726 304 726 l 125 735 q 240 769 194 735 q 286 855 286 804 q 258 931 286 906 q 182 956 231 956 q 81 858 81 956 q 81 851 81 854 l 71 851 l 56 938 m 864 181 l 864 57 q 879 23 864 38 q 915 8 894 8 l 925 8 l 925 -1 l 742 -1 l 742 8 l 751 8 q 787 22 772 8 q 803 56 801 35 l 803 181 l 550 181 l 550 189 l 856 563 l 864 563 l 864 226 l 904 226 q 937 231 928 226 q 954 246 946 235 l 964 246 l 944 181 l 864 181 m 803 226 l 803 449 l 625 226 l 803 226 z "},"¿":{"ha":601,"x_min":68,"x_max":547,"o":"m 279 960 q 288 969 279 960 q 324 978 297 978 q 368 960 350 978 q 386 915 386 942 q 368 871 386 889 q 324 853 350 853 q 279 871 297 853 q 261 915 261 889 q 279 960 261 942 m 546 104 q 332 -19 479 -19 q 196 8 257 -19 q 69 217 69 67 q 125 371 69 303 q 217 469 172 428 q 315 601 299 544 q 326 663 326 629 q 301 729 326 697 l 310 736 q 372 603 372 679 q 301 460 372 540 q 243 390 272 426 q 174 215 174 306 q 218 74 174 125 q 344 22 263 22 q 472 78 425 22 q 518 228 518 135 q 518 236 518 232 l 532 236 l 546 104 z "},"À":{"ha":989,"x_min":-14,"x_max":1314,"o":"m 519 1085 l 510 1075 q 286 1193 397 1128 q 343 1267 306 1232 q 519 1085 431 1182 m 164 1019 q 338 1057 254 1057 q 481 1006 407 1057 q 571 897 521 978 q 656 696 604 842 l 825 215 q 944 -41 883 54 q 1054 -184 1004 -136 q 1158 -251 1104 -232 q 1248 -271 1213 -271 q 1311 -265 1283 -271 l 1313 -279 q 1182 -301 1246 -301 q 1054 -269 1118 -301 q 935 -178 990 -236 q 732 190 815 -57 l 678 349 l 297 349 l 201 101 q 194 68 194 85 q 209 33 194 51 q 254 14 224 14 l 265 14 l 265 0 l -14 0 l -14 14 l -1 14 q 64 34 32 14 q 117 94 96 54 l 461 919 q 275 1025 386 1025 q 168 1006 225 1025 l 164 1019 m 313 390 l 664 390 l 554 714 q 496 860 522 807 l 313 390 z "},"Á":{"ha":989,"x_min":-14,"x_max":1314,"o":"m 510 1075 l 500 1085 q 676 1267 606 1199 q 732 1193 713 1229 q 510 1075 643 1142 m 164 1019 q 338 1057 254 1057 q 481 1006 407 1057 q 571 897 521 978 q 656 696 604 842 l 825 215 q 944 -41 883 54 q 1054 -184 1004 -136 q 1158 -251 1104 -232 q 1248 -271 1213 -271 q 1311 -265 1283 -271 l 1313 -279 q 1182 -301 1246 -301 q 1054 -269 1118 -301 q 935 -178 990 -236 q 732 190 815 -57 l 678 349 l 297 349 l 201 101 q 194 68 194 85 q 209 33 194 51 q 254 14 224 14 l 265 14 l 265 0 l -14 0 l -14 14 l -1 14 q 64 34 32 14 q 117 94 96 54 l 461 919 q 275 1026 386 1026 q 168 1006 225 1026 l 164 1019 m 313 390 l 664 390 l 554 714 q 496 860 522 807 l 313 390 z "},"Â":{"ha":989,"x_min":-14,"x_max":1314,"o":"m 501 1250 l 515 1250 l 675 1085 l 667 1074 l 508 1165 l 363 1074 l 354 1085 l 501 1250 m 164 1019 q 335 1056 251 1056 q 401 1049 367 1056 q 474 1010 435 1042 q 536 950 513 979 q 586 868 560 921 q 656 696 619 800 l 825 215 q 944 -41 883 54 q 1054 -184 1004 -136 q 1158 -251 1104 -232 q 1248 -271 1213 -271 q 1311 -265 1283 -271 l 1313 -279 q 1182 -301 1246 -301 q 1054 -269 1118 -301 q 935 -178 990 -236 q 732 190 815 -57 l 678 349 l 297 349 l 201 101 q 194 68 194 85 q 209 33 194 51 q 254 14 224 14 l 265 14 l 265 0 l -14 0 l -14 14 l -1 14 q 64 34 32 14 q 117 94 96 54 l 461 919 q 275 1026 386 1026 q 168 1006 225 1026 l 164 1019 m 313 390 l 664 390 l 554 714 q 496 860 522 807 l 313 390 z "},"Ã":{"ha":989,"x_min":-14,"x_max":1314,"o":"m 607 1138 q 683 1185 664 1138 l 697 1185 q 668 1104 692 1133 q 640 1083 656 1090 q 600 1075 625 1075 q 517 1106 575 1075 q 439 1136 460 1136 q 364 1079 388 1136 l 350 1079 q 382 1165 358 1133 q 439 1197 406 1197 q 528 1167 472 1197 q 607 1138 585 1138 m 164 1019 q 335 1056 251 1056 q 401 1049 367 1056 q 474 1010 435 1042 q 536 950 513 979 q 586 868 560 921 q 656 696 619 800 l 825 215 q 944 -41 883 54 q 1054 -184 1004 -136 q 1158 -251 1104 -232 q 1248 -271 1213 -271 q 1311 -265 1283 -271 l 1313 -279 q 1182 -301 1246 -301 q 1054 -269 1118 -301 q 935 -178 990 -236 q 732 190 815 -57 l 678 349 l 297 349 l 201 101 q 194 68 194 85 q 209 33 194 51 q 254 14 224 14 l 265 14 l 265 0 l -14 0 l -14 14 l -1 14 q 64 34 32 14 q 117 94 96 54 l 461 919 q 275 1026 386 1026 q 168 1006 225 1026 l 164 1019 m 313 390 l 664 390 l 554 714 q 496 860 522 807 l 313 390 z "},"Ä":{"ha":989,"x_min":-14,"x_max":1314,"o":"m 417 1091 q 409 1083 417 1091 q 378 1075 401 1075 q 340 1091 356 1075 q 324 1129 324 1107 q 340 1167 324 1151 q 378 1183 356 1183 q 417 1167 401 1183 q 433 1129 433 1151 q 417 1091 433 1107 m 678 1091 q 670 1083 678 1091 q 640 1075 663 1075 q 602 1091 618 1075 q 586 1129 586 1107 q 602 1167 586 1151 q 640 1183 618 1183 q 678 1167 663 1183 q 694 1129 694 1151 q 678 1091 694 1107 m 164 1019 q 338 1057 254 1057 q 481 1006 407 1057 q 571 897 521 978 q 656 696 604 842 l 825 215 q 944 -41 883 54 q 1054 -184 1004 -136 q 1158 -251 1104 -232 q 1248 -271 1213 -271 q 1311 -265 1283 -271 l 1313 -279 q 1182 -301 1246 -301 q 1054 -269 1118 -301 q 935 -178 990 -236 q 732 190 815 -57 l 678 349 l 297 349 l 201 101 q 194 68 194 85 q 209 33 194 51 q 254 14 224 14 l 265 14 l 265 0 l -14 0 l -14 14 l -1 14 q 64 34 32 14 q 117 94 96 54 l 461 919 q 275 1026 386 1026 q 168 1006 225 1026 l 164 1019 m 313 390 l 664 390 l 554 714 q 496 860 522 807 l 313 390 z "},"Å":{"ha":989,"x_min":-14,"x_max":1314,"o":"m 379 1180 q 379 1202 379 1180 q 417 1254 379 1225 q 510 1283 454 1283 q 603 1256 567 1283 q 640 1189 640 1228 q 622 1126 640 1150 q 521 1075 588 1075 q 417 1105 454 1075 q 379 1180 379 1135 m 558 1238 q 549 1249 558 1238 q 509 1260 539 1260 q 460 1238 479 1260 q 442 1179 442 1217 q 460 1121 442 1142 q 509 1100 479 1100 q 558 1121 539 1100 q 578 1179 578 1142 q 558 1238 578 1217 m 164 1019 q 338 1057 254 1057 q 481 1006 407 1057 q 571 897 521 978 q 656 696 604 842 l 825 215 q 944 -41 883 54 q 1054 -184 1004 -136 q 1158 -251 1104 -232 q 1248 -271 1213 -271 q 1311 -265 1283 -271 l 1313 -279 q 1182 -301 1246 -301 q 1054 -269 1118 -301 q 935 -178 990 -236 q 732 190 815 -57 l 678 349 l 297 349 l 201 101 q 194 68 194 85 q 209 33 194 51 q 254 14 224 14 l 265 14 l 265 0 l -14 0 l -14 14 l -1 14 q 64 34 32 14 q 117 94 96 54 l 461 919 q 275 1026 386 1026 q 168 1006 225 1026 l 164 1019 m 313 390 l 664 390 l 554 714 q 496 860 522 807 l 313 390 z "},"Æ":{"ha":1211,"x_min":-278,"x_max":1206,"o":"m -74 -106 q -145 -128 -110 -122 q -213 -133 -181 -133 q -278 -126 -246 -133 l -276 -112 q -99 -56 -176 -108 q 51 110 -21 -4 l 560 910 q 559 943 568 928 q 531 958 550 958 l 525 958 l 525 972 l 738 972 q 832 981 781 972 q 903 997 883 989 l 903 840 l 889 840 l 889 861 q 869 909 889 889 q 822 929 850 929 l 654 929 l 654 486 l 924 486 q 971 507 951 488 q 990 556 990 526 l 990 575 l 1004 575 l 1004 356 l 990 356 l 990 376 q 971 424 990 404 q 925 444 951 443 l 654 444 l 654 43 l 979 43 q 1192 193 1129 44 l 1206 193 l 1128 0 l 481 0 l 482 14 l 494 14 q 542 33 522 14 q 564 81 563 53 l 564 444 l 340 444 l 125 76 q -74 -106 51 -51 m 564 486 l 564 829 l 364 486 l 564 486 z "},"Ç":{"ha":1140,"x_min":61,"x_max":1107,"o":"m 658 -162 q 588 -101 658 -101 q 542 -112 565 -101 l 535 -99 l 596 -19 q 213 131 363 -12 q 63 488 63 275 q 132 744 63 629 q 324 926 201 860 q 596 992 446 992 q 788 966 690 992 q 951 897 886 940 l 979 701 l 967 701 q 832 884 938 818 q 597 950 726 950 q 290 819 413 950 q 167 489 167 688 q 294 156 167 290 q 626 22 421 22 q 962 156 832 22 q 1092 521 1092 289 l 1106 521 q 1107 462 1107 504 q 1094 352 1107 419 q 1054 226 1082 285 q 985 121 1026 167 q 890 46 943 75 q 633 -19 782 -15 l 582 -79 q 689 -85 642 -58 q 728 -166 728 -107 q 667 -254 728 -225 q 597 -271 632 -271 q 532 -261 563 -271 l 533 -247 q 621 -226 583 -247 q 658 -162 658 -204 z "},"È":{"ha":843,"x_min":83,"x_max":838,"o":"m 354 1071 l 344 1061 q 121 1179 233 1114 q 178 1253 142 1218 q 354 1071 267 1168 m 101 14 q 163 40 138 14 q 190 101 189 65 l 190 879 q 164 935 190 913 q 101 958 138 958 l 85 958 l 83 972 l 365 972 q 459 981 408 972 q 531 997 510 989 l 531 822 l 517 822 l 517 847 q 494 904 517 881 q 439 929 471 928 l 281 929 l 281 500 l 544 500 q 592 521 572 501 q 611 569 611 540 l 611 589 l 625 589 l 625 369 l 611 369 l 611 390 q 592 438 611 418 q 546 458 574 457 l 281 458 l 281 43 l 576 43 q 733 89 679 43 q 824 225 788 135 l 838 225 l 757 0 l 83 0 l 83 14 l 101 14 z "},"É":{"ha":843,"x_min":83,"x_max":838,"o":"m 344 1061 l 335 1071 q 511 1253 440 1185 q 568 1179 549 1215 q 344 1061 479 1128 m 101 14 q 163 40 138 14 q 190 101 189 65 l 190 879 q 164 935 190 913 q 101 958 138 958 l 85 958 l 83 972 l 365 972 q 472 982 425 972 q 531 997 518 992 l 531 822 l 517 822 l 517 847 q 494 904 517 881 q 439 929 471 928 l 281 929 l 281 500 l 544 500 q 592 521 572 501 q 611 569 611 540 l 611 589 l 625 589 l 625 369 l 611 369 l 611 390 q 592 438 611 418 q 546 458 574 457 l 281 458 l 281 43 l 576 43 q 733 89 679 43 q 824 225 788 135 l 838 225 l 757 0 l 83 0 l 83 14 l 101 14 z "},"Ê":{"ha":843,"x_min":83,"x_max":838,"o":"m 338 1236 l 351 1236 l 510 1071 l 501 1060 l 344 1151 l 199 1060 l 190 1071 l 338 1236 m 101 14 q 163 40 138 14 q 190 101 189 65 l 190 879 q 164 935 190 913 q 101 958 138 958 l 85 958 l 83 972 l 365 972 q 459 981 408 972 q 531 997 510 989 l 531 822 l 517 822 l 517 847 q 494 904 517 881 q 439 929 471 928 l 281 929 l 281 500 l 544 500 q 592 521 572 501 q 611 569 611 540 l 611 589 l 625 589 l 625 369 l 611 369 l 611 390 q 592 438 611 418 q 546 458 574 457 l 281 458 l 281 43 l 576 43 q 697 68 647 43 q 773 129 746 93 q 824 225 800 165 l 838 225 l 757 0 l 83 0 l 83 14 l 101 14 z "},"Ë":{"ha":843,"x_min":83,"x_max":838,"o":"m 252 1077 q 244 1069 252 1077 q 214 1061 236 1061 q 176 1077 192 1061 q 160 1115 160 1093 q 176 1153 160 1138 q 214 1169 192 1169 q 252 1153 236 1169 q 268 1115 268 1138 q 252 1077 268 1093 m 515 1077 q 507 1069 515 1077 q 476 1061 499 1061 q 437 1077 453 1061 q 421 1115 421 1093 q 437 1153 421 1138 q 476 1169 453 1169 q 515 1153 499 1169 q 531 1115 531 1138 q 515 1077 531 1093 m 101 14 q 163 40 138 14 q 190 101 189 65 l 190 879 q 164 935 190 913 q 101 958 138 958 l 85 958 l 83 972 l 365 972 q 472 982 425 972 q 531 997 518 992 l 531 822 l 517 822 l 517 847 q 494 904 517 881 q 439 929 471 928 l 281 929 l 281 500 l 544 500 q 592 521 572 501 q 611 569 611 540 l 611 589 l 625 589 l 625 369 l 611 369 l 611 390 q 592 438 611 418 q 546 458 574 457 l 281 458 l 281 43 l 576 43 q 733 89 679 43 q 824 225 788 135 l 838 225 l 757 0 l 83 0 l 83 14 l 101 14 z "},"Ì":{"ha":546,"x_min":-71,"x_max":467,"o":"m 321 1071 l 311 1061 q 89 1179 200 1114 q 144 1253 108 1218 q 321 1071 233 1168 m 446 14 l 464 14 l 464 0 l 160 0 l 160 14 l 178 14 q 240 40 214 14 q 267 101 267 65 l 267 935 l 118 926 q -22 825 -22 918 q 2 760 -22 788 q 79 732 26 733 l 79 724 q 40 719 60 719 q -51 768 -21 719 q -69 829 -69 796 q 110 967 -69 947 q 248 976 111 967 q 464 1000 385 985 l 467 986 q 382 946 407 976 q 357 861 357 915 l 357 101 q 384 40 358 65 q 446 14 410 14 z "},"Í":{"ha":546,"x_min":-71,"x_max":536,"o":"m 311 1061 l 301 1071 q 478 1253 407 1185 q 535 1179 515 1215 q 311 1061 446 1128 m 446 14 l 464 14 l 464 0 l 160 0 l 160 14 l 178 14 q 240 40 214 14 q 267 101 267 65 l 267 935 l 118 926 q -22 825 -22 918 q 2 761 -22 788 q 79 732 26 735 l 79 724 q 30 719 58 719 q -34 747 1 719 q -69 829 -69 775 q 110 967 -69 947 q 248 976 111 967 q 464 1000 385 985 l 467 986 q 382 946 407 976 q 357 861 357 915 l 357 101 q 384 40 358 65 q 446 14 410 14 z "},"Î":{"ha":546,"x_min":-71,"x_max":478,"o":"m 304 1236 l 318 1236 l 476 1071 l 468 1060 l 311 1151 l 165 1060 l 157 1071 l 304 1236 m 446 14 l 464 14 l 464 0 l 160 0 l 160 14 l 178 14 q 240 40 214 14 q 267 101 267 65 l 267 935 l 118 926 q -22 825 -22 918 q 2 761 -22 788 q 79 732 26 735 l 79 724 q 30 719 58 719 q -34 747 1 719 q -69 829 -69 775 q 110 967 -69 947 q 248 976 111 967 q 464 1000 385 985 l 467 986 q 382 946 407 976 q 357 861 357 915 l 357 101 q 384 40 358 65 q 446 14 410 14 z "},"Ï":{"ha":546,"x_min":-71,"x_max":497,"o":"m 219 1077 q 211 1069 219 1077 q 181 1061 203 1061 q 142 1077 158 1061 q 126 1115 126 1093 q 142 1153 126 1138 q 181 1169 158 1169 q 219 1153 203 1169 q 235 1115 235 1138 q 219 1077 235 1093 m 481 1077 q 473 1069 481 1077 q 442 1061 465 1061 q 403 1077 419 1061 q 388 1115 388 1093 q 403 1153 388 1138 q 442 1169 419 1169 q 481 1153 465 1169 q 497 1115 497 1138 q 481 1077 497 1093 m 446 14 l 464 14 l 464 0 l 160 0 l 160 14 l 178 14 q 240 40 214 14 q 267 101 267 65 l 267 935 l 118 926 q -22 825 -22 918 q 2 761 -22 788 q 79 732 26 735 l 79 724 q 40 719 60 719 q -51 768 -21 719 q -69 829 -69 796 q 110 967 -69 947 q 248 976 111 967 q 464 1000 385 985 l 467 986 q 382 946 407 976 q 357 861 357 915 l 357 101 q 384 40 358 65 q 446 14 410 14 z "},"Ð":{"ha":1135,"x_min":-169,"x_max":1053,"o":"m -168 769 q -35 931 -129 886 q 300 976 58 976 q 554 972 356 976 q 814 908 701 968 q 990 740 926 849 q 1053 486 1053 631 q 915 134 1053 268 q 554 0 776 0 l 83 0 l 85 14 l 101 14 q 161 37 136 14 q 190 93 186 60 l 190 465 l 83 465 l 83 507 l 190 507 l 190 929 q -56 874 17 922 q -112 825 -93 849 q -153 764 -132 801 l -168 769 m 281 465 l 281 42 l 554 42 q 760 97 671 42 q 899 253 850 151 q 949 486 949 354 q 840 808 949 686 q 554 931 732 931 l 281 931 l 281 507 l 514 507 l 514 465 l 281 465 z "},"Ñ":{"ha":1168,"x_min":-262,"x_max":1464,"o":"m 689 1124 q 767 1171 747 1124 l 781 1171 q 732 1074 772 1101 q 685 1061 713 1061 q 599 1092 657 1061 q 522 1122 542 1122 q 446 1065 469 1122 l 432 1065 q 464 1151 440 1119 q 522 1183 488 1183 q 611 1153 556 1183 q 689 1124 667 1124 m 1464 -211 q 1348 -232 1397 -232 q 1259 -222 1299 -232 q 1181 -194 1219 -211 q 1103 -146 1142 -176 q 969 -19 1038 -93 l 238 792 l 238 97 q 263 38 238 63 q 322 14 288 14 l 349 14 l 349 0 l 63 0 l 63 14 l 89 14 q 149 38 124 14 q 174 99 174 63 l 174 861 q 146 898 167 871 q 111 942 125 925 q 74 985 97 958 q 30 1029 50 1013 q -17 1068 10 1046 q -106 1114 -58 1100 q -185 1128 -153 1128 q -256 1117 -218 1128 l -261 1131 q -128 1158 -193 1158 q 104 1067 -10 1158 q 232 939 156 1024 l 932 161 l 932 874 q 906 934 931 910 q 846 958 881 958 l 819 958 l 819 972 l 1106 972 l 1106 958 l 1081 958 q 1021 934 1046 958 q 994 875 996 910 l 994 90 q 1034 44 1008 75 q 1070 1 1060 14 q 1101 -35 1081 -11 q 1137 -72 1122 -58 q 1173 -105 1151 -85 q 1213 -137 1194 -125 q 1256 -164 1232 -149 q 1331 -193 1289 -183 q 1401 -203 1374 -203 q 1458 -197 1428 -203 l 1464 -211 z "},"Ò":{"ha":1290,"x_min":83,"x_max":1207,"o":"m 661 1071 l 651 1061 q 428 1179 540 1114 q 485 1253 449 1218 q 661 1071 574 1168 m 385 649 q 379 680 379 667 q 381 710 379 693 q 387 756 382 726 q 406 813 392 785 q 438 867 419 842 q 484 916 456 893 q 547 956 513 939 q 744 992 621 992 q 978 926 868 992 q 1148 749 1089 861 q 1207 493 1207 638 q 1135 230 1207 349 q 935 46 1063 111 q 648 -19 807 -19 q 360 45 489 -19 q 158 228 232 110 q 83 498 83 347 q 153 764 83 649 q 351 944 222 879 l 360 932 q 230 760 269 872 q 190 525 190 647 q 225 308 190 403 q 322 150 260 213 q 647 22 449 22 q 973 155 846 22 q 1100 504 1100 288 q 1004 814 1100 686 q 883 913 958 876 q 721 950 808 950 q 567 921 633 950 q 407 751 446 869 q 396 692 396 717 q 399 651 396 667 l 385 649 z "},"Ó":{"ha":1290,"x_min":83,"x_max":1207,"o":"m 651 1061 l 642 1071 q 818 1253 747 1185 q 875 1179 856 1215 q 651 1061 785 1128 m 385 649 q 379 680 379 667 q 381 710 379 693 q 387 756 382 726 q 406 813 392 785 q 438 868 419 842 q 484 917 456 894 q 547 956 513 939 q 744 992 621 992 q 978 926 868 992 q 1148 749 1089 861 q 1207 493 1207 638 q 1135 230 1207 349 q 935 46 1063 111 q 648 -19 807 -19 q 360 45 489 -19 q 158 228 232 110 q 83 498 83 347 q 153 764 83 649 q 351 944 222 879 l 360 932 q 230 760 269 872 q 190 525 190 647 q 225 308 190 403 q 322 150 260 213 q 647 22 449 22 q 973 155 846 22 q 1100 504 1100 288 q 1004 814 1100 686 q 883 913 958 876 q 721 950 808 950 q 567 921 633 950 q 407 751 446 869 q 396 692 396 717 q 399 651 396 667 l 385 649 z "},"Ô":{"ha":1290,"x_min":83,"x_max":1208,"o":"m 644 1236 l 658 1236 l 817 1071 l 808 1060 l 650 1151 l 506 1060 l 497 1071 l 644 1236 m 385 649 q 379 680 379 667 q 381 710 379 693 q 387 756 382 726 q 406 813 392 785 q 438 868 419 842 q 484 917 456 894 q 547 956 513 939 q 744 992 621 992 q 978 926 868 992 q 1148 749 1089 861 q 1207 493 1207 638 q 1135 230 1207 349 q 935 46 1063 111 q 647 -19 807 -19 q 424 18 528 -19 q 245 123 321 56 q 126 288 169 190 q 83 517 83 386 q 153 764 83 649 q 351 944 222 879 l 360 932 q 230 760 269 872 q 190 525 190 647 q 225 308 190 403 q 322 150 260 213 q 644 22 449 22 q 880 82 776 22 q 1042 251 983 142 q 1100 504 1100 361 q 1004 814 1100 686 q 883 913 958 876 q 721 950 808 950 q 567 921 633 950 q 407 751 446 869 q 396 692 396 717 q 399 651 396 667 l 385 649 z "},"Õ":{"ha":1290,"x_min":83,"x_max":1208,"o":"m 749 1124 q 826 1171 807 1124 l 840 1171 q 792 1074 832 1101 q 745 1061 774 1061 q 660 1092 717 1061 q 582 1122 603 1122 q 507 1065 529 1122 l 493 1065 q 524 1151 500 1119 q 582 1183 549 1183 q 671 1153 615 1183 q 749 1124 726 1124 m 385 649 q 379 680 379 667 q 381 710 379 693 q 387 756 382 726 q 406 813 392 785 q 438 868 419 842 q 484 917 456 894 q 547 956 513 939 q 744 992 621 992 q 978 926 868 992 q 1148 749 1089 861 q 1207 493 1207 638 q 1135 230 1207 349 q 935 46 1063 111 q 648 -19 807 -19 q 360 45 489 -19 q 158 228 232 110 q 83 498 83 347 q 153 764 83 649 q 351 944 222 879 l 360 932 q 258 818 299 892 q 190 521 190 694 q 225 308 190 403 q 322 150 260 213 q 644 22 449 22 q 880 82 776 22 q 1042 251 983 142 q 1100 504 1100 361 q 1004 814 1100 686 q 883 913 958 876 q 721 950 808 950 q 567 921 633 950 q 407 751 446 869 q 396 692 396 717 q 399 651 396 667 l 385 649 z "},"Ö":{"ha":1290,"x_min":83,"x_max":1207,"o":"m 559 1077 q 551 1069 559 1077 q 521 1061 543 1061 q 483 1077 499 1061 q 467 1115 467 1093 q 483 1153 467 1138 q 521 1169 499 1169 q 559 1153 543 1169 q 575 1115 575 1138 q 559 1077 575 1093 m 820 1077 q 812 1069 820 1077 q 782 1061 804 1061 q 744 1077 760 1061 q 728 1115 728 1093 q 744 1153 728 1138 q 782 1169 760 1169 q 820 1153 804 1169 q 836 1115 836 1138 q 820 1077 836 1093 m 385 649 q 379 680 379 667 q 381 710 379 693 q 387 756 382 726 q 406 813 392 785 q 438 868 419 842 q 484 917 456 894 q 547 956 513 939 q 744 992 621 992 q 978 926 868 992 q 1148 749 1089 861 q 1207 493 1207 638 q 1135 230 1207 349 q 935 46 1063 111 q 648 -19 807 -19 q 360 45 489 -19 q 158 228 232 110 q 83 498 83 347 q 153 764 83 649 q 351 944 222 879 l 360 932 q 230 760 269 872 q 190 525 190 647 q 225 308 190 403 q 322 150 260 213 q 647 22 449 22 q 973 155 846 22 q 1100 504 1100 288 q 1004 814 1100 686 q 883 913 958 876 q 721 950 808 950 q 567 921 633 950 q 407 751 446 869 q 396 692 396 717 q 399 651 396 667 l 385 649 z "},"×":{"ha":576,"x_min":68,"x_max":508,"o":"m 508 606 l 333 431 l 508 256 l 464 211 l 289 386 l 114 211 l 69 256 l 244 431 l 69 606 l 114 650 l 289 475 l 464 650 l 508 606 z "},"Ø":{"ha":1290,"x_min":83,"x_max":1208,"o":"m 1025 894 q 1207 486 1207 753 q 1133 231 1207 350 q 929 46 1058 111 q 633 -19 800 -19 q 331 60 465 -19 l 254 -32 l 219 -1 l 290 85 q 138 261 193 154 q 83 508 83 368 q 153 764 83 649 q 351 944 222 879 l 360 932 q 230 760 269 872 q 190 521 190 647 q 333 136 190 271 l 947 874 q 715 950 851 950 q 567 921 633 950 q 407 751 446 869 q 396 692 396 717 q 399 651 396 667 l 385 649 q 379 680 379 667 q 381 710 379 693 q 387 756 382 726 q 406 813 392 785 q 438 868 419 842 q 484 917 456 894 q 547 956 513 939 q 726 992 621 992 q 986 921 872 992 l 1054 1003 l 1090 972 l 1025 894 m 638 22 q 970 156 840 22 q 1100 504 1100 289 q 1047 746 1100 639 q 981 842 1021 800 l 368 106 q 638 22 481 22 z "},"Ù":{"ha":1088,"x_min":68,"x_max":1256,"o":"m 596 1071 l 586 1061 q 363 1179 474 1114 q 419 1253 382 1218 q 596 1071 507 1168 m 1232 1211 q 1256 1211 1243 1211 l 1256 1197 q 1014 1097 1103 1197 q 925 806 925 996 l 925 343 q 822 81 925 181 q 549 -19 719 -19 q 272 80 378 -19 q 165 342 165 179 l 165 889 q 144 939 165 919 q 92 958 122 958 l 69 958 l 69 972 l 351 972 l 351 958 l 329 958 q 278 940 299 958 q 256 892 257 921 l 256 361 q 337 117 256 210 q 550 24 418 24 q 775 112 690 24 q 860 343 860 200 l 860 804 q 963 1110 860 1008 q 1232 1211 1067 1211 z "},"Ú":{"ha":1088,"x_min":69,"x_max":1256,"o":"m 586 1061 l 576 1071 q 753 1253 682 1185 q 808 1179 789 1215 q 586 1061 719 1128 m 1232 1211 q 1256 1211 1243 1211 l 1256 1197 q 1014 1097 1103 1197 q 925 806 925 996 l 925 343 q 822 81 925 181 q 549 -19 719 -19 q 272 80 378 -19 q 165 342 165 179 l 165 890 q 144 939 165 919 q 92 958 122 958 l 69 958 l 69 972 l 351 972 l 351 958 l 329 958 q 267 926 288 958 q 256 892 257 911 l 256 361 q 337 117 256 210 q 554 25 418 25 q 775 113 690 25 q 860 343 860 200 l 860 804 q 963 1110 860 1008 q 1232 1211 1067 1211 z "},"Û":{"ha":1088,"x_min":69,"x_max":1256,"o":"m 578 1236 l 592 1236 l 751 1071 l 743 1060 l 585 1151 l 439 1060 l 431 1071 l 578 1236 m 1232 1211 q 1256 1211 1243 1211 l 1256 1197 q 1014 1097 1103 1197 q 925 806 925 996 l 925 343 q 822 81 925 181 q 549 -19 719 -19 q 272 80 378 -19 q 165 342 165 179 l 165 890 q 129 950 165 931 q 92 958 113 958 l 69 958 l 69 972 l 351 972 l 351 958 l 329 958 q 278 940 299 958 q 256 892 257 921 l 256 361 q 337 117 256 210 q 554 25 418 25 q 775 113 690 25 q 860 343 860 200 l 860 804 q 963 1110 860 1008 q 1232 1211 1067 1211 z "},"Ü":{"ha":1088,"x_min":68,"x_max":1256,"o":"m 1232 1211 q 1256 1211 1243 1211 l 1256 1197 q 1014 1097 1103 1197 q 925 806 925 996 l 925 343 q 822 81 925 181 q 549 -19 719 -19 q 272 80 378 -19 q 165 342 165 179 l 165 890 q 129 950 165 931 q 92 958 113 958 l 69 958 l 69 972 l 351 972 l 351 958 l 329 958 q 278 940 299 958 q 256 892 257 921 l 256 361 q 337 117 256 210 q 550 25 418 25 q 775 113 690 25 q 860 343 860 200 l 860 804 q 963 1110 860 1008 q 1232 1211 1067 1211 m 494 1077 q 486 1069 494 1077 q 455 1061 478 1061 q 416 1077 432 1061 q 400 1115 400 1093 q 416 1153 400 1138 q 455 1169 432 1169 q 494 1153 478 1169 q 510 1115 510 1138 q 494 1077 510 1093 m 755 1077 q 747 1069 755 1077 q 717 1061 739 1061 q 678 1077 694 1061 q 663 1115 663 1093 q 678 1153 663 1138 q 717 1169 694 1169 q 755 1153 739 1169 q 771 1115 771 1138 q 755 1077 771 1093 z "},"Ý":{"ha":858,"x_min":-56,"x_max":915,"o":"m 460 1061 l 450 1071 q 626 1253 556 1185 q 683 1179 664 1215 q 460 1061 594 1128 m -56 1051 q -21 1051 -46 1051 q 47 1043 4 1051 q 127 1019 90 1035 q 199 973 164 1003 q 260 917 235 943 q 310 850 285 892 q 352 779 336 808 q 388 703 368 750 q 428 598 413 643 q 446 547 444 553 q 456 522 451 533 q 472 566 460 532 q 495 626 485 600 q 526 701 506 653 q 561 778 546 750 q 601 848 576 806 q 647 915 625 890 q 701 969 669 940 q 763 1014 732 999 q 915 1051 838 1051 l 915 1038 q 756 956 838 1038 q 617 758 675 874 q 523 517 560 642 q 486 306 486 393 l 486 101 q 512 40 486 67 q 575 14 538 14 l 592 14 l 592 0 l 289 0 l 289 14 l 307 14 q 368 39 342 14 q 396 100 394 64 l 396 307 q 357 525 396 400 q 257 765 318 650 q 111 958 196 879 q -56 1038 26 1038 l -56 1051 z "},"Þ":{"ha":769,"x_min":58,"x_max":701,"o":"m 683 604 q 701 492 701 554 q 676 379 701 431 q 519 242 632 281 q 451 228 479 228 q 304 260 365 228 l 304 274 q 492 296 404 251 q 594 424 567 333 q 604 476 604 451 q 604 507 604 500 q 553 662 601 604 q 417 719 504 719 l 257 719 l 257 101 q 301 25 257 50 q 346 14 321 14 l 363 14 l 363 0 l 60 0 l 60 14 l 76 14 q 140 40 114 14 q 167 101 165 65 l 167 872 q 140 933 165 908 q 78 958 114 958 l 60 958 l 60 972 l 363 972 l 363 958 l 346 958 q 283 933 310 958 q 257 872 257 908 l 257 761 l 422 761 q 683 604 626 761 z "},"ß":{"ha":1322,"x_min":79,"x_max":1242,"o":"m 85 57 q 81 132 81 76 q 101 250 81 188 l 114 250 q 113 219 113 235 q 164 78 113 135 q 300 22 215 22 q 444 75 388 22 q 500 208 500 128 q 446 338 500 288 l 179 585 q 104 753 104 654 q 170 922 104 851 q 349 992 236 992 q 468 978 401 992 l 522 978 l 522 807 l 510 807 q 465 911 510 872 q 349 950 419 950 q 230 903 278 950 q 182 785 182 856 q 238 663 182 714 l 511 410 q 581 235 581 346 q 510 52 581 124 q 321 -19 439 -19 q 191 -1 260 -19 q 85 57 122 18 m 746 57 q 742 132 742 76 q 763 250 742 188 l 775 250 q 774 219 774 235 q 825 78 774 135 q 961 22 876 22 q 1105 75 1049 22 q 1161 208 1161 128 q 1107 338 1161 288 l 840 585 q 765 753 765 654 q 831 922 765 851 q 1010 992 897 992 q 1128 978 1063 992 l 1183 978 l 1183 807 l 1169 807 q 1126 911 1171 872 q 1022 950 1081 950 q 925 928 964 950 q 843 798 843 882 q 899 663 843 714 l 1172 410 q 1242 235 1242 346 q 1171 52 1242 124 q 982 -19 1100 -19 q 851 -1 919 -19 q 746 57 783 18 z "},"à":{"ha":989,"x_min":-14,"x_max":1004,"o":"m 504 1071 l 494 1061 q 271 1179 382 1114 q 328 1253 292 1218 q 504 1071 415 1168 m 993 14 l 1004 14 l 1004 0 l 692 0 l 692 14 l 704 14 q 748 33 733 14 q 763 68 763 51 q 757 101 763 85 l 668 338 l 293 338 l 200 100 q 194 72 194 83 q 199 48 194 61 q 219 24 204 35 q 253 14 235 14 l 265 14 l 265 0 l -14 0 l -14 14 l -1 14 q 67 36 33 14 q 121 101 100 58 l 435 849 q 486 992 486 961 l 499 992 l 871 101 q 949 22 897 43 q 993 14 971 14 m 310 379 l 651 379 l 485 825 l 310 379 z "},"á":{"ha":989,"x_min":-15,"x_max":1004,"o":"m 494 1061 l 485 1071 q 661 1253 590 1185 q 718 1179 699 1215 q 494 1061 628 1128 m 993 14 l 1004 14 l 1004 0 l 692 0 l 692 14 l 704 14 q 748 33 733 14 q 763 68 763 51 q 757 101 763 85 l 668 338 l 293 338 l 200 100 q 194 67 194 83 q 209 33 194 51 q 253 14 224 14 l 265 14 l 265 0 l -14 0 l -14 14 l -1 14 q 67 36 33 14 q 121 101 100 58 l 435 849 q 486 992 486 961 l 499 992 l 871 101 q 924 36 890 58 q 993 14 957 14 m 310 379 l 651 379 l 485 825 l 310 379 z "},"â":{"ha":989,"x_min":-14,"x_max":1004,"o":"m 488 1236 l 501 1236 l 660 1071 l 651 1060 l 493 1151 l 349 1060 l 340 1071 l 488 1236 m 993 14 l 1004 14 l 1004 0 l 692 0 l 692 14 l 704 14 q 748 33 733 14 q 763 68 763 51 q 757 101 763 85 l 668 338 l 293 338 l 200 100 q 194 67 194 83 q 209 33 194 51 q 253 14 224 14 l 265 14 l 265 0 l -14 0 l -14 14 l -1 14 q 67 36 33 14 q 121 101 100 58 l 435 849 q 486 992 486 961 l 499 992 l 871 101 q 924 36 890 58 q 993 14 957 14 m 310 379 l 651 379 l 485 825 l 310 379 z "},"ã":{"ha":989,"x_min":-14,"x_max":1004,"o":"m 592 1124 q 669 1171 650 1124 l 683 1171 q 635 1074 675 1101 q 588 1061 615 1061 q 502 1092 560 1061 q 425 1122 444 1122 q 350 1065 372 1122 l 336 1065 q 367 1151 343 1119 q 424 1183 390 1183 q 514 1153 458 1183 q 592 1124 569 1124 m 993 14 l 1004 14 l 1004 0 l 692 0 l 692 14 l 704 14 q 748 33 733 14 q 763 68 763 51 q 757 101 763 85 l 668 338 l 293 338 l 200 100 q 194 67 194 83 q 209 33 194 51 q 253 14 224 14 l 265 14 l 265 0 l -14 0 l -14 14 l -1 14 q 67 36 33 14 q 121 101 100 58 l 435 849 q 486 992 486 961 l 499 992 l 871 101 q 924 36 890 58 q 993 14 957 14 m 310 379 l 651 379 l 485 825 l 310 379 z "},"ä":{"ha":989,"x_min":-15,"x_max":1004,"o":"m 402 1077 q 394 1069 402 1077 q 364 1061 386 1061 q 326 1077 342 1061 q 310 1115 310 1093 q 326 1153 310 1138 q 364 1169 342 1169 q 402 1153 386 1169 q 418 1115 418 1138 q 402 1077 418 1093 m 663 1077 q 655 1069 663 1077 q 625 1061 647 1061 q 587 1077 603 1061 q 571 1115 571 1093 q 587 1153 571 1138 q 625 1169 603 1169 q 663 1153 647 1169 q 679 1115 679 1138 q 663 1077 679 1093 m 993 14 l 1004 14 l 1004 0 l 692 0 l 692 14 l 704 14 q 748 33 733 14 q 763 68 763 51 q 757 101 763 85 l 668 338 l 293 338 l 200 100 q 228 19 181 42 q 253 14 240 14 l 265 14 l 265 0 l -14 0 l -14 14 l -1 14 q 67 36 33 14 q 121 101 100 58 l 435 849 q 486 992 486 961 l 499 992 l 871 101 q 924 36 890 58 q 993 14 957 14 m 310 379 l 651 379 l 485 825 l 310 379 z "},"å":{"ha":989,"x_min":-15,"x_max":1004,"o":"m 381 1219 q 390 1231 381 1219 q 428 1256 399 1243 q 505 1269 458 1269 q 588 1242 551 1269 q 625 1165 625 1214 q 561 1075 625 1104 q 485 1061 532 1061 q 401 1091 439 1061 q 364 1158 364 1121 q 381 1219 364 1196 m 544 1224 q 534 1235 544 1224 q 495 1246 525 1246 q 446 1224 465 1246 q 426 1165 426 1203 q 446 1107 426 1128 q 495 1086 465 1086 q 544 1107 525 1086 q 563 1165 563 1128 q 544 1224 563 1203 m 993 14 l 1004 14 l 1004 0 l 692 0 l 692 14 l 704 14 q 748 33 733 14 q 763 68 763 51 q 757 101 763 85 l 668 338 l 293 338 l 200 100 q 194 67 194 83 q 209 33 194 51 q 253 14 224 14 l 265 14 l 265 0 l -14 0 l -14 14 l -1 14 q 67 36 33 14 q 121 101 100 58 l 435 849 q 486 992 486 961 l 499 992 l 871 101 q 924 36 890 58 q 993 14 957 14 m 310 379 l 651 379 l 485 825 l 310 379 z "},"æ":{"ha":1251,"x_min":-15,"x_max":1192,"o":"m 578 14 q 626 33 606 14 q 647 81 646 53 l 647 444 l 419 444 l 211 93 q 201 62 201 75 q 206 38 201 49 q 244 14 217 14 q 249 14 247 14 l 263 14 l 263 0 l -14 0 l -14 14 l -4 14 q 66 40 29 14 q 124 99 103 65 l 643 910 q 642 943 651 928 q 614 958 633 958 l 608 958 l 608 972 l 946 972 q 1040 981 989 972 q 1111 997 1092 989 l 1111 840 l 1097 840 l 1097 861 q 1078 909 1097 889 q 1031 929 1058 929 l 738 929 l 738 486 l 972 486 q 1019 507 1000 488 q 1039 556 1039 526 l 1039 575 l 1053 575 l 1053 356 l 1039 356 l 1039 376 q 1019 424 1039 404 q 974 444 1000 443 l 738 444 l 738 43 l 965 43 q 1178 193 1115 44 l 1192 193 l 1114 0 l 564 0 l 565 14 l 578 14 m 647 486 l 647 831 l 443 486 l 647 486 z "},"ç":{"ha":1056,"x_min":83,"x_max":988,"o":"m 547 -85 q 625 -79 590 -69 q 693 -164 693 -97 q 632 -260 693 -231 q 563 -276 597 -276 q 497 -267 529 -276 l 499 -253 q 586 -232 549 -253 q 624 -168 624 -211 q 553 -107 624 -107 q 507 -118 531 -107 l 500 -104 l 565 -19 q 217 126 351 -12 q 83 489 83 264 q 222 853 83 714 q 588 992 360 992 q 917 897 774 992 l 944 701 l 932 701 q 808 885 901 821 q 588 950 715 950 q 297 824 406 950 q 188 489 188 697 q 295 153 188 281 q 579 22 403 26 q 839 107 735 22 q 975 406 951 199 l 986 406 l 969 188 q 763 13 894 64 q 604 -19 690 -17 l 547 -85 z "},"è":{"ha":801,"x_min":83,"x_max":740,"o":"m 422 1071 l 413 1061 q 189 1179 301 1114 q 246 1253 210 1218 q 422 1071 333 1168 m 101 14 q 163 40 138 14 q 190 101 189 65 l 190 879 q 164 935 190 913 q 101 958 138 958 l 85 958 l 83 972 l 490 972 q 597 982 550 972 q 656 997 643 992 l 656 822 l 642 822 l 642 847 q 619 904 642 881 q 564 929 596 928 l 281 929 l 281 500 l 515 500 q 563 521 543 501 q 582 569 582 540 l 582 589 l 596 589 l 596 369 l 582 369 l 582 390 q 542 453 582 433 q 517 458 531 458 l 281 458 l 281 43 l 479 43 q 636 89 582 43 q 726 225 690 135 l 740 224 l 660 0 l 83 0 l 83 14 l 101 14 z "},"é":{"ha":801,"x_min":83,"x_max":740,"o":"m 413 1061 l 403 1071 q 579 1253 508 1185 q 636 1179 617 1215 q 413 1061 546 1128 m 101 14 q 163 40 138 14 q 190 101 189 65 l 190 879 q 164 935 190 913 q 101 958 138 958 l 85 958 l 83 972 l 490 972 q 597 982 550 972 q 656 997 643 992 l 656 822 l 642 822 l 642 847 q 619 904 642 881 q 564 929 596 928 l 281 929 l 281 500 l 515 500 q 563 521 543 501 q 582 569 582 540 l 582 589 l 596 589 l 596 369 l 582 369 l 582 390 q 563 438 582 418 q 517 458 544 457 l 281 458 l 281 43 l 479 43 q 636 89 582 43 q 726 225 690 135 l 740 225 l 660 0 l 83 0 l 83 14 l 101 14 z "},"ê":{"ha":801,"x_min":83,"x_max":740,"o":"m 406 1236 l 419 1236 l 578 1071 l 569 1060 l 411 1151 l 267 1060 l 258 1071 l 406 1236 m 101 14 q 163 40 138 14 q 190 101 189 65 l 190 879 q 164 935 190 913 q 101 958 138 958 l 85 958 l 83 972 l 490 972 q 597 982 550 972 q 656 997 643 992 l 656 822 l 642 822 l 642 847 q 619 904 642 881 q 564 929 596 928 l 281 929 l 281 500 l 515 500 q 563 521 543 501 q 582 569 582 540 l 582 589 l 596 589 l 596 369 l 582 369 l 582 390 q 563 438 582 418 q 517 458 544 457 l 281 458 l 281 43 l 479 43 q 636 89 582 43 q 726 225 690 135 l 740 225 l 660 0 l 83 0 l 83 14 l 101 14 z "},"ë":{"ha":801,"x_min":83,"x_max":740,"o":"m 320 1077 q 312 1069 320 1077 q 282 1061 304 1061 q 244 1077 260 1061 q 228 1115 228 1093 q 244 1153 228 1138 q 282 1169 260 1169 q 320 1153 304 1169 q 336 1115 336 1138 q 320 1077 336 1093 m 581 1077 q 573 1069 581 1077 q 543 1061 565 1061 q 505 1077 521 1061 q 489 1115 489 1093 q 505 1153 489 1138 q 543 1169 521 1169 q 581 1153 565 1169 q 597 1115 597 1138 q 581 1077 597 1093 m 101 14 q 163 40 138 14 q 190 101 189 65 l 190 879 q 164 935 190 913 q 101 958 138 958 l 85 958 l 83 972 l 490 972 q 597 982 550 972 q 656 997 643 992 l 656 822 l 642 822 l 642 847 q 619 904 642 881 q 564 929 596 928 l 281 929 l 281 500 l 515 500 q 563 521 543 501 q 582 569 582 540 l 582 589 l 596 589 l 596 369 l 582 369 l 582 390 q 542 453 582 433 q 517 458 531 458 l 281 458 l 281 43 l 479 43 q 636 89 582 43 q 726 225 690 135 l 740 225 l 660 0 l 83 0 l 83 14 l 101 14 z "},"ì":{"ha":469,"x_min":11,"x_max":388,"o":"m 246 1071 l 236 1061 q 13 1179 124 1114 q 69 1253 32 1218 q 246 1071 157 1168 m 101 14 q 163 40 138 14 q 190 101 189 65 l 190 872 q 163 933 189 908 q 101 958 138 958 l 83 958 l 83 972 l 388 972 l 388 958 l 369 958 q 308 933 333 958 q 281 872 282 908 l 281 101 q 307 40 281 65 q 369 14 333 14 l 388 14 l 388 0 l 83 0 l 83 14 l 101 14 z "},"í":{"ha":469,"x_min":82,"x_max":460,"o":"m 236 1061 l 226 1071 q 401 1253 332 1185 q 458 1179 439 1215 q 236 1061 369 1128 m 101 14 q 163 40 138 14 q 190 101 189 65 l 190 872 q 163 933 189 908 q 101 958 138 958 l 83 958 l 83 972 l 388 972 l 388 958 l 369 958 q 308 933 333 958 q 281 872 282 908 l 281 101 q 307 40 281 65 q 369 14 333 14 l 388 14 l 388 0 l 83 0 l 83 14 l 101 14 z "},"î":{"ha":469,"x_min":81,"x_max":401,"o":"m 228 1236 l 242 1236 l 401 1071 l 393 1060 l 235 1151 l 89 1060 l 81 1071 l 228 1236 m 101 14 q 163 40 138 14 q 190 101 189 65 l 190 872 q 163 933 189 908 q 101 958 138 958 l 83 958 l 83 972 l 388 972 l 388 958 l 369 958 q 308 933 333 958 q 281 872 282 908 l 281 101 q 307 40 281 65 q 369 14 333 14 l 388 14 l 388 0 l 83 0 l 83 14 l 101 14 z "},"ï":{"ha":469,"x_min":50,"x_max":421,"o":"m 143 1077 q 135 1069 143 1077 q 105 1061 128 1061 q 66 1077 82 1061 q 50 1115 50 1093 q 66 1153 50 1138 q 105 1169 82 1169 q 143 1153 128 1169 q 158 1115 158 1138 q 143 1077 158 1093 m 405 1077 q 397 1069 405 1077 q 367 1061 389 1061 q 328 1077 344 1061 q 313 1115 313 1093 q 328 1153 313 1138 q 367 1169 344 1169 q 405 1153 389 1169 q 421 1115 421 1138 q 405 1077 421 1093 m 101 14 q 163 40 138 14 q 190 101 189 65 l 190 872 q 163 933 189 908 q 101 958 138 958 l 83 958 l 83 972 l 388 972 l 388 958 l 369 958 q 308 933 333 958 q 281 872 282 908 l 281 101 q 307 40 281 65 q 369 14 333 14 l 388 14 l 388 0 l 83 0 l 83 14 l 101 14 z "},"ð":{"ha":1135,"x_min":83,"x_max":1053,"o":"m 560 972 q 917 838 782 972 q 1053 485 1053 704 q 917 133 1053 267 q 560 0 782 0 l 90 0 l 90 14 l 108 14 q 170 40 144 14 q 197 101 196 65 l 197 465 l 83 465 l 83 507 l 197 507 l 197 879 q 170 935 197 913 q 108 958 143 958 l 90 958 l 90 972 l 560 972 m 288 465 l 288 42 l 560 42 q 847 164 738 42 q 956 486 956 286 q 847 808 956 686 q 560 931 738 931 l 288 931 l 288 507 l 514 507 l 514 465 l 288 465 z "},"ñ":{"ha":1168,"x_min":61,"x_max":1107,"o":"m 689 1124 q 767 1171 747 1124 l 781 1171 q 732 1074 772 1101 q 685 1061 713 1061 q 599 1092 657 1061 q 522 1122 542 1122 q 446 1065 469 1122 l 432 1065 q 464 1151 440 1119 q 522 1183 488 1183 q 611 1153 556 1183 q 689 1124 667 1124 m 1081 958 q 1021 934 1046 958 q 994 875 996 910 l 994 158 q 1004 6 994 78 l 1007 -19 l 994 -19 l 238 789 l 238 97 q 263 38 238 63 q 322 14 288 14 l 349 14 l 349 0 l 63 0 l 63 14 l 89 14 q 149 38 124 14 q 174 99 174 63 l 174 819 q 164 971 174 904 l 161 993 l 175 993 l 932 185 l 932 874 q 906 934 931 910 q 846 958 881 958 l 819 958 l 819 972 l 1106 972 l 1106 958 l 1081 958 z "},"ò":{"ha":1178,"x_min":54,"x_max":1124,"o":"m 600 1071 l 590 1061 q 368 1179 479 1114 q 424 1253 388 1218 q 600 1071 513 1168 m 204 852 q 278 922 204 852 q 590 992 353 992 q 975 852 826 992 q 1124 486 1124 713 q 975 120 1124 260 q 590 -19 826 -19 q 204 120 353 -19 q 56 486 56 260 q 204 852 56 713 m 280 150 q 339 86 280 150 q 589 22 397 22 q 898 150 781 22 q 1015 486 1015 278 q 898 822 1015 694 q 589 950 781 950 q 280 822 397 950 q 163 486 163 694 q 280 150 163 278 z "},"ó":{"ha":1178,"x_min":54,"x_max":1124,"o":"m 590 1061 l 581 1071 q 757 1253 688 1185 q 814 1179 794 1215 q 590 1061 725 1128 m 204 852 q 278 922 204 852 q 590 992 353 992 q 975 852 826 992 q 1124 486 1124 713 q 1056 221 1124 336 q 867 43 989 106 q 589 -19 746 -19 q 204 120 353 -19 q 56 486 56 260 q 204 852 56 713 m 280 150 q 339 86 280 150 q 589 22 397 22 q 898 150 781 22 q 1015 486 1015 278 q 898 822 1015 694 q 589 950 781 950 q 280 822 397 950 q 163 486 163 694 q 280 150 163 278 z "},"ô":{"ha":1178,"x_min":56,"x_max":1124,"o":"m 583 1236 l 597 1236 l 756 1071 l 747 1060 l 590 1151 l 444 1060 l 436 1071 l 583 1236 m 204 852 q 278 922 204 852 q 590 992 353 992 q 975 852 826 992 q 1124 486 1124 713 q 975 120 1124 260 q 590 -19 826 -19 q 204 120 353 -19 q 56 486 56 260 q 204 852 56 713 m 280 150 q 339 86 280 150 q 589 22 397 22 q 898 150 781 22 q 1015 486 1015 278 q 898 822 1015 694 q 589 950 781 950 q 280 822 397 950 q 163 486 163 694 q 280 150 163 278 z "},"õ":{"ha":1178,"x_min":54,"x_max":1124,"o":"m 689 1124 q 765 1171 746 1124 l 779 1171 q 732 1074 771 1101 q 685 1061 713 1061 q 599 1092 657 1061 q 521 1122 542 1122 q 446 1065 468 1122 l 432 1065 q 464 1151 440 1119 q 521 1183 488 1183 q 610 1153 554 1183 q 689 1124 667 1124 m 204 852 q 278 922 204 852 q 590 992 353 992 q 975 852 826 992 q 1124 486 1124 713 q 975 120 1124 260 q 590 -19 826 -19 q 204 120 353 -19 q 56 486 56 260 q 204 852 56 713 m 280 150 q 339 86 280 150 q 589 22 397 22 q 898 150 781 22 q 1015 486 1015 278 q 898 822 1015 694 q 589 950 781 950 q 280 822 397 950 q 163 486 163 694 q 280 150 163 278 z "},"ö":{"ha":1178,"x_min":54,"x_max":1124,"o":"m 498 1077 q 490 1069 498 1077 q 460 1061 482 1061 q 422 1077 438 1061 q 406 1115 406 1093 q 422 1153 406 1138 q 460 1169 438 1169 q 498 1153 482 1169 q 514 1115 514 1138 q 498 1077 514 1093 m 760 1077 q 752 1069 760 1077 q 722 1061 744 1061 q 683 1077 699 1061 q 668 1115 668 1093 q 683 1153 668 1138 q 722 1169 699 1169 q 760 1153 744 1169 q 776 1115 776 1138 q 760 1077 776 1093 m 204 852 q 278 922 204 852 q 590 992 353 992 q 975 852 826 992 q 1124 486 1124 713 q 1056 221 1124 336 q 867 43 989 106 q 589 -19 746 -19 q 204 120 353 -19 q 56 486 56 260 q 204 852 56 713 m 280 150 q 339 86 280 150 q 589 22 397 22 q 898 150 781 22 q 1015 486 1015 278 q 898 822 1015 694 q 589 950 781 950 q 280 822 397 950 q 163 486 163 694 q 280 150 163 278 z "},"÷":{"ha":668,"x_min":56,"x_max":614,"o":"m 369 616 q 361 609 369 616 q 334 601 354 601 q 299 616 314 601 q 285 651 285 631 q 299 685 285 671 q 334 699 314 699 q 369 685 354 699 q 383 651 383 671 q 369 616 383 631 m 56 399 l 56 461 l 614 461 l 614 399 l 56 399 m 369 177 q 361 170 369 177 q 334 163 354 163 q 299 177 314 163 q 285 212 285 192 q 299 246 285 232 q 334 260 314 260 q 369 246 354 260 q 383 212 383 232 q 369 177 383 192 z "},"ø":{"ha":1178,"x_min":54,"x_max":1124,"o":"m 935 886 q 1124 475 1124 744 q 1056 221 1124 336 q 867 43 989 106 q 589 -19 746 -19 q 260 75 397 -19 l 171 -32 l 136 -1 l 222 103 q 99 269 143 171 q 56 486 56 367 q 204 852 56 713 q 589 992 353 992 q 896 913 765 992 l 971 1003 l 1007 972 l 935 886 m 589 950 q 280 822 397 950 q 163 491 163 694 q 271 161 163 288 l 856 863 q 589 950 746 950 m 303 126 q 599 22 417 22 q 898 150 781 22 q 1015 490 1015 278 q 890 832 1015 703 l 303 126 z "},"ù":{"ha":1090,"x_min":68,"x_max":1022,"o":"m 568 1071 l 558 1061 q 335 1179 446 1114 q 392 1253 354 1218 q 568 1071 479 1168 m 1021 958 l 999 958 q 948 940 969 958 q 925 893 926 921 l 925 343 q 822 81 925 181 q 549 -19 719 -19 q 272 80 378 -19 q 165 342 165 179 l 165 889 q 129 950 165 931 q 92 958 113 958 l 69 958 l 69 972 l 351 972 l 351 958 l 329 958 q 278 940 299 958 q 256 892 257 921 l 256 361 q 337 117 256 210 q 554 24 418 24 q 775 112 690 24 q 860 343 860 200 l 860 892 q 838 940 858 921 q 786 958 817 958 l 764 958 l 764 972 l 1021 972 l 1021 958 z "},"ú":{"ha":1090,"x_min":69,"x_max":1022,"o":"m 558 1061 l 549 1071 q 725 1253 654 1185 q 781 1179 761 1215 q 558 1061 692 1128 m 1021 958 l 999 958 q 948 940 969 958 q 925 893 926 921 l 925 343 q 822 81 925 181 q 549 -19 719 -19 q 272 80 378 -19 q 165 342 165 179 l 165 890 q 144 939 165 919 q 92 958 122 958 l 69 958 l 69 972 l 351 972 l 351 958 l 329 958 q 267 926 288 958 q 256 892 257 911 l 256 361 q 337 117 256 210 q 550 24 418 24 q 775 112 690 24 q 860 343 860 200 l 860 892 q 815 953 858 938 q 786 958 801 958 l 764 958 l 764 972 l 1021 972 l 1021 958 z "},"û":{"ha":1090,"x_min":69,"x_max":1022,"o":"m 550 1236 l 564 1236 l 724 1071 l 715 1060 l 557 1151 l 411 1060 l 403 1071 l 550 1236 m 1021 958 l 999 958 q 948 940 969 958 q 925 893 926 921 l 925 343 q 822 81 925 181 q 549 -19 719 -19 q 272 80 378 -19 q 165 342 165 179 l 165 889 q 144 939 165 919 q 92 958 122 958 l 69 958 l 69 972 l 351 972 l 351 958 l 329 958 q 278 940 299 958 q 256 892 257 921 l 256 361 q 337 117 256 210 q 554 24 418 24 q 775 112 690 24 q 860 343 860 200 l 860 892 q 815 953 858 938 q 786 958 801 958 l 764 958 l 764 972 l 1021 972 l 1021 958 z "},"ü":{"ha":1090,"x_min":69,"x_max":1022,"o":"m 466 1077 q 458 1069 466 1077 q 427 1061 450 1061 q 388 1077 404 1061 q 372 1115 372 1093 q 388 1153 372 1138 q 427 1169 404 1169 q 466 1153 450 1169 q 482 1115 482 1138 q 466 1077 482 1093 m 727 1077 q 719 1069 727 1077 q 689 1061 711 1061 q 651 1077 667 1061 q 635 1115 635 1093 q 651 1153 635 1138 q 689 1169 667 1169 q 727 1153 711 1169 q 743 1115 743 1138 q 727 1077 743 1093 m 1021 958 l 999 958 q 948 940 969 958 q 925 893 926 921 l 925 343 q 822 81 925 181 q 549 -19 719 -19 q 272 80 378 -19 q 165 342 165 179 l 165 889 q 129 950 165 931 q 92 958 113 958 l 69 958 l 69 972 l 351 972 l 351 958 l 329 958 q 267 926 288 958 q 256 892 257 911 l 256 361 q 337 117 256 210 q 550 24 418 24 q 775 112 690 24 q 860 343 860 200 l 860 892 q 815 953 858 938 q 786 958 801 958 l 764 958 l 764 972 l 1021 972 l 1021 958 z "},"ý":{"ha":918,"x_min":-14,"x_max":933,"o":"m 476 1061 l 467 1071 q 643 1253 574 1185 q 700 1179 681 1215 q 476 1061 611 1128 m 933 958 l 914 958 q 835 935 872 958 q 774 878 799 913 l 500 433 l 500 101 q 526 40 500 65 q 589 14 551 14 l 606 14 l 606 0 l 303 0 l 303 14 l 321 14 q 383 39 357 14 q 410 100 408 64 l 410 435 l 144 878 q 85 935 124 911 q 6 958 47 958 l -14 958 l -14 972 l 328 972 l 328 958 l 310 958 q 263 931 279 958 q 254 901 254 915 q 261 872 254 886 l 469 483 l 692 874 q 699 901 699 888 q 689 931 699 915 q 642 958 672 958 l 625 958 l 625 972 l 933 972 l 933 958 z "},"þ":{"ha":769,"x_min":58,"x_max":701,"o":"m 683 604 q 701 492 701 554 q 676 379 701 431 q 519 242 632 281 q 451 228 479 228 q 304 260 365 228 l 304 274 q 492 296 404 251 q 594 424 567 333 q 604 476 604 451 q 604 507 604 500 q 553 662 601 604 q 417 719 504 719 l 257 719 l 257 101 q 301 25 257 50 q 346 14 321 14 l 363 14 l 363 0 l 60 0 l 60 14 l 76 14 q 140 40 114 14 q 167 101 165 65 l 167 872 q 140 933 165 908 q 78 958 114 958 l 60 958 l 60 972 l 363 972 l 363 958 l 346 958 q 283 933 310 958 q 257 872 257 908 l 257 761 l 422 761 q 683 604 626 761 z "},"ÿ":{"ha":918,"x_min":-14,"x_max":933,"o":"m 384 1077 q 376 1069 384 1077 q 346 1061 368 1061 q 308 1077 324 1061 q 292 1115 292 1093 q 308 1153 292 1138 q 346 1169 324 1169 q 384 1153 368 1169 q 400 1115 400 1138 q 384 1077 400 1093 m 647 1077 q 639 1069 647 1077 q 608 1061 631 1061 q 569 1077 585 1061 q 554 1115 554 1093 q 569 1153 554 1138 q 608 1169 585 1169 q 647 1153 631 1169 q 663 1115 663 1138 q 647 1077 663 1093 m 933 958 l 914 958 q 835 935 872 958 q 774 878 799 913 l 500 433 l 500 101 q 526 40 500 65 q 589 14 551 14 l 606 14 l 606 0 l 303 0 l 303 14 l 321 14 q 383 39 357 14 q 410 100 408 64 l 410 435 l 144 878 q 85 935 124 911 q 6 958 47 958 l -14 958 l -14 972 l 328 972 l 328 958 l 310 958 q 263 931 279 958 q 254 901 254 915 q 261 872 254 886 l 469 483 l 692 874 q 699 901 699 888 q 689 931 699 915 q 642 958 672 958 l 625 958 l 625 972 l 933 972 l 933 958 z "},"Ā":{"ha":989,"x_min":-14,"x_max":1314,"o":"m 339 1118 l 339 1167 l 686 1167 l 686 1118 l 339 1118 m 164 1019 q 338 1057 254 1057 q 481 1006 407 1057 q 571 897 521 978 q 656 696 604 842 l 825 215 q 944 -41 883 54 q 1054 -184 1004 -136 q 1158 -251 1104 -232 q 1248 -271 1213 -271 q 1311 -265 1283 -271 l 1313 -279 q 1182 -301 1246 -301 q 1054 -269 1118 -301 q 935 -178 990 -236 q 732 190 815 -57 l 678 349 l 297 349 l 201 101 q 194 68 194 85 q 209 33 194 51 q 254 14 224 14 l 265 14 l 265 0 l -14 0 l -14 14 l -1 14 q 64 34 32 14 q 117 94 96 54 l 461 919 q 275 1026 386 1026 q 168 1006 225 1026 l 164 1019 m 313 390 l 664 390 l 554 714 q 496 860 522 807 l 313 390 z "},"ā":{"ha":989,"x_min":-15,"x_max":1004,"o":"m 325 1104 l 325 1153 l 672 1153 l 672 1104 l 325 1104 m 993 14 l 1004 14 l 1004 0 l 692 0 l 692 14 l 704 14 q 748 33 733 14 q 763 68 763 51 q 757 101 763 85 l 668 338 l 293 338 l 200 100 q 194 67 194 83 q 209 33 194 51 q 253 14 224 14 l 265 14 l 265 0 l -14 0 l -14 14 l -1 14 q 67 36 33 14 q 121 101 100 58 l 435 849 q 486 992 486 961 l 499 992 l 871 101 q 924 36 890 58 q 993 14 957 14 m 310 379 l 651 379 l 485 825 l 310 379 z "},"Ă":{"ha":989,"x_min":-14,"x_max":1314,"o":"m 653 1219 q 633 1147 653 1181 q 581 1094 614 1114 q 499 1075 547 1075 q 409 1118 451 1075 q 367 1219 367 1161 l 381 1219 q 428 1167 392 1189 q 502 1144 464 1144 q 568 1156 540 1144 q 639 1219 624 1178 l 653 1219 m 164 1019 q 338 1057 254 1057 q 481 1006 407 1057 q 571 897 521 978 q 656 696 604 842 l 825 215 q 944 -41 883 54 q 1054 -184 1004 -136 q 1158 -251 1104 -232 q 1248 -271 1213 -271 q 1311 -265 1283 -271 l 1313 -279 q 1182 -301 1246 -301 q 1054 -269 1118 -301 q 935 -178 990 -236 q 732 190 815 -57 l 678 349 l 297 349 l 200 101 q 194 68 194 85 q 209 33 194 51 q 253 14 224 14 l 265 14 l 265 0 l -14 0 l -14 14 l -1 14 q 64 34 32 14 q 117 94 96 54 l 461 919 q 275 1026 386 1026 q 168 1006 225 1026 l 164 1019 m 313 390 l 664 390 l 554 714 q 496 860 522 807 l 313 390 z "},"ă":{"ha":989,"x_min":-15,"x_max":1004,"o":"m 638 1206 q 618 1133 638 1167 q 566 1081 599 1100 q 485 1061 533 1061 q 394 1104 436 1061 q 351 1206 351 1147 l 365 1206 q 413 1153 376 1175 q 494 1131 449 1131 q 576 1153 540 1131 q 624 1206 613 1175 l 638 1206 m 993 14 l 1004 14 l 1004 0 l 692 0 l 692 14 l 704 14 q 748 33 733 14 q 763 68 763 51 q 757 101 763 85 l 668 338 l 293 338 l 200 100 q 194 67 194 83 q 209 33 194 51 q 253 14 224 14 l 265 14 l 265 0 l -14 0 l -14 14 l -1 14 q 67 36 33 14 q 121 101 100 58 l 435 849 q 486 992 486 961 l 499 992 l 871 101 q 924 36 890 58 q 993 14 957 14 m 310 379 l 651 379 l 485 825 l 310 379 z "},"Ą":{"ha":1010,"x_min":-15,"x_max":1293,"o":"m 143 1000 q 275 1021 217 1021 q 373 1011 333 1021 q 451 974 413 1001 q 515 919 490 947 q 567 849 540 892 q 640 693 603 786 l 832 219 q 1046 -122 932 -28 q 1279 -204 1146 -204 q 1292 -204 1286 -204 l 1293 -218 q 1210 -228 1242 -228 q 1142 -226 1179 -228 q 1049 -207 1104 -224 q 836 -15 932 -169 q 754 -82 774 -24 q 749 -115 749 -97 q 760 -156 749 -133 q 840 -207 786 -207 q 893 -194 865 -207 l 899 -206 q 806 -247 863 -247 q 725 -219 760 -247 q 681 -129 681 -183 q 692 -69 681 -104 q 738 -15 703 -35 q 814 4 774 4 q 825 4 819 4 q 739 190 779 82 l 679 349 l 297 349 l 200 101 q 194 68 194 85 q 209 33 194 51 q 253 14 224 14 l 265 14 l 265 0 l -14 0 l -14 14 l -1 14 q 64 34 32 14 q 117 94 96 54 l 447 886 q 219 992 358 992 q 147 986 185 992 l 143 1000 m 313 390 l 664 390 l 543 708 q 485 832 515 782 l 313 390 z "},"ą":{"ha":1024,"x_min":-15,"x_max":1040,"o":"m 935 -157 l 943 -165 q 903 -219 932 -199 q 853 -242 874 -240 q 815 -244 832 -244 q 770 -235 799 -244 q 720 -194 742 -226 q 698 -131 699 -162 q 703 -83 697 -99 q 719 -53 710 -67 q 768 -11 739 -26 q 804 38 804 10 q 793 99 804 67 l 697 338 l 299 338 l 200 100 q 194 67 194 83 q 209 33 194 51 q 253 14 224 14 l 265 14 l 265 0 l -14 0 l -14 14 l -1 14 q 67 36 33 14 q 121 101 100 58 l 454 849 q 506 992 506 961 l 518 992 l 911 94 q 1001 15 940 31 q 1026 13 1014 13 l 1039 13 l 1039 0 q 942 3 976 0 q 848 0 888 7 q 786 -35 808 -7 q 764 -96 764 -64 q 781 -151 764 -128 q 857 -190 811 -190 q 935 -157 903 -190 m 317 379 l 681 379 l 503 828 l 317 379 z "},"Ć":{"ha":1140,"x_min":61,"x_max":1107,"o":"m 614 1061 l 604 1071 q 781 1253 710 1185 q 838 1179 818 1215 q 614 1061 749 1128 m 1107 488 q 978 115 1107 249 q 615 -19 850 -19 q 330 47 457 -19 q 133 229 203 114 q 63 487 63 344 q 132 744 63 629 q 324 926 201 860 q 596 992 446 992 q 788 966 690 992 q 951 899 886 940 l 979 701 l 967 701 q 832 884 938 818 q 597 950 726 950 q 290 819 413 950 q 167 490 167 688 q 223 253 167 360 q 384 85 279 147 q 622 22 489 22 q 962 156 832 22 q 1092 521 1092 289 l 1106 521 q 1107 488 1107 504 z "},"ć":{"ha":1056,"x_min":83,"x_max":988,"o":"m 589 1061 l 579 1071 q 756 1253 685 1185 q 813 1179 793 1215 q 589 1061 724 1128 m 579 -19 q 222 121 360 -18 q 83 487 83 260 q 222 853 83 714 q 588 992 360 992 q 917 897 774 992 l 944 701 l 932 701 q 808 885 901 821 q 588 950 715 950 q 297 824 406 950 q 188 489 188 697 q 295 153 188 281 q 579 22 403 26 q 839 107 735 22 q 975 406 951 199 l 986 406 l 969 188 q 579 -19 843 -19 z "},"Ċ":{"ha":1140,"x_min":61,"x_max":1107,"o":"m 655 1080 q 646 1071 655 1080 q 613 1063 638 1063 q 570 1080 588 1063 q 553 1122 553 1097 q 570 1165 553 1147 q 613 1182 588 1182 q 655 1165 638 1182 q 672 1122 672 1147 q 655 1080 672 1097 m 1107 488 q 978 115 1107 249 q 615 -19 850 -19 q 330 47 457 -19 q 133 229 203 114 q 63 487 63 344 q 132 744 63 629 q 324 926 201 860 q 596 992 446 992 q 788 966 690 992 q 951 897 886 940 l 979 701 l 967 701 q 832 884 938 818 q 597 950 726 950 q 290 819 413 950 q 167 489 167 688 q 294 156 167 290 q 626 22 421 22 q 962 156 832 22 q 1092 521 1092 289 l 1106 521 q 1107 488 1107 504 z "},"ċ":{"ha":1056,"x_min":83,"x_max":988,"o":"m 630 1080 q 621 1071 630 1080 q 588 1063 613 1063 q 545 1080 563 1063 q 528 1122 528 1097 q 545 1165 528 1147 q 588 1182 563 1182 q 630 1165 613 1182 q 647 1122 647 1147 q 630 1080 647 1097 m 579 -19 q 222 121 360 -18 q 83 487 83 260 q 222 853 83 714 q 588 992 360 992 q 917 897 774 992 l 944 701 l 932 701 q 808 885 901 821 q 588 950 715 950 q 297 824 406 950 q 188 489 188 697 q 295 153 188 281 q 579 22 403 26 q 839 107 735 22 q 975 406 951 199 l 986 406 l 969 188 q 579 -19 843 -19 z "},"Č":{"ha":1140,"x_min":61,"x_max":1107,"o":"m 621 1061 l 607 1061 l 449 1226 l 457 1238 l 615 1146 l 760 1238 l 768 1226 l 621 1061 m 1107 488 q 978 115 1107 249 q 615 -19 850 -19 q 330 47 457 -19 q 133 229 203 114 q 63 487 63 344 q 132 744 63 629 q 324 926 201 860 q 596 992 446 992 q 788 966 690 992 q 950 897 886 940 l 979 701 l 967 701 q 832 884 938 818 q 597 950 726 950 q 290 819 413 950 q 167 489 167 688 q 293 156 167 290 q 626 22 419 22 q 962 156 832 22 q 1092 521 1092 289 l 1106 521 q 1107 488 1107 504 z "},"č":{"ha":1056,"x_min":82,"x_max":988,"o":"m 596 1061 l 582 1061 l 424 1226 l 432 1238 l 590 1146 l 735 1238 l 743 1226 l 596 1061 m 579 -19 q 222 121 360 -18 q 83 487 83 260 q 222 853 83 714 q 588 992 360 992 q 917 897 774 992 l 944 701 l 932 701 q 808 885 901 821 q 588 950 715 950 q 297 824 406 950 q 188 489 188 697 q 295 153 188 281 q 579 22 403 26 q 839 107 735 22 q 975 406 951 199 l 986 406 l 969 188 q 579 -19 843 -19 z "},"Ď":{"ha":1164,"x_min":-140,"x_max":1082,"o":"m 590 1061 l 576 1061 l 418 1226 l 426 1238 l 585 1146 l 729 1238 l 738 1226 l 590 1061 m -139 769 q -4 932 -99 888 q 331 976 90 976 q 583 972 381 976 q 943 836 807 967 q 1045 684 1008 774 q 1082 486 1082 594 q 944 134 1082 268 q 583 0 806 0 l 113 0 l 114 14 l 131 14 q 190 37 165 14 q 219 93 215 60 l 219 931 q -53 857 25 925 q -93 814 -79 833 q -124 764 -107 794 l -139 769 m 310 931 l 310 42 l 583 42 q 869 164 760 42 q 978 486 978 286 q 928 719 978 618 q 790 875 879 819 q 583 931 700 931 l 310 931 z "},"ď":{"ha":1121,"x_min":82,"x_max":1053,"o":"m 564 1061 l 550 1061 l 392 1226 l 400 1238 l 558 1146 l 704 1238 l 713 1226 l 564 1061 m 554 972 q 915 838 776 972 q 1053 486 1053 704 q 915 134 1053 268 q 554 0 776 0 l 83 0 l 83 14 l 101 14 q 163 40 138 14 q 190 101 189 65 l 190 879 q 163 935 190 913 q 101 958 136 958 l 85 958 l 83 972 l 554 972 m 281 931 l 281 42 l 554 42 q 840 164 732 42 q 949 486 949 286 q 840 808 949 686 q 554 931 731 931 l 281 931 z "},"Đ":{"ha":1164,"x_min":-139,"x_max":1082,"o":"m 414 1104 l 414 1153 l 761 1153 l 761 1104 l 414 1104 m -1 933 q 25 944 -1 933 q 114 965 51 956 q 229 976 176 975 q 331 976 282 976 q 583 972 381 976 q 843 908 731 968 q 1019 739 956 849 q 1082 486 1082 629 q 944 134 1082 268 q 583 0 806 0 l 113 0 l 114 14 l 131 14 q 190 37 165 14 q 219 93 215 60 l 219 931 q -26 876 46 926 q -83 826 -64 850 q -124 764 -103 801 l -139 769 q -85 871 -118 831 q -1 933 -53 911 m 310 931 l 310 42 l 583 42 q 869 164 760 42 q 978 486 978 286 q 928 719 978 618 q 790 875 879 819 q 583 931 700 931 l 310 931 z "},"đ":{"ha":1121,"x_min":82,"x_max":1053,"o":"m 388 1104 l 388 1153 l 735 1153 l 735 1104 l 388 1104 m 554 972 q 915 838 776 972 q 1053 486 1053 704 q 915 134 1053 268 q 554 0 776 0 l 83 0 l 83 14 l 101 14 q 163 40 138 14 q 190 101 189 65 l 190 879 q 163 935 190 913 q 101 958 136 958 l 85 958 l 83 972 l 554 972 m 281 931 l 281 42 l 554 42 q 840 164 732 42 q 949 486 949 286 q 840 808 949 686 q 554 931 731 931 l 281 931 z "},"Ē":{"ha":843,"x_min":83,"x_max":838,"o":"m 175 1104 l 175 1153 l 522 1153 l 522 1104 l 175 1104 m 101 14 q 163 40 138 14 q 190 101 189 65 l 190 879 q 164 935 190 913 q 101 958 138 958 l 85 958 l 83 972 l 365 972 q 459 981 408 972 q 531 997 510 989 l 531 822 l 517 822 l 517 847 q 494 904 517 881 q 439 929 471 928 l 281 929 l 281 500 l 544 500 q 592 521 572 501 q 611 569 611 540 l 611 589 l 625 589 l 625 369 l 611 369 l 611 390 q 592 438 611 418 q 546 458 574 457 l 281 458 l 281 43 l 576 43 q 733 89 679 43 q 824 225 788 135 l 838 225 l 757 0 l 83 0 l 83 14 l 101 14 z "},"ē":{"ha":801,"x_min":83,"x_max":740,"o":"m 243 1104 l 243 1153 l 590 1153 l 590 1104 l 243 1104 m 101 14 q 163 40 138 14 q 190 101 189 65 l 190 879 q 164 935 190 913 q 101 958 138 958 l 85 958 l 83 972 l 490 972 q 584 981 533 972 q 656 997 635 989 l 656 822 l 642 822 l 642 847 q 619 904 642 881 q 564 929 596 928 l 281 929 l 281 500 l 515 500 q 563 521 543 501 q 582 569 582 540 l 582 589 l 596 589 l 596 369 l 582 369 l 582 390 q 563 438 582 418 q 517 458 544 457 l 281 458 l 281 43 l 479 43 q 636 89 582 43 q 726 225 690 135 l 740 225 l 660 0 l 83 0 l 83 14 l 101 14 z "},"Ė":{"ha":843,"x_min":83,"x_max":838,"o":"m 385 1080 q 377 1071 385 1080 q 343 1063 368 1063 q 301 1080 318 1063 q 283 1122 283 1097 q 301 1165 283 1147 q 343 1182 318 1182 q 385 1165 368 1182 q 403 1122 403 1147 q 385 1080 403 1097 m 101 14 q 163 40 138 14 q 190 101 189 65 l 190 879 q 164 935 190 913 q 101 958 138 958 l 85 958 l 83 972 l 365 972 q 459 981 408 972 q 531 997 510 989 l 531 822 l 517 822 l 517 847 q 494 904 517 881 q 439 929 471 928 l 281 929 l 281 500 l 544 500 q 592 521 572 501 q 611 569 611 540 l 611 589 l 625 589 l 625 369 l 611 369 l 611 390 q 592 438 611 418 q 546 458 574 457 l 281 458 l 281 43 l 576 43 q 733 89 679 43 q 824 225 788 135 l 838 225 l 757 0 l 83 0 l 83 14 l 101 14 z "},"ė":{"ha":801,"x_min":83,"x_max":740,"o":"m 453 1080 q 444 1071 453 1080 q 410 1063 435 1063 q 368 1080 386 1063 q 350 1122 350 1097 q 368 1165 350 1147 q 410 1182 386 1182 q 453 1165 435 1182 q 471 1122 471 1147 q 453 1080 471 1097 m 101 14 q 163 40 138 14 q 190 101 189 65 l 190 879 q 164 935 190 913 q 101 958 138 958 l 85 958 l 83 972 l 490 972 q 597 982 550 972 q 656 997 643 992 l 656 822 l 642 822 l 642 847 q 619 904 642 881 q 564 929 596 928 l 281 929 l 281 500 l 515 500 q 563 521 543 501 q 582 569 582 540 l 582 589 l 596 589 l 596 369 l 582 369 l 582 390 q 563 438 582 418 q 517 458 544 457 l 281 458 l 281 43 l 479 43 q 636 89 582 43 q 726 225 690 135 l 740 225 l 660 0 l 83 0 l 83 14 l 101 14 z "},"Ę":{"ha":843,"x_min":83,"x_max":838,"o":"m 653 -104 q 681 -174 653 -146 q 749 -201 710 -201 q 822 -167 789 -201 l 831 -175 q 790 -229 818 -208 q 723 -253 757 -253 q 660 -243 689 -253 q 610 -201 632 -233 q 589 -124 589 -169 q 621 -44 589 -78 q 703 0 653 -11 l 83 0 l 83 14 l 101 14 q 163 40 138 14 q 190 101 189 65 l 190 879 q 164 935 190 913 q 101 958 138 958 l 85 958 l 83 972 l 365 972 q 459 981 408 972 q 531 997 510 989 l 531 822 l 517 822 l 517 847 q 494 904 517 881 q 439 929 471 928 l 281 929 l 281 500 l 544 500 q 592 521 572 501 q 611 569 611 540 l 611 589 l 625 589 l 625 369 l 611 369 l 611 390 q 592 438 611 418 q 546 458 574 457 l 281 458 l 281 43 l 576 43 q 733 89 679 43 q 824 225 788 135 l 838 225 l 757 0 q 653 -104 653 -25 z "},"ę":{"ha":801,"x_min":83,"x_max":740,"o":"m 556 -104 q 583 -174 556 -146 q 651 -201 611 -201 q 725 -167 692 -201 l 733 -175 q 692 -229 721 -208 q 626 -253 660 -253 q 563 -243 592 -253 q 513 -201 535 -233 q 492 -124 492 -169 q 524 -44 492 -78 q 606 0 556 -11 l 83 0 l 83 14 l 101 14 q 163 40 138 14 q 190 101 189 65 l 190 879 q 164 935 190 913 q 101 958 138 958 l 85 958 l 83 972 l 490 972 q 584 981 533 972 q 656 997 635 989 l 656 822 l 642 822 l 642 847 q 619 904 642 881 q 564 929 596 928 l 281 929 l 281 500 l 515 500 q 563 521 543 501 q 582 569 582 540 l 582 589 l 596 589 l 596 369 l 582 369 l 582 390 q 563 438 582 418 q 517 458 544 457 l 281 458 l 281 43 l 479 43 q 636 89 582 43 q 726 225 690 135 l 740 225 l 658 0 q 556 -104 556 -25 z "},"Ě":{"ha":843,"x_min":83,"x_max":838,"o":"m 351 1061 l 338 1061 l 179 1226 l 188 1238 l 346 1146 l 490 1238 l 499 1226 l 351 1061 m 101 14 q 163 40 138 14 q 190 101 189 65 l 190 879 q 164 935 190 913 q 101 958 138 958 l 85 958 l 83 972 l 365 972 q 459 981 408 972 q 531 997 510 989 l 531 822 l 517 822 l 517 847 q 494 904 517 881 q 439 929 471 928 l 281 929 l 281 500 l 544 500 q 592 521 572 501 q 611 569 611 540 l 611 589 l 625 589 l 625 369 l 611 369 l 611 390 q 592 438 611 418 q 546 458 574 457 l 281 458 l 281 43 l 576 43 q 733 89 679 43 q 824 225 788 135 l 838 225 l 757 0 l 83 0 l 83 14 l 101 14 z "},"ě":{"ha":801,"x_min":83,"x_max":740,"o":"m 419 1061 l 406 1061 l 247 1226 l 256 1238 l 413 1146 l 558 1238 l 567 1226 l 419 1061 m 101 14 q 163 40 138 14 q 190 101 189 65 l 190 879 q 164 935 190 913 q 101 958 138 958 l 85 958 l 83 972 l 490 972 q 584 981 533 972 q 656 997 635 989 l 656 822 l 642 822 l 642 847 q 619 904 642 881 q 564 929 596 928 l 281 929 l 281 500 l 515 500 q 563 521 543 501 q 582 569 582 540 l 582 589 l 596 589 l 596 369 l 582 369 l 582 390 q 542 453 582 433 q 517 458 531 458 l 281 458 l 281 43 l 479 43 q 636 89 582 43 q 726 225 690 135 l 740 225 l 660 0 l 83 0 l 83 14 l 101 14 z "},"Ğ":{"ha":1175,"x_min":82,"x_max":1551,"o":"m 768 1206 q 749 1133 768 1167 q 696 1081 729 1100 q 615 1061 663 1061 q 524 1104 567 1061 q 482 1206 482 1147 l 496 1206 q 542 1153 507 1175 q 624 1131 578 1131 q 707 1153 671 1131 q 754 1206 743 1175 l 768 1206 m 1346 -242 q 1057 -129 1169 -242 q 947 81 974 -46 q 624 -19 815 -19 q 348 47 472 -19 q 153 228 224 113 q 83 488 83 343 q 153 748 83 632 q 347 928 224 864 q 624 992 471 992 q 961 897 815 992 l 989 701 l 976 701 q 853 885 946 821 q 624 950 761 950 q 312 819 436 950 q 188 488 188 689 q 312 156 188 288 q 624 22 436 24 q 849 78 744 22 q 936 143 897 106 l 936 389 q 918 435 936 419 q 867 451 900 451 l 844 451 l 844 465 l 1117 465 l 1117 451 l 1096 451 q 1043 435 1061 451 q 1026 389 1025 419 l 1026 175 q 1169 -139 1035 -44 q 1414 -206 1264 -206 q 1550 -193 1476 -206 l 1551 -207 q 1346 -242 1440 -242 z "},"ğ":{"ha":1108,"x_min":82,"x_max":1075,"o":"m 721 1206 q 701 1133 721 1167 q 649 1081 682 1100 q 568 1061 617 1061 q 477 1104 519 1061 q 435 1206 435 1147 l 449 1206 q 496 1153 460 1175 q 578 1131 532 1131 q 660 1153 625 1131 q 707 1206 696 1175 l 721 1206 m 582 -19 q 222 121 360 -18 q 83 486 83 260 q 222 852 83 713 q 582 992 360 992 q 919 897 774 992 l 947 701 l 935 701 q 812 885 904 821 q 582 950 719 950 q 297 822 406 950 q 188 486 188 694 q 297 151 188 278 q 582 22 406 24 q 753 54 672 22 q 896 143 835 86 l 896 389 q 877 435 896 419 q 825 451 858 451 l 803 451 l 803 465 l 1075 465 l 1075 451 l 1054 451 q 1001 435 1019 451 q 985 389 983 419 l 985 160 q 826 33 928 85 q 582 -19 725 -19 z "},"Ġ":{"ha":1175,"x_min":83,"x_max":1551,"o":"m 665 1080 q 656 1071 665 1080 q 622 1063 647 1063 q 580 1080 597 1063 q 563 1122 563 1097 q 580 1165 563 1147 q 622 1182 597 1182 q 665 1165 647 1182 q 682 1122 682 1147 q 665 1080 682 1097 m 1346 -242 q 1057 -129 1169 -242 q 947 81 974 -46 q 624 -19 815 -19 q 348 47 472 -19 q 153 228 224 113 q 83 488 83 343 q 153 748 83 632 q 347 928 224 864 q 624 992 471 992 q 961 897 815 992 l 989 701 l 976 701 q 788 921 935 863 q 624 950 715 950 q 312 819 436 950 q 188 488 188 689 q 313 156 188 288 q 624 22 438 24 q 796 54 714 22 q 936 143 878 86 l 936 389 q 918 435 936 419 q 867 451 900 451 l 844 451 l 844 465 l 1117 465 l 1117 451 l 1096 451 q 1043 435 1061 451 q 1026 389 1025 419 l 1026 175 q 1169 -139 1035 -44 q 1414 -206 1264 -206 q 1550 -193 1476 -206 l 1551 -207 q 1346 -242 1440 -242 z "},"ġ":{"ha":1108,"x_min":83,"x_max":1075,"o":"m 619 1080 q 610 1071 619 1080 q 576 1063 601 1063 q 534 1080 551 1063 q 517 1122 517 1097 q 534 1165 517 1147 q 576 1182 551 1182 q 619 1165 601 1182 q 636 1122 636 1147 q 619 1080 636 1097 m 582 -19 q 222 121 360 -18 q 83 486 83 260 q 222 852 83 713 q 582 992 360 992 q 919 897 774 992 l 947 701 l 935 701 q 812 885 904 821 q 582 950 719 950 q 297 822 406 950 q 188 486 188 694 q 297 151 188 278 q 582 22 406 24 q 753 54 672 22 q 896 143 835 86 l 896 389 q 877 435 896 419 q 825 451 858 451 l 803 451 l 803 465 l 1075 465 l 1075 451 l 1054 451 q 1001 435 1019 451 q 985 389 983 419 l 985 160 q 899 75 949 113 q 765 9 849 38 q 582 -19 681 -19 z "},"Ģ":{"ha":1175,"x_min":83,"x_max":1551,"o":"m 1346 -242 q 1057 -129 1169 -242 q 947 81 974 -46 q 624 -19 815 -19 q 348 47 472 -19 q 153 228 224 113 q 83 488 83 343 q 153 748 83 632 q 347 928 224 864 q 624 992 471 992 q 961 897 815 992 l 989 701 l 976 701 q 788 921 935 863 q 624 950 715 950 q 312 819 436 950 q 188 488 188 689 q 313 156 188 288 q 624 22 438 24 q 796 54 714 22 q 936 143 878 86 l 936 389 q 918 435 936 419 q 867 451 900 451 l 844 451 l 844 465 l 1117 465 l 1117 451 l 1096 451 q 1043 435 1061 451 q 1026 389 1025 419 l 1026 175 q 1169 -139 1035 -44 q 1414 -206 1264 -206 q 1550 -193 1476 -206 l 1551 -207 q 1346 -242 1440 -242 m 586 -112 q 626 -89 597 -89 q 672 -120 658 -89 q 685 -180 685 -151 q 667 -236 685 -208 q 578 -289 635 -286 l 575 -279 q 618 -249 606 -269 q 613 -178 640 -211 q 604 -169 610 -175 q 596 -159 599 -162 q 589 -149 593 -156 q 585 -137 585 -143 q 586 -112 581 -125 z "},"ģ":{"ha":1108,"x_min":83,"x_max":1075,"o":"m 582 -19 q 222 121 360 -18 q 83 486 83 260 q 222 852 83 713 q 582 992 360 992 q 919 897 774 992 l 947 701 l 935 701 q 812 885 904 821 q 582 950 719 950 q 297 822 406 950 q 188 486 188 694 q 297 151 188 278 q 582 22 406 24 q 753 54 672 22 q 896 143 835 86 l 896 389 q 877 435 896 419 q 825 451 858 451 l 803 451 l 803 465 l 1075 465 l 1075 451 l 1054 451 q 1001 435 1019 451 q 985 389 983 419 l 985 160 q 899 75 949 113 q 765 9 849 38 q 582 -19 681 -19 m 543 -126 q 583 -103 554 -103 q 628 -134 615 -103 q 642 -185 642 -165 q 606 -273 642 -244 q 535 -303 571 -301 l 532 -293 q 575 -262 563 -283 q 569 -192 597 -225 q 561 -183 567 -189 q 553 -173 556 -176 q 546 -163 550 -169 q 542 -151 542 -157 q 543 -126 538 -139 z "},"Ħ":{"ha":1133,"x_min":82,"x_max":1047,"o":"m 1013 14 l 1029 14 l 1029 0 l 726 0 l 726 14 l 744 14 q 805 38 779 14 q 833 99 831 63 l 833 460 l 296 460 l 296 97 q 201 -164 296 -97 q 90 -210 158 -194 l 83 -197 q 176 -94 146 -164 q 206 97 206 -25 l 206 692 l 83 692 l 83 733 l 206 733 l 206 872 q 179 933 206 908 q 117 958 153 958 l 100 958 l 99 972 l 403 972 l 403 958 l 385 958 q 323 933 349 958 q 296 872 297 908 l 296 733 l 833 733 l 833 847 q 890 1069 835 1001 q 1040 1154 940 1132 l 1047 1142 q 955 1039 985 1108 q 924 847 925 969 l 924 733 l 1013 733 l 1013 692 l 924 692 l 924 101 q 968 25 924 50 q 1013 14 988 14 m 296 501 l 833 501 l 833 692 l 296 692 l 296 501 z "},"ħ":{"ha":1129,"x_min":82,"x_max":1047,"o":"m 760 14 q 822 39 796 14 q 849 100 847 64 l 849 460 l 281 460 l 281 101 q 307 40 281 65 q 369 14 333 14 l 388 14 l 388 0 l 83 0 l 83 14 l 101 14 q 163 40 138 14 q 190 101 189 65 l 190 692 l 103 692 l 103 733 l 190 733 l 190 872 q 163 933 189 908 q 101 958 138 958 l 83 958 l 83 972 l 388 972 l 388 958 l 369 958 q 308 933 333 958 q 281 872 282 908 l 281 733 l 849 733 l 849 872 q 804 947 847 922 q 760 958 783 958 l 742 958 l 742 972 l 1046 972 l 1046 958 l 1028 958 q 972 940 992 958 q 939 871 940 907 l 939 733 l 1031 733 l 1031 692 l 939 692 l 939 101 q 966 40 940 65 q 1028 14 992 14 l 1046 14 l 1046 0 l 742 0 l 742 14 l 760 14 m 281 501 l 849 501 l 849 692 l 281 692 l 281 501 z "},"Ī":{"ha":546,"x_min":-71,"x_max":490,"o":"m 142 1104 l 142 1153 l 489 1153 l 489 1104 l 142 1104 m 446 14 l 464 14 l 464 0 l 160 0 l 160 14 l 178 14 q 240 40 214 14 q 267 101 267 65 l 267 935 l 118 926 q -22 825 -22 918 q 2 761 -22 788 q 79 732 26 735 l 79 724 q 30 719 58 719 q -34 747 1 719 q -69 829 -69 775 q 110 967 -69 947 q 248 976 111 967 q 464 1000 385 985 l 467 986 q 382 946 407 976 q 357 861 357 915 l 357 101 q 384 40 358 65 q 446 14 410 14 z "},"ī":{"ha":469,"x_min":65,"x_max":414,"o":"m 65 1104 l 65 1153 l 413 1153 l 413 1104 l 65 1104 m 101 14 q 163 40 138 14 q 190 101 189 65 l 190 872 q 163 933 189 908 q 101 958 138 958 l 83 958 l 83 972 l 388 972 l 388 958 l 369 958 q 308 933 333 958 q 281 872 282 908 l 281 101 q 307 40 281 65 q 369 14 333 14 l 388 14 l 388 0 l 83 0 l 83 14 l 101 14 z "},"Į":{"ha":546,"x_min":-71,"x_max":467,"o":"m 235 -104 q 263 -174 235 -146 q 331 -201 290 -201 q 404 -167 371 -201 l 413 -175 q 371 -229 400 -208 q 304 -253 339 -253 q 241 -243 269 -253 q 192 -201 213 -233 q 171 -124 171 -169 q 203 -44 171 -78 q 285 0 235 -11 l 160 0 l 160 14 l 178 14 q 240 40 214 14 q 267 101 267 65 l 267 935 l 118 926 q -22 825 -22 918 q 2 761 -22 788 q 79 732 26 735 l 79 724 q 30 719 58 719 q -34 747 1 719 q -69 829 -69 775 q 110 967 -69 947 q 248 976 111 967 q 464 1000 385 985 l 467 986 q 382 946 407 976 q 357 861 357 915 l 357 101 q 383 40 357 65 q 446 14 410 14 l 464 14 l 464 0 l 338 0 q 235 -104 235 -24 z "},"į":{"ha":469,"x_min":82,"x_max":388,"o":"m 158 -104 q 187 -174 158 -146 q 255 -201 215 -201 q 328 -167 294 -201 l 336 -175 q 296 -229 324 -208 q 228 -253 263 -253 q 166 -243 194 -253 q 116 -201 138 -233 q 94 -124 94 -169 q 126 -44 94 -78 q 208 0 158 -11 l 83 0 l 83 14 l 101 14 q 163 40 138 14 q 190 101 189 65 l 190 872 q 163 933 189 908 q 101 958 138 958 l 83 958 l 83 972 l 388 972 l 388 958 l 369 958 q 308 933 333 958 q 281 872 282 908 l 281 101 q 307 40 281 65 q 369 14 333 14 l 388 14 l 388 0 l 263 0 q 158 -104 158 -24 z "},"İ":{"ha":546,"x_min":-71,"x_max":467,"o":"m 352 1080 q 343 1071 352 1080 q 310 1063 335 1063 q 267 1080 285 1063 q 250 1122 250 1097 q 267 1165 250 1147 q 310 1182 285 1182 q 352 1165 335 1182 q 369 1122 369 1147 q 352 1080 369 1097 m 446 14 l 464 14 l 464 0 l 160 0 l 160 14 l 178 14 q 240 40 214 14 q 267 101 267 65 l 267 935 l 118 926 q -22 825 -22 918 q 2 761 -22 788 q 79 732 26 735 l 79 724 q 40 719 60 719 q -51 768 -21 719 q -69 829 -69 796 q 110 967 -69 947 q 248 976 111 967 q 464 1000 385 985 l 467 986 q 382 946 407 976 q 357 861 357 915 l 357 101 q 384 40 358 65 q 446 14 410 14 z "},"ı":{"ha":469,"x_min":82,"x_max":388,"o":"m 101 14 q 163 40 138 14 q 190 101 189 65 l 190 872 q 163 933 189 908 q 101 958 138 958 l 83 958 l 83 972 l 388 972 l 388 958 l 369 958 q 308 933 333 958 q 281 872 282 908 l 281 101 q 307 40 281 65 q 369 14 333 14 l 388 14 l 388 0 l 83 0 l 83 14 l 101 14 z "},"Ĳ":{"ha":1017,"x_min":-71,"x_max":935,"o":"m 446 14 l 464 14 l 464 0 l 160 0 l 160 14 l 178 14 q 240 40 214 14 q 267 101 267 65 l 267 935 l 118 926 q -22 825 -22 918 q 2 761 -22 788 q 79 732 26 735 l 79 724 q 40 719 60 719 q -51 768 -21 719 q -69 829 -69 796 q 110 967 -69 947 q 248 976 111 967 q 464 1000 385 985 l 467 986 q 382 946 407 976 q 357 861 357 915 l 357 101 q 384 40 358 65 q 446 14 410 14 m 435 -187 q 509 -200 472 -200 q 586 -185 546 -200 q 660 -137 626 -169 q 715 -39 693 -104 q 736 115 736 26 l 736 871 q 710 933 736 907 q 647 958 683 958 l 629 958 l 629 972 l 933 972 l 933 958 l 915 958 q 853 933 879 958 q 826 871 828 908 l 826 111 q 797 -54 826 17 q 724 -161 768 -125 q 539 -226 640 -226 q 429 -203 479 -226 l 435 -187 z "},"ĳ":{"ha":919,"x_min":82,"x_max":858,"o":"m 839 958 q 763 915 789 958 q 750 871 751 896 l 750 0 q 677 -197 750 -117 q 497 -278 604 -278 l 497 -265 q 613 -163 565 -242 q 660 4 660 -85 l 660 871 q 633 933 658 907 q 571 958 607 958 l 553 958 l 553 972 l 857 972 l 857 958 l 839 958 m 101 14 q 163 40 138 14 q 190 101 189 65 l 190 872 q 163 933 189 908 q 101 958 138 958 l 83 958 l 83 972 l 388 972 l 388 958 l 369 958 q 308 933 333 958 q 281 872 282 908 l 281 101 q 307 40 281 65 q 369 14 333 14 l 388 14 l 388 0 l 83 0 l 83 14 l 101 14 z "},"Ķ":{"ha":929,"x_min":82,"x_max":1333,"o":"m 369 14 l 388 14 l 388 0 l 83 0 l 83 14 l 101 14 q 163 40 138 14 q 190 101 189 65 l 190 872 q 163 933 189 908 q 101 958 138 958 l 83 958 l 83 972 l 388 972 l 388 958 l 369 958 q 308 933 333 958 q 281 872 282 908 l 281 101 q 307 40 281 65 q 369 14 333 14 m 1332 -208 l 1332 -222 q 1226 -235 1279 -235 q 785 -7 999 -235 l 325 483 l 653 894 q 664 919 664 908 q 660 939 664 931 q 619 960 649 960 l 606 960 l 606 972 l 899 972 l 899 960 l 893 960 q 743 894 801 960 l 419 521 l 892 17 q 1098 -145 983 -82 q 1332 -208 1213 -208 m 506 -112 q 546 -89 517 -89 q 590 -120 578 -89 q 603 -171 603 -151 q 568 -259 603 -231 q 496 -289 533 -287 l 493 -279 q 538 -249 525 -269 q 531 -178 560 -211 q 524 -169 529 -175 q 515 -159 518 -162 q 508 -149 513 -156 q 503 -137 504 -143 q 506 -112 500 -125 z "},"ķ":{"ha":913,"x_min":82,"x_max":928,"o":"m 369 14 l 388 14 l 388 0 l 83 0 l 83 14 l 101 14 q 163 40 138 14 q 190 101 189 65 l 190 872 q 163 933 189 908 q 101 958 138 958 l 83 958 l 83 972 l 388 972 l 388 958 l 369 958 q 308 933 333 958 q 281 872 282 908 l 281 101 q 307 40 281 65 q 369 14 333 14 m 928 0 l 868 0 q 660 79 726 0 l 325 483 l 653 894 q 664 919 664 908 q 660 939 664 931 q 619 960 649 960 l 606 960 l 606 972 l 899 972 l 899 960 l 893 960 q 743 894 801 960 l 417 517 l 796 71 q 928 14 851 15 l 928 0 m 510 -112 q 550 -89 521 -89 q 594 -120 582 -89 q 607 -171 607 -151 q 572 -259 607 -231 q 500 -289 536 -287 l 497 -279 q 540 -249 529 -269 q 535 -178 563 -211 q 528 -169 533 -175 q 519 -159 522 -162 q 513 -149 517 -156 q 507 -137 508 -143 q 510 -112 504 -125 z "},"Ĺ":{"ha":557,"x_min":83,"x_max":1288,"o":"m 235 1061 l 225 1071 q 401 1253 332 1185 q 458 1179 439 1215 q 235 1061 369 1128 m 347 -26 q 791 -166 643 -129 q 1045 -203 939 -203 q 1279 -154 1151 -203 l 1286 -165 q 944 -282 1117 -282 q 543 -172 768 -282 q 328 -68 369 -86 q 83 0 179 -1 l 83 14 l 101 14 q 163 39 138 14 q 190 101 189 64 l 190 871 q 163 933 189 907 q 101 958 138 958 l 83 958 l 83 972 l 388 972 l 388 958 l 369 958 q 293 915 319 958 q 281 871 281 894 l 281 69 q 283 31 281 44 q 301 1 286 18 q 347 -26 317 -15 z "},"ĺ":{"ha":781,"x_min":83,"x_max":740,"o":"m 236 1061 l 226 1071 q 403 1253 332 1185 q 460 1179 440 1215 q 236 1061 371 1128 m 101 14 q 163 40 138 14 q 190 101 189 65 l 190 871 q 163 933 189 907 q 101 958 138 958 l 83 958 l 83 972 l 388 972 l 388 958 l 369 958 q 293 915 319 958 q 281 871 281 894 l 281 43 l 479 43 q 636 89 582 43 q 726 225 690 135 l 740 225 l 660 0 l 83 0 l 83 14 l 101 14 z "},"Ļ":{"ha":557,"x_min":83,"x_max":1288,"o":"m 347 -26 q 791 -166 643 -129 q 1045 -203 939 -203 q 1279 -154 1151 -203 l 1286 -165 q 944 -282 1117 -282 q 543 -172 768 -282 q 328 -68 369 -86 q 83 0 179 -1 l 83 14 l 101 14 q 163 39 138 14 q 190 101 189 64 l 190 871 q 163 933 189 907 q 101 958 138 958 l 83 958 l 83 972 l 388 972 l 388 958 l 369 958 q 307 933 333 958 q 281 871 281 907 l 281 69 q 283 31 281 44 q 301 1 286 18 q 347 -26 317 -15 m 292 -176 q 332 -153 303 -153 q 377 -184 364 -153 q 390 -244 390 -215 q 372 -300 390 -272 q 282 -353 340 -350 l 279 -343 q 324 -312 311 -333 q 317 -242 346 -275 q 310 -233 315 -239 q 301 -223 304 -226 q 294 -213 299 -219 q 289 -201 290 -207 q 292 -176 286 -189 z "},"ļ":{"ha":781,"x_min":83,"x_max":740,"o":"m 101 14 q 163 40 138 14 q 190 101 189 65 l 190 871 q 163 933 189 907 q 101 958 138 958 l 83 958 l 83 972 l 388 972 l 388 958 l 369 958 q 293 915 319 958 q 281 871 281 894 l 281 43 l 479 43 q 636 89 582 43 q 726 225 690 135 l 740 225 l 660 0 l 83 0 l 83 14 l 101 14 m 383 -112 q 424 -89 393 -89 q 469 -120 456 -89 q 482 -180 482 -151 q 464 -236 482 -208 q 374 -289 431 -286 l 371 -279 q 414 -249 403 -269 q 408 -178 436 -211 q 401 -169 407 -175 q 393 -159 396 -162 q 386 -149 390 -156 q 381 -137 382 -143 q 383 -112 378 -125 z "},"Ľ":{"ha":557,"x_min":83,"x_max":1288,"o":"m 556 981 q 572 981 556 981 q 600 949 588 981 q 613 890 613 918 q 594 832 613 861 q 506 781 563 782 l 503 789 q 546 819 533 799 q 533 899 568 860 q 514 956 504 932 q 556 981 524 981 m 347 -26 q 791 -166 643 -129 q 1045 -203 939 -203 q 1279 -154 1151 -203 l 1286 -165 q 944 -282 1117 -282 q 543 -172 768 -282 q 328 -68 369 -86 q 83 0 179 -1 l 83 14 l 101 14 q 163 39 138 14 q 190 101 189 64 l 190 871 q 163 933 189 907 q 101 958 138 958 l 83 958 l 83 972 l 388 972 l 388 958 l 369 958 q 293 915 319 958 q 281 871 281 894 l 281 69 q 283 31 281 44 q 301 1 286 18 q 347 -26 317 -15 z "},"ľ":{"ha":781,"x_min":83,"x_max":740,"o":"m 556 981 q 572 981 556 981 q 600 949 588 981 q 613 890 613 918 q 594 832 613 861 q 506 781 563 782 l 503 789 q 546 819 533 799 q 533 899 568 860 q 514 956 504 932 q 556 981 524 981 m 101 14 q 163 40 138 14 q 190 101 189 65 l 190 871 q 163 933 189 907 q 101 958 138 958 l 83 958 l 83 972 l 388 972 l 388 958 l 369 958 q 307 933 333 958 q 281 871 281 907 l 281 43 l 479 43 q 636 89 582 43 q 726 225 690 135 l 740 225 l 660 0 l 83 0 l 83 14 l 101 14 z "},"Ŀ":{"ha":661,"x_min":83,"x_max":1288,"o":"m 347 -26 q 791 -166 643 -129 q 1045 -203 939 -203 q 1279 -154 1151 -203 l 1286 -165 q 944 -282 1117 -282 q 543 -172 768 -282 q 328 -68 369 -86 q 83 0 179 -1 l 83 14 l 101 14 q 163 39 138 14 q 190 101 189 64 l 190 871 q 163 933 189 907 q 101 958 138 958 l 83 958 l 83 972 l 388 972 l 388 958 l 369 958 q 307 933 333 958 q 281 871 281 907 l 281 69 q 283 31 281 44 q 301 1 286 18 q 347 -26 317 -15 m 508 578 q 499 569 508 578 q 465 560 490 560 q 420 578 439 560 q 401 622 401 596 q 420 667 401 649 q 465 685 439 685 q 508 667 490 685 q 526 622 526 649 q 508 578 526 596 z "},"ŀ":{"ha":781,"x_min":83,"x_max":740,"o":"m 101 14 q 163 40 138 14 q 190 101 189 65 l 190 871 q 163 933 189 907 q 101 958 138 958 l 83 958 l 83 972 l 388 972 l 388 958 l 369 958 q 293 915 319 958 q 281 871 281 894 l 281 43 l 479 43 q 636 89 582 43 q 726 225 690 135 l 740 225 l 660 0 l 83 0 l 83 14 l 101 14 m 508 578 q 499 569 508 578 q 465 560 490 560 q 420 578 439 560 q 401 622 401 596 q 420 667 401 649 q 465 685 439 685 q 508 667 490 685 q 526 622 526 649 q 508 578 526 596 z "},"Ł":{"ha":615,"x_min":83,"x_max":1288,"o":"m 347 -26 q 791 -166 643 -129 q 1045 -203 939 -203 q 1279 -154 1151 -203 l 1286 -165 q 944 -282 1117 -282 q 543 -172 768 -282 q 328 -68 369 -86 q 83 0 179 -1 l 83 14 l 101 14 q 163 39 138 14 q 190 101 189 64 l 190 394 l 104 344 l 83 381 l 190 442 l 190 871 q 163 933 189 907 q 101 958 138 958 l 83 958 l 83 972 l 388 972 l 388 958 l 369 958 q 293 915 319 958 q 281 871 281 894 l 281 494 l 513 628 l 533 592 l 281 446 l 281 69 q 283 31 281 44 q 301 1 286 18 q 347 -26 317 -15 z "},"ł":{"ha":781,"x_min":24,"x_max":740,"o":"m 101 14 q 163 40 138 14 q 190 101 189 65 l 190 428 l 46 344 l 25 381 l 190 476 l 190 871 q 163 933 189 907 q 101 958 138 958 l 83 958 l 83 972 l 388 972 l 388 958 l 369 958 q 307 933 333 958 q 281 871 281 907 l 281 528 l 453 628 l 474 592 l 281 481 l 281 43 l 479 43 q 636 89 582 43 q 726 225 690 135 l 740 225 l 660 0 l 83 0 l 83 14 l 101 14 z "},"Ń":{"ha":1168,"x_min":-262,"x_max":1464,"o":"m 592 1061 l 582 1071 q 758 1253 688 1185 q 815 1179 796 1215 q 592 1061 725 1128 m 1464 -211 q 1348 -232 1397 -232 q 1259 -222 1299 -232 q 1181 -194 1219 -211 q 1103 -146 1142 -176 q 969 -19 1038 -93 l 238 792 l 238 97 q 281 25 239 49 q 322 14 300 14 l 349 14 l 349 0 l 63 0 l 63 14 l 89 14 q 149 38 124 14 q 174 99 174 63 l 174 861 q 148 894 165 872 q 118 933 131 917 q 85 972 106 949 q 47 1013 64 996 q 7 1049 31 1029 q -37 1082 -17 1069 q -126 1121 -92 1115 q -190 1126 -160 1126 q -256 1117 -221 1126 l -261 1131 q -119 1160 -192 1160 q 176 999 21 1160 q 232 939 200 974 l 932 161 l 932 874 q 906 934 931 910 q 846 958 881 958 l 819 958 l 819 972 l 1106 972 l 1106 958 l 1081 958 q 1021 934 1046 958 q 994 875 996 910 l 994 90 q 1034 44 1008 75 q 1070 1 1060 14 q 1101 -35 1081 -11 q 1137 -72 1122 -58 q 1173 -105 1151 -85 q 1213 -137 1194 -125 q 1256 -164 1232 -149 q 1331 -193 1289 -183 q 1401 -203 1374 -203 q 1458 -197 1428 -203 l 1464 -211 z "},"ń":{"ha":1168,"x_min":61,"x_max":1107,"o":"m 592 1061 l 582 1071 q 758 1253 688 1185 q 815 1179 796 1215 q 592 1061 725 1128 m 1081 958 q 1021 934 1046 958 q 994 875 996 910 l 994 158 q 1004 6 994 78 l 1007 -19 l 994 -19 l 238 789 l 238 97 q 263 38 238 63 q 322 14 288 14 l 349 14 l 349 0 l 63 0 l 63 14 l 89 14 q 149 38 124 14 q 174 99 174 63 l 174 819 q 164 971 174 904 l 161 993 l 175 993 l 932 185 l 932 874 q 906 934 931 910 q 846 958 881 958 l 819 958 l 819 972 l 1106 972 l 1106 958 l 1081 958 z "},"Ņ":{"ha":1168,"x_min":-262,"x_max":1464,"o":"m 1464 -211 q 1348 -232 1397 -232 q 1259 -222 1299 -232 q 1181 -194 1219 -211 q 1103 -146 1142 -176 q 969 -19 1038 -93 l 238 792 l 238 97 q 281 25 239 49 q 322 14 300 14 l 349 14 l 349 0 l 63 0 l 63 14 l 89 14 q 149 38 124 14 q 174 99 174 63 l 174 861 q 148 894 165 872 q 118 933 131 917 q 85 972 106 949 q 47 1013 64 996 q 7 1049 31 1029 q -37 1082 -17 1069 q -126 1121 -92 1115 q -190 1126 -160 1126 q -256 1117 -221 1126 l -261 1131 q -133 1158 -194 1158 q -26 1144 -71 1158 q 69 1092 18 1129 q 153 1022 121 1054 q 232 939 186 990 l 932 161 l 932 874 q 906 934 931 910 q 846 958 881 958 l 819 958 l 819 972 l 1106 972 l 1106 958 l 1081 958 q 1021 934 1046 958 q 994 875 996 910 l 994 90 q 1034 44 1008 75 q 1070 1 1060 14 q 1101 -35 1081 -11 q 1137 -72 1122 -58 q 1173 -105 1151 -85 q 1213 -137 1194 -125 q 1256 -164 1232 -149 q 1331 -193 1289 -183 q 1401 -203 1374 -203 q 1458 -197 1428 -203 l 1464 -211 m 554 -112 q 593 -89 564 -89 q 640 -120 626 -89 q 653 -180 653 -151 q 635 -236 653 -208 q 544 -289 601 -286 l 542 -279 q 585 -249 572 -269 q 579 -178 607 -211 q 572 -169 576 -175 q 563 -159 567 -162 q 556 -149 560 -156 q 551 -137 553 -143 q 554 -112 549 -125 z "},"ņ":{"ha":1168,"x_min":61,"x_max":1107,"o":"m 1081 958 q 1021 934 1046 958 q 994 875 996 910 l 994 158 q 1004 6 994 78 l 1007 -19 l 994 -19 l 238 789 l 238 97 q 263 38 238 63 q 322 14 288 14 l 349 14 l 349 0 l 63 0 l 63 14 l 89 14 q 149 38 124 14 q 174 99 174 63 l 174 819 q 164 971 174 904 l 161 993 l 175 993 l 932 185 l 932 874 q 906 934 931 910 q 846 958 881 958 l 819 958 l 819 972 l 1106 972 l 1106 958 l 1081 958 m 554 -112 q 593 -89 564 -89 q 640 -120 626 -89 q 653 -180 653 -151 q 635 -236 653 -208 q 544 -289 601 -286 l 542 -279 q 585 -249 572 -269 q 579 -178 607 -211 q 572 -169 576 -175 q 563 -159 567 -162 q 556 -149 560 -156 q 551 -137 553 -143 q 554 -112 549 -125 z "},"Ň":{"ha":1168,"x_min":-262,"x_max":1464,"o":"m 599 1061 l 585 1061 l 426 1226 l 435 1238 l 592 1146 l 738 1238 l 746 1226 l 599 1061 m 1464 -211 q 1264 -224 1353 -246 q 1103 -146 1171 -199 q 969 -19 1038 -93 l 238 792 l 238 97 q 263 38 238 63 q 322 14 288 14 l 349 14 l 349 0 l 63 0 l 63 14 l 89 14 q 149 38 124 14 q 174 99 174 63 l 174 861 q 146 898 167 871 q 111 942 125 925 q 74 985 97 958 q 30 1029 50 1013 q -17 1068 10 1046 q -106 1114 -58 1100 q -185 1128 -153 1128 q -256 1117 -218 1128 l -261 1131 q -140 1161 -189 1161 q -54 1151 -92 1161 q 21 1122 -17 1140 q 99 1069 58 1104 q 232 939 163 1015 l 932 161 l 932 874 q 906 934 931 910 q 846 958 881 958 l 819 958 l 819 972 l 1106 972 l 1106 958 l 1081 958 q 1021 934 1046 958 q 994 875 996 910 l 994 90 q 1049 26 1008 75 q 1122 -56 1090 -22 q 1210 -135 1154 -89 q 1397 -203 1296 -203 q 1458 -197 1426 -203 l 1464 -211 z "},"ň":{"ha":1168,"x_min":61,"x_max":1107,"o":"m 599 1061 l 585 1061 l 426 1226 l 435 1238 l 592 1146 l 738 1238 l 746 1226 l 599 1061 m 1081 958 q 1021 934 1046 958 q 994 875 996 910 l 994 158 q 1004 6 994 78 l 1007 -19 l 994 -19 l 238 789 l 238 97 q 263 38 238 63 q 322 14 288 14 l 349 14 l 349 0 l 63 0 l 63 14 l 89 14 q 149 38 124 14 q 174 99 174 63 l 174 819 q 164 971 174 904 l 161 993 l 175 993 l 932 185 l 932 874 q 906 934 931 910 q 846 958 881 958 l 819 958 l 819 972 l 1106 972 l 1106 958 l 1081 958 z "},"Ŋ":{"ha":1138,"x_min":-221,"x_max":1076,"o":"m -219 1064 q -78 1093 -150 1093 q 218 932 61 1093 q 274 872 242 908 l 915 186 l 915 882 q 894 933 915 913 q 842 954 872 954 l 819 954 l 819 972 l 1075 972 l 1075 954 l 1053 954 q 1001 933 1022 954 q 979 882 979 913 l 979 -44 q 953 -167 979 -115 q 890 -243 928 -218 q 801 -279 851 -268 l 794 -268 q 881 -190 846 -244 q 917 -42 917 -135 l 917 46 l 222 789 l 222 90 q 258 28 222 49 q 296 18 276 18 l 318 18 l 318 0 l 63 0 l 63 18 l 85 18 q 135 38 114 18 q 157 86 156 57 l 157 868 q -83 1053 29 1025 q -145 1060 -111 1060 q -214 1050 -179 1060 l -219 1064 z "},"ŋ":{"ha":1165,"x_min":42,"x_max":1056,"o":"m 1032 954 q 981 933 1003 954 q 958 882 960 913 l 958 -44 q 933 -167 958 -115 q 869 -243 907 -218 q 781 -279 831 -268 l 774 -268 q 860 -190 825 -244 q 896 -42 896 -135 l 896 46 l 201 789 l 201 90 q 223 39 201 60 q 275 18 244 18 l 297 18 l 297 0 l 42 0 l 42 18 l 64 18 q 116 39 94 18 q 138 90 138 60 l 138 819 q 129 971 138 904 l 125 993 l 139 993 l 896 186 l 896 882 q 879 928 894 913 q 821 954 851 954 l 800 954 l 799 972 l 1054 972 l 1054 954 l 1032 954 z "},"Ō":{"ha":1290,"x_min":83,"x_max":1207,"o":"m 482 1104 l 482 1153 l 829 1153 l 829 1104 l 482 1104 m 385 649 q 379 680 379 667 q 381 710 379 693 q 387 756 382 726 q 406 813 392 785 q 438 868 419 842 q 484 917 456 894 q 547 956 513 939 q 726 992 621 992 q 1073 851 939 992 q 1207 490 1207 710 q 1049 126 1207 271 q 647 -19 890 -19 q 244 125 404 -19 q 83 500 83 269 q 153 764 83 649 q 351 944 222 879 l 360 932 q 230 760 269 872 q 190 521 190 647 q 318 154 190 286 q 646 22 446 22 q 973 155 846 22 q 1100 504 1100 288 q 999 821 1100 692 q 715 950 899 950 q 567 921 633 950 q 407 751 446 869 q 396 692 396 717 q 399 651 396 667 l 385 649 z "},"ō":{"ha":1178,"x_min":54,"x_max":1124,"o":"m 421 1104 l 421 1153 l 768 1153 l 768 1104 l 421 1104 m 204 852 q 278 922 204 852 q 590 992 353 992 q 975 852 826 992 q 1124 486 1124 713 q 975 120 1124 260 q 590 -19 826 -19 q 204 120 353 -19 q 56 486 56 260 q 204 852 56 713 m 280 150 q 339 86 280 150 q 589 22 397 22 q 898 150 781 22 q 1015 486 1015 278 q 898 822 1015 694 q 589 950 781 950 q 280 822 397 950 q 163 486 163 694 q 280 150 163 278 z "},"Ő":{"ha":1290,"x_min":83,"x_max":1208,"o":"m 572 1067 l 557 1069 q 650 1251 599 1161 q 735 1235 700 1249 q 572 1067 660 1151 m 742 1067 l 726 1069 q 819 1251 769 1171 q 904 1235 861 1251 q 742 1067 810 1129 m 385 649 q 379 680 379 667 q 381 710 379 693 q 387 756 382 726 q 406 813 392 785 q 438 868 419 842 q 484 917 456 894 q 547 956 513 939 q 744 992 621 992 q 978 926 868 992 q 1148 749 1089 861 q 1207 493 1207 638 q 1135 230 1207 349 q 935 46 1063 111 q 648 -19 807 -19 q 360 45 489 -19 q 158 228 232 110 q 83 498 83 347 q 153 764 83 649 q 351 944 222 879 l 360 932 q 258 818 299 892 q 190 521 190 694 q 225 308 190 403 q 322 150 260 213 q 644 22 449 22 q 880 82 776 22 q 1042 251 983 142 q 1100 504 1100 361 q 1004 814 1100 686 q 883 913 958 876 q 721 950 808 950 q 567 921 633 950 q 407 751 446 869 q 396 692 396 717 q 399 651 396 667 l 385 649 z "},"ő":{"ha":1178,"x_min":56,"x_max":1124,"o":"m 682 1067 l 667 1069 q 760 1251 708 1171 q 843 1235 800 1251 q 682 1067 750 1129 m 511 1067 l 496 1069 q 589 1251 539 1161 q 674 1235 640 1249 q 511 1067 599 1151 m 204 852 q 278 922 204 852 q 590 992 353 992 q 975 852 826 992 q 1124 486 1124 713 q 975 120 1124 260 q 590 -19 826 -19 q 204 120 353 -19 q 56 486 56 260 q 204 852 56 713 m 280 150 q 339 86 280 150 q 590 22 397 22 q 899 150 782 22 q 1015 486 1015 278 q 899 822 1015 694 q 590 950 782 950 q 280 822 397 950 q 163 486 163 694 q 280 150 163 278 z "},"Œ":{"ha":1385,"x_min":83,"x_max":1379,"o":"m 828 0 q 689 -10 772 0 q 575 -19 606 -19 q 219 119 354 -19 q 83 486 83 258 q 119 693 83 599 q 218 853 154 788 q 374 955 282 918 q 557 992 467 992 q 715 982 647 992 q 825 972 782 972 l 911 972 q 1006 981 954 972 q 1076 997 1057 989 l 1076 822 l 1060 822 l 1060 847 q 1038 904 1060 881 q 982 929 1015 928 l 829 929 l 829 500 l 1092 500 q 1140 521 1121 501 q 1160 569 1160 540 l 1160 589 l 1174 589 l 1174 369 l 1160 369 l 1160 390 q 1140 438 1160 418 q 1093 458 1121 457 l 829 458 l 829 43 l 1118 43 q 1274 89 1219 43 q 1364 225 1328 135 l 1378 225 l 1297 0 l 828 0 m 575 950 q 291 822 399 950 q 183 486 183 694 q 291 150 183 278 q 575 22 399 22 q 717 51 665 22 q 744 89 744 68 l 744 883 q 693 934 744 918 q 575 950 642 950 z "},"œ":{"ha":1356,"x_min":83,"x_max":1296,"o":"m 828 0 q 689 -10 772 0 q 575 -19 606 -19 q 219 119 354 -19 q 83 486 83 258 q 119 693 83 599 q 218 853 154 788 q 374 955 282 918 q 557 992 467 992 q 715 982 647 992 q 826 972 783 972 l 1044 972 q 1139 981 1088 972 q 1210 997 1190 989 l 1210 822 l 1193 822 l 1193 847 q 1171 904 1193 881 q 1115 929 1149 928 l 829 929 l 829 500 l 1069 500 q 1118 521 1099 501 q 1138 569 1138 540 l 1138 589 l 1151 589 l 1151 369 l 1138 369 l 1138 390 q 1118 438 1138 418 q 1071 458 1099 457 l 829 458 l 829 43 l 1035 43 q 1190 89 1136 43 q 1281 225 1244 135 l 1294 225 l 1214 0 l 828 0 m 575 950 q 291 822 399 950 q 183 486 183 694 q 291 150 183 278 q 575 22 399 22 q 717 51 665 22 q 744 89 744 68 l 744 883 q 693 934 744 918 q 575 950 642 950 z "},"Ŕ":{"ha":906,"x_min":83,"x_max":1317,"o":"m 450 1061 l 440 1071 q 615 1253 546 1185 q 672 1179 653 1215 q 450 1061 583 1128 m 1317 -236 q 1213 -251 1258 -251 q 1133 -246 1168 -251 q 1059 -224 1099 -240 q 985 -187 1019 -208 q 915 -136 950 -167 q 799 -25 851 -85 q 599 199 747 35 q 401 418 450 364 q 326 475 353 472 l 326 489 q 434 492 407 489 q 492 505 461 496 q 543 529 522 514 q 625 704 625 582 q 580 867 625 806 q 453 929 535 928 l 281 929 l 281 101 q 306 40 281 67 q 369 14 332 14 l 386 14 l 388 0 l 83 0 l 83 14 l 101 14 q 163 39 136 14 q 190 100 189 64 l 190 871 q 163 933 189 907 q 101 958 138 958 l 83 958 l 83 972 l 458 972 q 601 941 539 972 q 696 853 663 910 q 729 721 729 796 q 661 527 729 608 q 494 446 593 446 q 493 446 494 446 q 600 329 540 396 q 908 -4 840 64 q 1028 -116 976 -72 q 1121 -181 1081 -160 q 1283 -225 1203 -225 q 1317 -222 1300 -225 l 1317 -236 z "},"ŕ":{"ha":940,"x_min":83,"x_max":956,"o":"m 435 1061 l 425 1071 q 601 1253 531 1185 q 658 1179 639 1215 q 435 1061 569 1128 m 369 929 l 281 929 l 281 101 q 306 40 281 65 q 369 14 332 14 l 386 14 l 388 0 l 83 0 l 83 14 l 101 14 q 163 39 138 14 q 190 100 189 64 l 190 871 q 163 933 189 907 q 101 958 138 958 l 83 958 l 83 972 l 458 972 q 657 902 585 972 q 729 720 729 832 q 660 527 729 608 q 493 446 592 446 q 542 408 514 436 q 593 349 571 379 q 751 135 713 178 q 809 76 790 93 q 850 44 828 60 q 956 14 896 14 l 956 0 l 879 0 q 768 22 819 0 q 691 66 717 43 q 647 110 665 89 q 543 254 628 132 q 444 394 458 376 q 415 428 431 411 q 326 475 371 475 l 326 489 q 356 488 338 488 q 400 489 374 488 q 617 633 572 493 q 625 685 625 661 q 625 717 625 710 q 576 867 622 810 q 453 928 531 924 q 369 929 419 929 z "},"Ŗ":{"ha":906,"x_min":83,"x_max":1317,"o":"m 1317 -236 q 1213 -251 1258 -251 q 1133 -246 1168 -251 q 1059 -224 1099 -240 q 985 -187 1019 -208 q 915 -136 950 -167 q 799 -25 851 -85 q 599 199 747 35 q 401 418 450 364 q 326 475 353 472 l 326 489 q 434 492 407 489 q 492 505 461 496 q 543 529 522 514 q 625 704 625 582 q 580 867 625 806 q 453 929 535 928 l 281 929 l 281 101 q 306 40 281 67 q 369 14 332 14 l 386 14 l 388 0 l 83 0 l 83 14 l 101 14 q 163 39 136 14 q 190 100 189 64 l 190 871 q 163 933 189 907 q 101 958 138 958 l 83 958 l 83 972 l 458 972 q 655 903 581 972 q 729 722 729 835 q 661 527 729 608 q 494 446 593 446 q 493 446 494 446 q 600 329 540 396 q 908 -4 840 64 q 1028 -116 976 -72 q 1121 -181 1081 -160 q 1283 -225 1203 -225 q 1317 -222 1300 -225 l 1317 -236 m 486 -93 q 526 -69 497 -69 q 572 -101 560 -69 q 585 -160 585 -132 q 567 -217 585 -189 q 478 -269 535 -267 l 475 -260 q 518 -229 506 -250 q 513 -158 540 -192 q 504 -149 510 -156 q 496 -140 499 -143 q 490 -130 493 -136 q 485 -118 486 -124 q 486 -93 481 -106 z "},"ŗ":{"ha":940,"x_min":83,"x_max":956,"o":"m 369 929 l 281 929 l 281 101 q 306 40 281 65 q 369 14 332 14 l 386 14 l 388 0 l 83 0 l 83 14 l 101 14 q 163 39 138 14 q 190 100 189 64 l 190 871 q 163 933 189 907 q 101 958 138 958 l 83 958 l 83 972 l 458 972 q 657 902 585 972 q 729 720 729 832 q 660 527 729 608 q 493 446 592 446 q 542 408 514 436 q 593 349 571 379 q 749 138 713 178 q 800 84 785 99 q 833 56 815 69 q 869 33 851 42 q 956 14 910 14 l 956 0 l 879 0 q 768 22 819 0 q 691 66 717 43 q 647 110 665 89 q 543 254 628 132 q 444 394 458 376 q 415 428 431 411 q 326 475 371 475 l 326 489 q 356 488 338 488 q 400 489 374 488 q 617 633 572 493 q 625 685 625 661 q 625 717 625 710 q 576 867 622 810 q 453 928 531 924 q 369 929 419 929 m 489 -112 q 529 -89 500 -89 q 574 -120 561 -89 q 588 -180 588 -151 q 569 -236 588 -208 q 479 -289 538 -286 l 478 -279 q 521 -249 508 -269 q 515 -178 543 -211 q 507 -169 513 -175 q 499 -159 501 -162 q 492 -149 496 -156 q 488 -137 488 -143 q 489 -112 483 -125 z "},"Ř":{"ha":906,"x_min":82,"x_max":1317,"o":"m 457 1061 l 443 1061 l 283 1226 l 292 1238 l 450 1146 l 596 1238 l 604 1226 l 457 1061 m 1317 -236 q 1206 -251 1257 -251 q 1109 -240 1154 -251 q 1022 -208 1064 -228 q 938 -154 979 -187 q 804 -31 861 -96 q 599 199 747 35 q 401 418 450 364 q 326 475 353 472 l 326 489 q 434 492 407 489 q 492 505 461 496 q 543 529 522 514 q 625 704 625 582 q 580 867 625 806 q 453 929 535 928 l 281 929 l 281 101 q 306 40 281 67 q 369 14 332 14 l 386 14 l 388 0 l 83 0 l 83 14 l 101 14 q 163 39 136 14 q 190 100 189 64 l 190 871 q 163 933 189 907 q 101 958 138 958 l 83 958 l 83 972 l 458 972 q 655 903 581 972 q 729 722 729 835 q 661 527 729 608 q 494 446 593 446 q 493 446 494 446 q 656 268 542 394 q 841 67 771 142 q 944 -40 911 -7 q 1028 -116 976 -72 q 1121 -181 1081 -160 q 1283 -225 1203 -225 q 1317 -222 1300 -225 l 1317 -236 z "},"ř":{"ha":940,"x_min":82,"x_max":956,"o":"m 442 1061 l 428 1061 l 269 1226 l 278 1238 l 436 1146 l 581 1238 l 589 1226 l 442 1061 m 369 929 l 281 929 l 281 101 q 306 40 281 65 q 369 14 332 14 l 386 14 l 386 0 l 83 0 l 83 14 l 101 14 q 163 39 138 14 q 190 100 189 64 l 190 871 q 163 933 189 907 q 101 958 138 958 l 83 958 l 83 972 l 458 972 q 657 902 585 972 q 729 720 729 832 q 660 527 729 608 q 493 446 592 446 q 542 408 514 436 q 593 349 571 379 q 763 122 713 178 q 856 40 814 67 q 956 14 899 14 l 956 0 l 879 0 q 768 22 819 0 q 691 66 717 43 q 647 110 665 89 q 543 254 628 132 q 444 394 458 376 q 415 428 431 411 q 326 475 371 475 l 326 489 q 356 488 338 488 q 400 489 374 488 q 617 633 572 493 q 625 685 625 661 q 625 717 625 710 q 576 867 622 810 q 453 928 531 924 q 369 929 419 929 z "},"Ś":{"ha":763,"x_min":57,"x_max":714,"o":"m 392 1061 l 382 1071 q 558 1253 489 1185 q 615 1179 596 1215 q 392 1061 526 1128 m 165 369 q 93 165 93 275 q 203 -37 93 35 q 348 -81 267 -81 q 489 -49 429 -81 q 615 147 601 10 q 617 167 617 157 q 588 278 617 218 q 496 388 560 338 l 246 585 q 164 751 164 650 q 229 922 164 851 q 406 992 294 992 q 526 978 461 992 l 582 978 l 585 807 l 571 807 q 523 912 569 874 q 406 950 476 950 q 289 903 336 950 q 242 784 242 857 q 303 663 242 711 l 560 460 q 713 168 713 339 q 611 -51 713 40 q 378 -131 524 -131 q 219 -97 289 -131 q 63 111 89 -36 q 58 167 58 133 q 78 260 58 201 q 153 379 97 319 l 165 369 z "},"ś":{"ha":661,"x_min":79,"x_max":581,"o":"m 343 1061 l 333 1071 q 510 1253 439 1185 q 567 1179 547 1215 q 343 1061 478 1128 m 85 57 q 81 132 81 76 q 101 250 81 188 l 114 250 q 113 219 113 235 q 164 78 113 135 q 300 22 215 22 q 444 75 388 22 q 500 208 500 128 q 446 338 500 288 l 179 585 q 104 753 104 654 q 170 922 104 851 q 349 992 236 992 q 468 978 401 992 l 522 978 l 522 807 l 510 807 q 465 911 510 872 q 349 950 419 950 q 230 903 278 950 q 182 785 182 856 q 238 663 182 714 l 511 410 q 581 235 581 346 q 510 52 581 124 q 321 -19 439 -19 q 191 -1 260 -19 q 85 57 122 18 z "},"Ş":{"ha":763,"x_min":57,"x_max":714,"o":"m 165 369 q 93 165 93 275 q 203 -37 93 35 q 348 -81 267 -81 q 489 -49 429 -81 q 615 147 601 10 q 617 167 617 157 q 588 278 617 218 q 496 388 560 338 l 246 585 q 164 750 164 649 q 229 922 164 851 q 406 992 294 992 q 526 978 461 992 l 582 978 l 585 807 l 571 807 q 523 912 569 874 q 406 950 476 950 q 289 903 336 950 q 242 784 242 857 q 303 663 242 711 l 560 460 q 713 167 713 339 q 622 -42 713 49 q 406 -129 542 -121 l 349 -196 q 394 -187 371 -187 q 474 -216 453 -187 q 494 -281 494 -244 q 433 -371 494 -342 q 363 -387 397 -387 q 299 -378 329 -387 l 300 -364 q 388 -342 350 -364 q 425 -279 425 -321 q 354 -218 425 -218 q 308 -229 331 -218 l 301 -215 l 367 -131 q 213 -94 281 -128 q 61 114 86 -31 q 58 168 58 135 q 78 260 58 201 q 153 379 99 319 l 165 369 z "},"ş":{"ha":661,"x_min":79,"x_max":581,"o":"m 85 57 q 81 132 81 76 q 101 250 81 188 l 114 250 q 113 219 113 235 q 164 78 113 135 q 300 22 215 22 q 444 75 388 22 q 500 208 500 128 q 446 338 500 288 l 179 585 q 104 753 104 654 q 170 922 104 851 q 349 992 236 992 q 468 978 401 992 l 522 978 l 522 807 l 510 807 q 465 911 510 872 q 349 950 419 950 q 230 903 278 950 q 182 785 182 856 q 238 663 182 714 l 511 410 q 581 238 581 346 q 517 60 581 131 q 347 -18 454 -10 l 292 -83 q 338 -75 314 -75 q 417 -103 396 -75 q 438 -168 438 -132 q 376 -258 438 -229 q 307 -275 342 -275 q 242 -265 272 -275 l 243 -251 q 331 -231 293 -251 q 368 -167 368 -210 q 297 -106 368 -106 q 251 -117 275 -106 l 244 -103 l 308 -19 q 184 2 247 -17 q 85 57 121 21 z "},"Š":{"ha":763,"x_min":57,"x_max":714,"o":"m 399 1061 l 385 1061 l 226 1226 l 235 1238 l 393 1146 l 539 1238 l 547 1226 l 399 1061 m 165 369 q 93 165 93 275 q 203 -37 93 35 q 348 -81 267 -81 q 489 -49 429 -81 q 615 147 601 10 q 617 167 617 157 q 588 278 617 218 q 496 388 560 338 l 246 585 q 164 750 164 649 q 229 922 164 851 q 406 992 294 992 q 526 978 461 992 l 582 978 l 585 807 l 571 807 q 523 912 569 874 q 406 950 476 950 q 289 903 336 950 q 242 784 242 857 q 303 663 242 711 l 560 460 q 713 168 713 339 q 611 -51 713 40 q 378 -131 524 -131 q 219 -97 289 -131 q 63 111 89 -36 q 58 167 58 133 q 78 260 58 201 q 153 379 97 319 l 165 369 z "},"š":{"ha":661,"x_min":79,"x_max":581,"o":"m 350 1061 l 336 1061 l 178 1226 l 186 1238 l 344 1146 l 489 1238 l 497 1226 l 350 1061 m 85 57 q 81 132 81 76 q 101 250 81 188 l 114 250 q 113 219 113 235 q 164 78 113 135 q 300 22 215 22 q 444 75 388 22 q 500 208 500 128 q 446 338 500 288 l 179 585 q 104 753 104 654 q 170 922 104 851 q 349 992 236 992 q 467 978 401 992 l 522 978 l 522 807 l 508 807 q 465 911 510 872 q 349 950 419 950 q 230 903 278 950 q 182 785 182 856 q 238 663 182 714 l 511 410 q 581 235 581 346 q 510 52 581 124 q 321 -19 439 -19 q 190 -1 258 -19 q 85 57 122 18 z "},"Ţ":{"ha":858,"x_min":-125,"x_max":832,"o":"m -82 696 q -125 798 -125 747 q -101 885 -125 849 q -25 948 -78 922 q 94 974 28 974 l 664 974 q 772 983 725 974 q 832 999 818 993 l 832 824 l 818 825 l 818 849 q 794 906 818 882 q 739 932 771 931 l 475 932 l 475 100 q 502 39 476 64 q 564 14 528 14 l 582 14 l 582 0 l 453 0 l 396 -67 q 442 -58 418 -58 q 521 -87 500 -58 q 542 -151 542 -115 q 481 -242 542 -212 q 410 -258 444 -258 q 346 -249 376 -258 l 347 -235 q 435 -214 397 -235 q 472 -150 472 -193 q 401 -89 472 -89 q 356 -100 378 -89 l 349 -86 l 414 0 l 278 0 l 278 14 l 296 14 q 358 39 332 14 q 385 99 383 64 l 385 932 l 94 932 q -67 861 -17 932 q -93 785 -93 825 q -71 703 -93 746 l -82 696 z "},"ţ":{"ha":858,"x_min":28,"x_max":832,"o":"m 474 -150 q 404 -89 474 -89 q 358 -100 381 -89 l 351 -86 l 417 0 l 278 0 l 278 14 l 296 14 q 358 39 332 14 q 385 99 383 64 l 385 932 l 121 932 q 53 890 75 931 q 42 849 42 871 l 42 825 l 28 824 l 28 999 q 100 982 49 990 q 194 974 151 974 l 664 974 q 759 982 707 974 q 832 999 811 990 l 832 824 l 818 825 l 818 849 q 794 906 818 882 q 739 932 771 931 l 475 932 l 475 100 q 502 39 476 64 q 564 14 528 14 l 582 14 l 582 0 l 454 0 l 397 -67 q 476 -61 440 -51 q 543 -146 543 -79 q 483 -242 543 -212 q 413 -258 447 -258 q 349 -249 379 -258 l 349 -235 q 437 -214 400 -235 q 474 -150 474 -193 z "},"Ť":{"ha":858,"x_min":-125,"x_max":832,"o":"m 436 972 l 422 972 l 264 1138 l 272 1149 l 429 1057 l 575 1149 l 583 1138 l 436 972 m -82 696 q -125 798 -125 747 q -101 885 -125 849 q -25 948 -78 922 q 94 974 28 974 l 664 974 q 772 983 725 974 q 832 999 818 993 l 832 824 l 818 825 l 818 849 q 794 906 818 882 q 739 932 771 931 l 475 932 l 475 100 q 502 39 476 64 q 564 14 528 14 l 582 14 l 582 0 l 278 0 l 278 14 l 296 14 q 358 39 332 14 q 385 99 383 64 l 385 932 l 94 932 q -28 899 22 932 q -92 786 -92 857 q -71 703 -92 747 l -82 696 z "},"ť":{"ha":858,"x_min":28,"x_max":832,"o":"m 436 1061 l 422 1061 l 264 1226 l 272 1238 l 429 1146 l 575 1238 l 583 1226 l 436 1061 m 818 849 q 794 906 818 882 q 739 932 771 931 l 475 932 l 475 100 q 502 39 476 64 q 564 14 528 14 l 582 14 l 582 0 l 278 0 l 278 14 l 296 14 q 358 39 332 14 q 385 99 383 64 l 385 932 l 121 932 q 65 906 88 931 q 42 849 42 882 l 42 825 l 28 824 l 28 999 q 100 982 49 990 q 194 974 151 974 l 664 974 q 759 982 707 974 q 832 999 811 990 l 832 824 l 818 825 l 818 849 z "},"Ŧ":{"ha":858,"x_min":-125,"x_max":832,"o":"m -82 696 q -125 798 -125 747 q -101 885 -125 849 q -25 948 -78 922 q 94 974 28 974 l 664 974 q 759 982 707 974 q 832 999 811 990 l 832 824 l 818 825 l 818 849 q 778 919 818 896 q 739 932 760 931 l 475 932 l 475 536 l 700 536 l 700 494 l 475 494 l 475 100 q 519 25 476 50 q 564 14 540 14 l 582 14 l 582 0 l 278 0 l 278 14 l 296 14 q 358 39 332 14 q 385 99 383 64 l 385 494 l 161 494 l 161 536 l 385 536 l 385 932 l 94 932 q -67 861 -17 932 q -93 785 -93 825 q -71 703 -93 746 l -82 696 z "},"ŧ":{"ha":858,"x_min":28,"x_max":832,"o":"m 818 849 q 778 919 818 896 q 739 932 760 931 l 475 932 l 475 557 l 700 557 l 700 515 l 475 515 l 475 100 q 502 39 476 64 q 564 14 528 14 l 582 14 l 582 0 l 278 0 l 278 14 l 296 14 q 358 39 332 14 q 385 99 383 64 l 385 515 l 161 515 l 161 557 l 385 557 l 385 932 l 121 932 q 65 906 88 931 q 42 849 42 882 l 42 825 l 28 824 l 28 999 q 100 982 49 990 q 194 974 151 974 l 664 974 q 759 982 707 974 q 832 999 811 990 l 832 824 l 818 825 l 818 849 z "},"Ū":{"ha":1088,"x_min":68,"x_max":1256,"o":"m 1232 1211 q 1256 1211 1243 1211 l 1256 1197 q 1014 1097 1103 1197 q 925 806 925 996 l 925 343 q 822 81 925 181 q 549 -19 719 -19 q 272 80 378 -19 q 165 342 165 179 l 165 890 q 129 950 165 931 q 92 958 113 958 l 69 958 l 69 972 l 351 972 l 351 958 l 329 958 q 278 940 299 958 q 256 892 257 921 l 256 361 q 337 117 256 210 q 550 25 418 25 q 775 113 690 25 q 860 343 860 200 l 860 804 q 963 1110 860 1008 q 1232 1211 1067 1211 m 415 1104 l 415 1153 l 763 1153 l 763 1104 l 415 1104 z "},"ū":{"ha":1090,"x_min":68,"x_max":1022,"o":"m 388 1104 l 388 1153 l 735 1153 l 735 1104 l 388 1104 m 1021 958 l 999 958 q 948 940 969 958 q 925 893 926 921 l 925 343 q 822 81 925 181 q 549 -19 719 -19 q 272 80 378 -19 q 165 342 165 179 l 165 889 q 129 950 165 931 q 92 958 113 958 l 69 958 l 69 972 l 351 972 l 351 958 l 329 958 q 278 940 299 958 q 256 892 257 921 l 256 361 q 337 117 256 210 q 554 24 418 24 q 775 112 690 24 q 860 343 860 200 l 860 892 q 838 940 858 921 q 786 958 817 958 l 764 958 l 764 972 l 1021 972 l 1021 958 z "},"Ů":{"ha":1088,"x_min":69,"x_max":1256,"o":"m 473 1219 q 482 1231 473 1219 q 519 1256 490 1243 q 596 1269 549 1269 q 680 1242 643 1269 q 717 1165 717 1214 q 653 1075 717 1104 q 576 1061 622 1061 q 493 1091 531 1061 q 456 1158 456 1121 q 473 1219 456 1196 m 635 1224 q 625 1235 635 1224 q 585 1246 615 1246 q 537 1224 556 1246 q 518 1165 518 1203 q 537 1107 518 1128 q 585 1086 556 1086 q 635 1107 615 1086 q 654 1165 654 1128 q 635 1224 654 1203 m 1232 1211 q 1256 1211 1243 1211 l 1256 1197 q 1014 1097 1103 1197 q 925 806 925 996 l 925 343 q 822 81 925 181 q 549 -19 719 -19 q 272 80 378 -19 q 165 342 165 179 l 165 889 q 144 939 165 919 q 92 958 122 958 l 69 958 l 69 972 l 351 972 l 351 958 l 329 958 q 267 926 288 958 q 256 892 257 911 l 256 361 q 337 117 256 210 q 554 24 418 24 q 775 112 690 24 q 860 343 860 200 l 860 804 q 963 1110 860 1008 q 1232 1211 1067 1211 z "},"ů":{"ha":1090,"x_min":68,"x_max":1022,"o":"m 445 1219 q 454 1231 445 1219 q 492 1256 463 1243 q 568 1269 521 1269 q 652 1242 615 1269 q 689 1165 689 1214 q 625 1075 689 1104 q 549 1061 594 1061 q 465 1091 503 1061 q 428 1158 428 1121 q 445 1219 428 1196 m 607 1224 q 597 1235 607 1224 q 558 1246 588 1246 q 509 1224 528 1246 q 490 1165 490 1203 q 509 1107 490 1128 q 558 1086 528 1086 q 607 1107 588 1086 q 626 1165 626 1128 q 607 1224 626 1203 m 1021 958 l 999 958 q 948 940 969 958 q 925 893 926 921 l 925 343 q 822 81 925 181 q 549 -19 719 -19 q 272 80 378 -19 q 165 342 165 179 l 165 889 q 144 939 165 919 q 92 958 122 958 l 69 958 l 69 972 l 351 972 l 351 958 l 329 958 q 278 940 299 958 q 256 892 257 921 l 256 361 q 337 117 256 210 q 554 24 418 24 q 775 112 690 24 q 860 343 860 200 l 860 892 q 838 940 858 921 q 786 958 817 958 l 764 958 l 764 972 l 1021 972 l 1021 958 z "},"Ű":{"ha":1088,"x_min":69,"x_max":1257,"o":"m 507 1067 l 492 1069 q 585 1251 533 1161 q 668 1235 635 1249 q 507 1067 593 1151 m 676 1067 l 661 1069 q 754 1251 703 1171 q 839 1235 794 1251 q 676 1067 744 1129 m 1232 1211 q 1256 1211 1243 1211 l 1256 1197 q 1014 1097 1103 1197 q 925 806 925 996 l 925 343 q 822 81 925 181 q 549 -19 719 -19 q 272 80 378 -19 q 165 342 165 179 l 165 890 q 144 939 165 919 q 92 958 122 958 l 69 958 l 69 972 l 351 972 l 351 958 l 329 958 q 267 926 288 958 q 256 892 257 911 l 256 361 q 337 117 256 210 q 554 25 418 25 q 775 113 690 25 q 860 343 860 200 l 860 804 q 963 1110 860 1008 q 1232 1211 1067 1211 z "},"ű":{"ha":1090,"x_min":69,"x_max":1022,"o":"m 479 1067 l 464 1069 q 557 1251 506 1161 q 640 1235 607 1249 q 479 1067 565 1151 m 649 1067 l 633 1069 q 726 1251 675 1171 q 811 1235 767 1251 q 649 1067 717 1129 m 1021 958 l 999 958 q 948 940 969 958 q 925 893 926 921 l 925 343 q 822 81 925 181 q 549 -19 719 -19 q 272 80 378 -19 q 165 342 165 179 l 165 890 q 144 939 165 919 q 92 958 122 958 l 69 958 l 69 972 l 351 972 l 351 958 l 329 958 q 267 926 288 958 q 256 892 257 911 l 256 361 q 337 117 256 210 q 554 24 418 24 q 775 112 690 24 q 860 343 860 200 l 860 892 q 838 940 858 921 q 788 958 817 958 l 764 958 l 764 972 l 1021 972 l 1021 958 z "},"Ų":{"ha":1088,"x_min":68,"x_max":1256,"o":"m 517 -118 q 544 -187 517 -160 q 613 -215 572 -215 q 686 -181 653 -215 l 694 -189 q 653 -243 682 -222 q 526 -258 599 -282 q 474 -215 496 -247 q 453 -140 453 -183 q 478 -66 453 -97 q 547 -19 504 -35 q 270 81 375 -18 q 165 342 165 179 l 165 890 q 129 950 165 931 q 92 958 113 958 l 69 958 l 69 972 l 351 972 l 351 958 l 329 958 q 278 940 299 958 q 256 892 257 921 l 256 361 q 337 117 256 210 q 550 25 418 25 q 775 113 690 25 q 860 343 860 200 l 860 804 q 963 1110 860 1008 q 1232 1211 1067 1211 q 1256 1211 1243 1211 l 1256 1197 q 1014 1097 1103 1197 q 925 806 925 996 l 925 343 q 841 101 925 197 q 614 -15 757 4 q 517 -118 517 -42 z "},"ų":{"ha":1090,"x_min":68,"x_max":1022,"o":"m 517 -118 q 544 -187 517 -160 q 613 -215 572 -215 q 686 -181 653 -215 l 694 -189 q 653 -243 682 -222 q 587 -267 621 -267 q 524 -257 553 -267 q 474 -215 496 -247 q 453 -140 453 -183 q 478 -66 453 -97 q 547 -19 504 -35 q 270 81 375 -18 q 165 342 165 179 l 165 889 q 129 950 165 931 q 92 958 113 958 l 69 958 l 69 972 l 351 972 l 351 958 l 329 958 q 278 940 299 958 q 256 892 257 921 l 256 361 q 337 117 256 210 q 554 24 418 24 q 775 112 690 24 q 860 343 860 200 l 860 892 q 838 940 858 921 q 786 958 817 958 l 764 958 l 764 972 l 1021 972 l 1021 958 l 999 958 q 948 940 969 958 q 925 893 926 921 l 925 343 q 841 101 925 197 q 614 -15 757 4 q 517 -118 517 -42 z "},"Ŵ":{"ha":1325,"x_min":-14,"x_max":1674,"o":"m 1654 1311 q 1672 1311 1664 1311 l 1672 1297 q 1549 1267 1607 1294 q 1450 1201 1490 1239 q 1375 1108 1410 1163 q 1281 911 1319 1022 l 1014 138 q 983 -17 986 50 l 971 -17 l 688 776 l 464 76 q 303 -168 414 -81 q 122 -233 222 -233 q 49 -225 88 -233 l 51 -211 q 99 -215 72 -215 q 172 -199 126 -215 q 261 -139 217 -182 q 400 81 351 -51 l 119 874 q 68 937 103 915 q -3 958 33 958 l -14 958 l -14 972 l 294 972 l 294 958 l 282 958 q 238 940 253 958 q 224 904 224 921 q 228 874 224 888 l 439 197 l 697 994 l 710 993 l 985 224 l 1190 911 q 1301 1129 1226 1032 q 1654 1311 1440 1311 m 697 1236 l 711 1236 l 869 1071 l 861 1060 l 703 1151 l 558 1060 l 550 1071 l 697 1236 z "},"ŵ":{"ha":1364,"x_min":-14,"x_max":1379,"o":"m 697 1250 l 711 1250 l 869 1085 l 861 1074 l 703 1165 l 558 1074 l 550 1085 l 697 1250 m 1378 958 l 1367 958 q 1295 937 1331 958 q 1244 872 1260 915 l 1014 138 q 983 -17 986 50 l 971 -17 l 688 778 l 476 138 q 447 -17 450 51 l 435 -17 l 119 874 q 68 937 103 915 q -3 958 33 958 l -14 958 l -14 972 l 294 972 l 294 958 l 282 958 q 238 940 253 958 q 224 904 224 921 q 228 874 224 888 l 439 197 l 697 994 l 710 993 l 983 225 l 1169 875 q 1174 906 1174 890 q 1160 940 1174 922 q 1117 958 1146 958 l 1104 958 l 1104 972 l 1378 972 l 1378 958 z "},"Ŷ":{"ha":858,"x_min":-56,"x_max":915,"o":"m 453 1236 l 467 1236 l 625 1071 l 617 1060 l 458 1151 l 314 1060 l 306 1071 l 453 1236 m -56 1051 q -21 1051 -46 1051 q 47 1043 4 1051 q 127 1019 90 1035 q 199 973 164 1003 q 260 917 235 943 q 310 850 285 892 q 352 779 336 808 q 388 703 368 750 q 428 598 413 643 q 446 547 444 553 q 456 522 451 533 q 472 566 460 532 q 495 626 485 600 q 526 701 506 653 q 561 778 546 750 q 601 848 576 806 q 647 915 625 890 q 701 969 669 940 q 763 1014 732 999 q 915 1051 838 1051 l 915 1038 q 756 956 838 1038 q 617 758 675 874 q 523 517 560 642 q 486 306 486 393 l 486 101 q 512 40 486 67 q 575 14 538 14 l 592 14 l 593 0 l 289 0 l 289 14 l 307 14 q 368 39 342 14 q 396 100 394 64 l 396 307 q 357 525 396 400 q 257 765 318 650 q 111 958 196 879 q -56 1038 26 1038 l -56 1051 z "},"ŷ":{"ha":918,"x_min":-14,"x_max":933,"o":"m 469 1236 l 483 1236 l 642 1071 l 633 1060 l 476 1151 l 331 1060 l 322 1071 l 469 1236 m 933 958 l 914 958 q 835 935 872 958 q 774 878 799 913 l 500 433 l 500 101 q 526 40 500 65 q 589 14 551 14 l 606 14 l 607 0 l 303 0 l 303 14 l 321 14 q 383 39 357 14 q 410 100 408 64 l 410 435 l 144 878 q 85 935 124 911 q 6 958 47 958 l -14 958 l -14 972 l 328 972 l 328 958 l 310 958 q 263 931 279 958 q 254 901 254 915 q 261 872 254 886 l 469 483 l 692 874 q 699 901 699 888 q 689 931 699 915 q 642 958 672 958 l 625 958 l 625 972 l 933 972 l 933 958 z "},"Ÿ":{"ha":858,"x_min":-56,"x_max":915,"o":"m 367 1077 q 359 1069 367 1077 q 329 1061 351 1061 q 291 1077 307 1061 q 275 1115 275 1093 q 291 1153 275 1138 q 329 1169 307 1169 q 367 1153 351 1169 q 383 1115 383 1138 q 367 1077 383 1093 m 628 1077 q 620 1069 628 1077 q 590 1061 613 1061 q 552 1077 568 1061 q 536 1115 536 1093 q 552 1153 536 1138 q 590 1169 568 1169 q 628 1153 613 1169 q 644 1115 644 1138 q 628 1077 644 1093 m -56 1051 q -21 1051 -46 1051 q 47 1043 4 1051 q 127 1019 90 1035 q 199 973 164 1003 q 260 917 235 943 q 310 850 285 892 q 352 779 336 808 q 388 703 368 750 q 428 599 413 643 q 444 551 443 556 q 449 542 446 547 q 456 522 453 531 q 475 574 460 532 q 503 649 490 615 q 544 743 517 682 q 595 840 572 804 q 654 921 618 875 q 726 992 690 967 q 915 1051 815 1051 l 915 1038 q 756 956 838 1038 q 617 758 675 874 q 523 517 560 642 q 486 306 486 393 l 486 101 q 529 26 486 51 q 575 14 550 14 l 592 14 l 592 0 l 289 0 l 289 14 l 307 14 q 368 39 342 14 q 396 100 394 64 l 396 307 q 357 525 396 400 q 257 765 318 650 q 111 958 196 879 q -56 1038 26 1038 l -56 1051 z "},"Ź":{"ha":883,"x_min":82,"x_max":1385,"o":"m 450 1061 l 440 1071 q 617 1253 546 1185 q 674 1179 654 1215 q 450 1061 583 1128 m 1383 -124 q 1036 -274 1254 -274 q 696 -215 869 -274 q 385 -99 499 -149 q 100 0 171 -4 l 83 0 l 83 13 l 667 932 l 199 932 q 128 890 151 931 q 117 849 117 871 l 117 824 l 103 824 l 103 999 q 176 982 124 990 q 249 974 229 974 q 271 974 269 974 l 658 974 q 763 981 726 974 q 806 992 799 989 l 806 979 l 199 21 q 347 -26 211 18 q 1051 -182 822 -182 q 1376 -112 1228 -182 l 1383 -124 z "},"ź":{"ha":904,"x_min":82,"x_max":857,"o":"m 450 1061 l 440 1071 q 617 1253 546 1185 q 674 1179 654 1215 q 450 1061 583 1128 m 117 849 l 117 824 l 103 824 l 103 999 q 176 982 124 990 q 249 974 229 974 q 271 974 269 974 l 658 974 q 757 981 717 974 q 806 992 797 988 l 806 979 l 211 42 l 653 42 q 774 89 726 42 q 843 214 822 136 l 857 214 l 811 0 l 83 0 l 83 13 l 667 932 l 199 932 q 140 907 164 931 q 117 849 117 883 z "},"Ż":{"ha":883,"x_min":82,"x_max":1385,"o":"m 490 1080 q 481 1071 490 1080 q 448 1063 472 1063 q 406 1080 424 1063 q 389 1122 389 1097 q 406 1165 389 1147 q 448 1182 424 1182 q 490 1165 472 1182 q 508 1122 508 1147 q 490 1080 508 1097 m 1383 -124 q 1036 -274 1254 -274 q 696 -215 869 -274 q 385 -99 499 -149 q 100 0 171 -4 l 83 0 l 83 13 l 667 932 l 199 932 q 128 890 151 931 q 117 849 117 871 l 117 824 l 103 824 l 103 999 q 176 982 124 990 q 249 974 229 974 q 271 974 269 974 l 658 974 q 757 981 717 974 q 806 992 797 988 l 806 979 l 199 21 q 347 -26 211 18 q 1051 -182 822 -182 q 1376 -112 1228 -182 l 1383 -124 z "},"ż":{"ha":904,"x_min":82,"x_max":857,"o":"m 490 1080 q 481 1071 490 1080 q 448 1063 472 1063 q 406 1080 424 1063 q 389 1122 389 1097 q 406 1165 389 1147 q 448 1182 424 1182 q 490 1165 472 1182 q 508 1122 508 1147 q 490 1080 508 1097 m 117 849 l 117 824 l 103 824 l 103 999 q 176 982 124 990 q 249 974 229 974 q 271 974 269 974 l 658 974 q 763 981 726 974 q 806 992 799 989 l 806 979 l 211 42 l 653 42 q 774 89 726 42 q 843 214 822 136 l 857 214 l 811 0 l 83 0 l 83 13 l 667 932 l 199 932 q 140 907 164 931 q 117 849 117 883 z "},"Ž":{"ha":883,"x_min":82,"x_max":1385,"o":"m 457 1061 l 443 1061 l 285 1226 l 293 1238 l 450 1146 l 596 1238 l 604 1226 l 457 1061 m 1040 -275 q 589 -179 838 -275 q 390 -100 481 -137 q 100 0 164 -4 l 83 0 l 83 13 l 667 932 l 199 932 q 140 907 164 931 q 117 849 117 883 l 117 824 l 103 824 l 103 999 q 176 982 124 990 q 249 974 229 974 q 271 974 269 974 l 658 974 q 763 981 726 974 q 806 992 799 989 l 806 979 l 199 21 q 347 -26 211 18 q 1051 -182 822 -182 q 1376 -112 1228 -182 l 1383 -124 q 1223 -240 1314 -204 q 1040 -275 1132 -275 z "},"ž":{"ha":904,"x_min":82,"x_max":857,"o":"m 457 1061 l 443 1061 l 285 1226 l 293 1238 l 450 1146 l 596 1238 l 604 1226 l 457 1061 m 117 849 l 117 824 l 103 824 l 103 999 q 176 982 124 990 q 249 974 229 974 q 271 974 269 974 l 658 974 q 757 981 717 974 q 806 992 797 988 l 806 979 l 211 42 l 653 42 q 774 89 726 42 q 843 214 822 136 l 857 214 l 811 0 l 83 0 l 83 13 l 667 932 l 199 932 q 140 907 164 931 q 117 849 117 883 z "},"ƒ":{"ha":685,"x_min":28,"x_max":603,"o":"m 588 719 q 569 770 588 750 q 519 790 550 790 l 257 790 l 257 438 l 474 438 q 514 454 500 438 q 528 496 528 471 l 528 514 l 542 514 l 542 319 l 528 319 l 528 338 q 515 378 528 361 q 476 396 501 394 l 257 396 l 257 0 q 189 -174 257 -100 q 28 -247 121 -247 l 28 -233 q 128 -145 88 -212 q 168 0 168 -78 l 168 747 q 124 814 167 796 q 94 819 110 819 l 76 819 l 76 833 l 458 833 q 540 840 496 833 q 601 856 583 847 l 601 697 l 588 699 l 588 719 z "},"Ș":{"ha":763,"x_min":57,"x_max":714,"o":"m 165 369 q 93 165 93 275 q 203 -37 93 35 q 348 -81 267 -81 q 489 -49 429 -81 q 615 147 601 10 q 617 167 617 157 q 588 278 617 218 q 496 388 560 338 l 246 585 q 164 750 164 649 q 229 922 164 851 q 406 992 294 992 q 526 978 461 992 l 582 978 l 585 807 l 571 807 q 523 912 569 874 q 406 950 476 950 q 289 903 336 950 q 242 784 242 857 q 303 663 242 711 l 560 460 q 713 168 713 339 q 611 -51 713 40 q 378 -131 524 -131 q 219 -97 289 -131 q 63 111 89 -36 q 58 167 58 133 q 78 260 58 201 q 153 379 97 319 l 165 369 m 350 -218 q 390 -193 360 -193 q 436 -224 422 -193 q 450 -284 450 -256 q 432 -340 450 -312 q 343 -394 400 -392 l 340 -385 q 383 -353 372 -375 q 376 -283 406 -314 q 368 -274 374 -281 q 360 -265 363 -268 q 353 -255 357 -261 q 347 -243 349 -249 q 350 -218 344 -231 z "},"ș":{"ha":661,"x_min":79,"x_max":581,"o":"m 85 57 q 81 132 81 76 q 101 250 81 188 l 114 250 q 113 219 113 235 q 164 78 113 135 q 300 22 215 22 q 444 75 388 22 q 500 208 500 128 q 446 338 500 288 l 179 585 q 104 753 104 654 q 170 922 104 851 q 349 992 236 992 q 468 978 401 992 l 522 978 l 522 807 l 510 807 q 465 911 510 872 q 349 950 419 950 q 230 903 278 950 q 182 785 182 856 q 238 663 182 714 l 511 410 q 581 235 581 346 q 510 52 581 124 q 321 -19 439 -19 q 191 -1 260 -19 q 85 57 122 18 m 299 -112 q 339 -89 310 -89 q 384 -120 371 -89 q 397 -180 397 -151 q 379 -236 397 -208 q 289 -289 346 -286 l 286 -279 q 329 -249 318 -269 q 324 -178 351 -211 q 317 -169 322 -175 q 308 -159 311 -162 q 301 -149 306 -156 q 296 -137 297 -143 q 299 -112 293 -125 z "},"Ț":{"ha":858,"x_min":-125,"x_max":832,"o":"m -82 696 q -125 798 -125 747 q -101 885 -125 849 q -25 948 -78 922 q 94 974 28 974 l 664 974 q 772 983 725 974 q 832 999 818 993 l 832 824 l 818 825 l 818 849 q 794 906 818 882 q 739 932 771 931 l 475 932 l 475 100 q 502 39 476 64 q 564 14 528 14 l 582 14 l 582 0 l 278 0 l 278 14 l 296 14 q 358 39 332 14 q 385 99 383 64 l 385 932 l 94 932 q -67 861 -17 932 q -93 785 -93 825 q -71 703 -93 746 l -82 696 m 431 -87 q 447 -87 431 -87 q 476 -119 463 -87 q 490 -178 490 -150 q 472 -235 490 -207 q 383 -287 440 -285 l 381 -278 q 424 -247 413 -268 q 417 -176 446 -210 q 410 -167 415 -174 q 401 -158 404 -161 q 394 -148 397 -154 q 389 -136 390 -142 q 390 -111 385 -124 q 431 -87 399 -87 z "},"ț":{"ha":858,"x_min":28,"x_max":832,"o":"m 818 849 q 794 906 818 882 q 739 932 771 931 l 475 932 l 475 100 q 502 39 476 64 q 564 14 528 14 l 582 14 l 582 0 l 278 0 l 278 14 l 296 14 q 358 39 332 14 q 385 99 383 64 l 385 932 l 121 932 q 65 906 88 931 q 42 849 42 882 l 42 825 l 28 824 l 28 999 q 100 982 49 990 q 194 974 151 974 l 664 974 q 777 984 732 974 q 832 999 822 994 l 832 824 l 818 825 l 818 849 m 392 -112 q 432 -89 403 -89 q 477 -120 464 -89 q 490 -180 490 -151 q 472 -236 490 -208 q 382 -289 439 -286 l 379 -279 q 422 -249 411 -269 q 417 -178 444 -211 q 410 -169 415 -175 q 401 -159 404 -162 q 394 -149 399 -156 q 389 -137 390 -143 q 392 -112 386 -125 z "},"ˆ":{"ha":833,"x_min":229,"x_max":551,"o":"m 378 1189 l 392 1189 l 550 1024 l 542 1013 l 383 1104 l 239 1013 l 231 1024 l 378 1189 z "},"ˇ":{"ha":833,"x_min":229,"x_max":551,"o":"m 403 1013 l 389 1013 l 231 1178 l 239 1189 l 396 1097 l 542 1189 l 550 1178 l 403 1013 z "},"˘":{"ha":611,"x_min":163,"x_max":450,"o":"m 449 1186 q 429 1114 449 1147 q 377 1061 410 1081 q 296 1042 344 1042 q 205 1085 247 1042 q 163 1186 163 1128 l 176 1186 q 224 1133 188 1156 q 306 1111 260 1111 q 388 1133 351 1111 q 435 1186 424 1156 l 449 1186 z "},"˙":{"ha":833,"x_min":357,"x_max":478,"o":"m 460 991 q 452 982 460 991 q 418 974 443 974 q 376 991 393 974 q 358 1033 358 1008 q 376 1076 358 1058 q 418 1093 393 1093 q 460 1076 443 1093 q 478 1033 478 1058 q 460 991 478 1008 z "},"˚":{"ha":833,"x_min":288,"x_max":550,"o":"m 306 1129 q 314 1141 306 1129 q 352 1166 322 1153 q 428 1179 382 1179 q 512 1151 475 1179 q 549 1075 549 1124 q 512 1000 549 1029 q 419 971 475 971 q 326 1001 363 971 q 289 1068 289 1031 q 306 1129 289 1106 m 467 1134 q 458 1145 467 1134 q 419 1156 449 1156 q 369 1134 389 1156 q 350 1075 350 1113 q 369 1016 350 1038 q 419 994 389 994 q 467 1016 449 994 q 486 1075 486 1038 q 467 1134 486 1113 z "},"˛":{"ha":833,"x_min":357,"x_max":600,"o":"m 421 -86 q 449 -156 421 -128 q 517 -183 478 -183 q 590 -149 557 -183 l 599 -157 q 558 -211 586 -190 q 491 -235 525 -235 q 428 -225 457 -235 q 378 -183 400 -215 q 357 -101 357 -151 q 402 -14 357 -50 q 511 22 447 22 l 525 18 q 421 -86 421 -7 z "},"˜":{"ha":833,"x_min":225,"x_max":574,"o":"m 482 1035 q 558 1082 539 1035 l 572 1082 q 525 985 564 1013 q 478 972 506 972 q 392 1003 450 972 q 314 1033 335 1033 q 239 976 263 1033 l 225 976 q 257 1063 233 1031 q 314 1094 281 1094 q 403 1065 347 1094 q 482 1035 460 1035 z "},"˝":{"ha":833,"x_min":278,"x_max":626,"o":"m 294 1043 l 279 1046 q 372 1228 321 1136 q 457 1210 422 1225 q 294 1043 382 1126 m 464 1043 l 449 1046 q 542 1228 490 1147 q 626 1210 583 1228 q 464 1043 532 1106 z "},"̦":{"ha":0,"x_min":40,"x_max":153,"o":"m 94 0 q 110 0 94 0 q 140 -31 126 0 q 153 -91 153 -62 q 135 -147 153 -119 q 44 -200 101 -197 l 42 -190 q 85 -160 72 -181 q 79 -89 107 -122 q 72 -80 76 -86 q 63 -70 67 -74 q 56 -60 60 -67 q 51 -49 53 -54 q 54 -24 49 -36 q 94 0 63 0 z "},"Δ":{"ha":906,"x_min":7,"x_max":899,"o":"m 899 0 l 7 0 l 7 14 l 446 992 l 460 992 l 899 14 l 899 0 m 775 42 l 426 850 l 68 42 l 775 42 z "},"Ω":{"ha":1122,"x_min":74,"x_max":1046,"o":"m 646 0 l 646 90 q 840 261 754 153 q 943 549 943 389 q 895 748 943 656 q 759 895 847 840 q 564 950 671 950 q 292 830 403 950 q 181 536 181 710 q 365 165 181 326 q 469 90 414 122 l 469 0 l 140 0 l 74 194 l 88 194 q 158 101 126 125 q 250 76 190 76 l 428 76 q 219 206 297 121 q 83 551 83 357 q 144 769 83 668 q 317 931 204 871 q 563 992 429 992 q 805 931 696 992 q 976 767 914 871 q 1039 536 1039 663 q 949 283 1039 425 q 838 160 907 217 q 689 76 768 103 l 869 76 q 961 101 929 76 q 1032 194 993 125 l 1046 194 l 979 0 l 646 0 z "},"μ":{"ha":1293,"x_min":21,"x_max":1274,"o":"m 1250 14 l 1272 14 l 1272 0 l 971 0 l 971 13 l 992 13 q 1032 31 1015 13 q 1046 72 1049 49 l 983 771 l 692 122 q 644 -19 653 38 l 631 -19 l 275 751 l 215 72 q 229 31 213 50 q 269 13 246 13 l 290 13 l 290 0 l 21 0 l 21 14 l 43 14 q 110 38 82 14 q 144 101 139 61 l 249 992 l 263 992 l 650 154 l 1029 992 l 1042 992 l 1149 101 q 1183 38 1154 61 q 1250 14 1213 14 z "},"π":{"ha":976,"x_min":75,"x_max":901,"o":"m 643 14 q 697 36 675 14 q 721 89 719 58 l 721 717 q 698 769 719 747 q 646 792 676 792 l 332 792 q 280 770 301 792 q 257 718 258 749 l 257 88 q 281 35 258 57 q 335 14 303 14 l 349 14 l 350 0 l 76 0 l 76 14 l 92 14 q 146 36 124 14 q 168 89 168 58 l 168 744 q 129 810 168 788 q 92 819 113 819 l 76 819 l 76 833 l 901 833 l 901 819 l 886 819 q 833 798 856 819 q 810 746 811 776 l 810 88 q 849 24 811 44 q 886 14 865 14 l 901 14 l 901 0 l 628 0 l 629 14 l 643 14 z "},"Ẁ":{"ha":1325,"x_min":-14,"x_max":1674,"o":"m 1654 1311 q 1672 1311 1664 1311 l 1672 1297 q 1549 1267 1607 1294 q 1450 1201 1490 1239 q 1375 1108 1410 1163 q 1281 911 1319 1022 l 1014 138 q 983 -17 986 50 l 971 -17 l 688 776 l 464 76 q 303 -168 414 -81 q 122 -233 222 -233 q 49 -225 88 -233 l 51 -211 q 99 -215 72 -215 q 172 -199 126 -215 q 261 -139 217 -182 q 400 81 351 -51 l 119 874 q 68 937 103 915 q -3 958 33 958 l -14 958 l -14 972 l 294 972 l 294 958 l 282 958 q 238 940 253 958 q 224 904 224 921 q 228 874 224 888 l 439 197 l 697 994 l 710 993 l 985 224 l 1190 911 q 1301 1129 1226 1032 q 1654 1311 1440 1311 m 714 1071 l 704 1061 q 481 1179 592 1114 q 538 1253 501 1218 q 714 1071 625 1168 z "},"ẁ":{"ha":1364,"x_min":-14,"x_max":1379,"o":"m 714 1085 l 704 1075 q 481 1193 593 1128 q 538 1267 501 1232 q 714 1085 626 1182 m 1378 958 l 1367 958 q 1295 937 1331 958 q 1244 872 1260 915 l 1014 138 q 983 -17 986 50 l 971 -17 l 688 778 l 476 138 q 447 -17 450 51 l 435 -17 l 119 874 q 68 937 103 915 q -3 958 33 958 l -14 958 l -14 972 l 294 972 l 294 958 l 282 958 q 238 940 253 958 q 224 904 224 921 q 228 874 224 888 l 439 197 l 697 994 l 710 993 l 983 225 l 1169 875 q 1174 906 1174 890 q 1160 940 1174 922 q 1117 958 1146 958 l 1104 958 l 1104 972 l 1378 972 l 1378 958 z "},"Ẃ":{"ha":1325,"x_min":-14,"x_max":1674,"o":"m 1654 1311 q 1672 1311 1664 1311 l 1672 1297 q 1549 1267 1607 1294 q 1450 1201 1490 1239 q 1375 1108 1410 1163 q 1281 911 1319 1022 l 1014 138 q 983 -17 986 50 l 971 -17 l 688 776 l 464 76 q 303 -168 414 -81 q 122 -233 222 -233 q 49 -225 88 -233 l 51 -211 q 99 -215 72 -215 q 172 -199 126 -215 q 261 -139 217 -182 q 400 81 351 -51 l 119 874 q 68 937 103 915 q -3 958 33 958 l -14 958 l -14 972 l 294 972 l 294 958 l 282 958 q 238 940 253 958 q 224 904 224 921 q 228 874 224 888 l 439 197 l 697 994 l 710 993 l 985 224 l 1190 911 q 1301 1129 1226 1032 q 1654 1311 1440 1311 m 704 1061 l 694 1071 q 871 1253 800 1185 q 928 1179 908 1215 q 704 1061 838 1128 z "},"ẃ":{"ha":1364,"x_min":-14,"x_max":1379,"o":"m 704 1075 l 694 1085 q 871 1267 800 1199 q 928 1193 908 1229 q 704 1075 839 1142 m 1378 958 l 1367 958 q 1295 937 1331 958 q 1244 872 1260 915 l 1014 138 q 983 -17 986 50 l 971 -17 l 688 778 l 476 138 q 447 -17 450 51 l 435 -17 l 119 874 q 68 937 103 915 q -3 958 33 958 l -14 958 l -14 972 l 294 972 l 294 958 l 282 958 q 238 940 253 958 q 224 904 224 921 q 228 874 224 888 l 439 197 l 697 994 l 710 993 l 983 225 l 1169 875 q 1174 906 1174 890 q 1160 940 1174 922 q 1117 958 1146 958 l 1104 958 l 1104 972 l 1378 972 l 1378 958 z "},"Ẅ":{"ha":1325,"x_min":-14,"x_max":1674,"o":"m 1654 1311 q 1672 1311 1664 1311 l 1672 1297 q 1549 1267 1607 1294 q 1450 1201 1490 1239 q 1375 1108 1410 1163 q 1281 911 1319 1022 l 1014 138 q 983 -17 986 50 l 971 -17 l 688 776 l 464 76 q 303 -168 414 -81 q 122 -233 222 -233 q 49 -225 88 -233 l 51 -211 q 99 -215 72 -215 q 172 -199 126 -215 q 261 -139 217 -182 q 400 81 351 -51 l 119 874 q 68 937 103 915 q -3 958 33 958 l -14 958 l -14 972 l 294 972 l 294 958 l 282 958 q 238 940 253 958 q 224 904 224 921 q 228 874 224 888 l 439 197 l 697 994 l 710 993 l 985 224 l 1190 911 q 1301 1129 1226 1032 q 1654 1311 1440 1311 m 612 1077 q 604 1069 612 1077 q 573 1061 596 1061 q 535 1077 550 1061 q 519 1115 519 1093 q 535 1153 519 1138 q 573 1169 550 1169 q 612 1153 596 1169 q 628 1115 628 1138 q 612 1077 628 1093 m 873 1077 q 865 1069 873 1077 q 835 1061 857 1061 q 797 1077 813 1061 q 781 1115 781 1093 q 797 1153 781 1138 q 835 1169 813 1169 q 873 1153 857 1169 q 889 1115 889 1138 q 873 1077 889 1093 z "},"ẅ":{"ha":1364,"x_min":-14,"x_max":1379,"o":"m 612 1091 q 604 1083 612 1091 q 574 1075 596 1075 q 535 1091 551 1075 q 519 1129 519 1107 q 535 1167 519 1151 q 574 1183 551 1183 q 612 1167 596 1183 q 628 1129 628 1151 q 612 1091 628 1107 m 874 1091 q 866 1083 874 1091 q 835 1075 858 1075 q 797 1091 813 1075 q 781 1129 781 1107 q 797 1167 781 1151 q 835 1183 813 1183 q 874 1167 858 1183 q 889 1129 889 1151 q 874 1091 889 1107 m 1378 958 l 1367 958 q 1295 937 1331 958 q 1244 872 1260 915 l 1014 138 q 983 -17 986 50 l 971 -17 l 688 778 l 476 138 q 447 -17 450 51 l 435 -17 l 119 874 q 68 937 103 915 q -3 958 33 958 l -14 958 l -14 972 l 294 972 l 294 958 l 282 958 q 238 940 253 958 q 224 904 224 921 q 228 874 224 888 l 439 197 l 697 994 l 710 993 l 983 225 l 1169 875 q 1174 906 1174 890 q 1160 940 1174 922 q 1117 958 1146 958 l 1104 958 l 1104 972 l 1378 972 l 1378 958 z "},"Ỳ":{"ha":858,"x_min":-56,"x_max":915,"o":"m 469 1071 l 460 1061 q 236 1179 349 1114 q 293 1253 257 1218 q 469 1071 382 1168 m -56 1051 q -21 1051 -46 1051 q 47 1042 4 1051 q 127 1018 90 1033 q 199 973 164 1003 q 260 917 235 943 q 310 850 285 892 q 352 779 336 808 q 388 703 368 750 q 428 598 413 643 q 446 547 444 553 q 456 522 451 533 q 472 566 460 532 q 495 626 485 600 q 526 701 506 653 q 561 778 546 750 q 601 848 576 806 q 647 915 625 890 q 701 969 669 940 q 763 1014 732 999 q 915 1051 838 1051 l 915 1038 q 756 956 838 1038 q 617 758 675 874 q 523 517 560 642 q 486 306 486 393 l 486 101 q 529 26 486 51 q 575 14 550 14 l 592 14 l 592 0 l 289 0 l 289 14 l 307 14 q 368 39 342 14 q 396 100 394 64 l 396 307 q 357 525 396 400 q 257 764 318 650 q 111 958 196 878 q -56 1038 26 1038 l -56 1051 z "},"ỳ":{"ha":918,"x_min":-14,"x_max":933,"o":"m 486 1071 l 476 1061 q 254 1179 365 1114 q 311 1253 274 1218 q 486 1071 399 1168 m 933 958 l 914 958 q 835 935 872 958 q 774 878 799 913 l 500 433 l 500 101 q 526 40 500 65 q 589 14 551 14 l 606 14 l 606 0 l 303 0 l 303 14 l 321 14 q 383 39 357 14 q 410 100 408 64 l 410 435 l 144 878 q 85 935 124 911 q 6 958 47 958 l -14 958 l -14 972 l 328 972 l 328 958 l 310 958 q 263 931 279 958 q 254 901 254 915 q 261 872 254 886 l 469 483 l 692 874 q 699 901 699 886 q 689 931 699 915 q 642 958 672 958 l 625 958 l 625 972 l 933 972 l 933 958 z "},"–":{"ha":694,"x_min":0,"x_max":694,"o":"m 0 376 l 0 432 l 694 432 l 694 376 l 0 376 z "},"—":{"ha":1111,"x_min":0,"x_max":1111,"o":"m 0 376 l 0 432 l 1111 432 l 1111 376 l 0 376 z "},"‘":{"ha":269,"x_min":61,"x_max":208,"o":"m 139 822 q 108 831 128 822 q 75 873 89 840 q 61 943 61 906 q 86 1018 61 981 q 204 1089 129 1086 l 208 1076 q 159 1047 176 1065 q 140 1008 142 1029 q 167 931 136 965 q 192 855 207 888 q 139 822 178 822 z "},"’":{"ha":263,"x_min":61,"x_max":203,"o":"m 63 842 q 115 878 101 854 q 129 914 129 901 q 100 982 129 949 q 75 1017 78 1007 q 79 1056 71 1038 q 126 1083 92 1083 q 185 1044 169 1083 q 201 968 201 1004 q 179 896 201 932 q 65 831 138 832 l 63 842 z "},"‚":{"ha":269,"x_min":61,"x_max":210,"o":"m 63 -124 q 118 -85 104 -110 q 132 -49 132 -61 q 103 24 132 -10 q 76 61 79 50 q 79 101 71 82 q 129 131 93 131 q 192 89 175 131 q 210 10 210 47 q 185 -65 210 -28 q 67 -135 142 -132 l 63 -124 z "},"“":{"ha":464,"x_min":57,"x_max":400,"o":"m 136 822 q 104 831 124 822 q 72 873 85 840 q 58 943 58 906 q 82 1018 58 981 q 201 1089 125 1086 l 204 1076 q 156 1047 172 1065 q 136 1008 139 1029 q 164 931 132 965 q 189 855 203 888 q 136 822 175 822 m 399 1076 q 343 1038 357 1063 q 329 1001 329 1014 q 358 931 329 963 q 383 854 397 888 q 332 822 369 822 q 270 864 288 822 q 253 943 253 906 q 276 1018 253 981 q 396 1089 319 1086 l 399 1076 z "},"”":{"ha":464,"x_min":61,"x_max":397,"o":"m 272 1053 q 322 1083 286 1083 q 352 1075 333 1083 q 384 1035 371 1067 q 397 968 397 1004 q 374 896 397 932 q 260 831 332 832 l 257 842 q 303 869 288 851 q 322 906 319 888 q 304 971 325 944 q 294 982 301 974 q 284 994 288 990 q 276 1006 281 999 q 269 1021 271 1014 q 272 1053 265 1038 m 63 842 q 115 878 101 854 q 129 914 129 901 q 100 982 129 949 q 75 1017 78 1007 q 79 1056 71 1038 q 126 1083 92 1083 q 185 1044 169 1083 q 201 968 201 1004 q 179 896 201 932 q 65 831 138 832 l 63 842 z "},"„":{"ha":460,"x_min":63,"x_max":399,"o":"m 75 88 q 81 108 75 96 q 102 128 86 119 q 127 136 118 136 q 146 136 136 136 q 173 124 156 136 q 203 81 190 111 q 217 10 217 50 q 192 -69 217 -29 q 67 -142 146 -139 l 63 -129 q 114 -99 96 -118 q 133 -58 132 -79 q 106 24 139 -12 q 75 88 71 63 m 263 104 q 318 138 278 138 q 351 128 331 138 q 385 83 371 118 q 399 22 399 49 q 340 -107 399 -60 q 250 -142 300 -140 l 246 -129 q 297 -99 279 -118 q 318 -58 315 -79 q 299 13 321 -15 q 288 26 296 17 q 276 39 279 35 q 267 52 272 43 q 260 68 261 61 q 263 104 256 86 z "},"†":{"ha":718,"x_min":56,"x_max":664,"o":"m 664 608 l 644 557 l 428 582 l 365 603 l 388 543 l 404 215 l 367 -250 l 353 -250 l 314 215 l 332 543 l 353 603 l 290 581 l 75 557 l 56 608 l 75 661 l 290 636 l 353 617 l 332 674 l 307 972 l 361 992 l 411 972 l 388 674 l 367 617 l 428 638 l 644 661 l 664 608 z "},"‡":{"ha":719,"x_min":56,"x_max":665,"o":"m 646 183 l 665 132 l 646 79 l 431 104 l 368 125 l 389 67 l 413 -232 l 360 -251 l 308 -232 l 333 67 l 354 125 l 292 104 l 76 79 l 57 132 l 76 183 l 292 160 l 354 139 l 333 197 l 308 371 l 332 543 l 353 603 l 290 581 l 75 557 l 56 608 l 75 661 l 290 636 l 353 617 l 332 674 l 307 972 l 361 992 l 411 972 l 388 674 l 367 617 l 428 638 l 644 661 l 664 608 l 644 557 l 428 582 l 365 603 l 388 543 l 413 371 l 389 197 l 368 139 l 431 160 l 646 183 z "},"•":{"ha":465,"x_min":97,"x_max":369,"o":"m 109 407 q 103 424 109 407 q 97 451 97 442 q 109 495 97 461 q 138 547 121 529 q 189 576 154 564 q 233 588 224 588 q 278 576 243 588 q 329 547 313 564 q 358 496 346 531 q 369 451 369 461 q 360 415 369 442 q 340 372 351 389 q 312 343 329 354 q 269 324 294 332 q 233 315 243 315 l 214 318 q 138 356 154 339 q 109 407 121 372 m 284 393 q 291 399 284 393 q 303 426 297 406 q 310 451 310 446 q 303 476 310 457 q 288 506 297 496 q 258 522 278 515 q 233 528 239 528 q 208 522 228 528 q 179 506 189 515 q 163 476 169 496 q 157 451 157 457 q 163 426 157 446 q 179 397 169 407 q 208 381 189 388 q 233 375 228 375 q 284 393 271 381 z "},"…":{"ha":790,"x_min":63,"x_max":729,"o":"m 169 13 q 160 3 169 13 q 125 -6 151 -6 q 81 13 99 -6 q 63 57 63 31 q 81 101 63 83 q 125 119 99 119 q 169 101 151 119 q 188 57 188 83 q 169 13 188 31 m 447 13 q 438 3 447 13 q 403 -6 429 -6 q 358 13 376 -6 q 340 57 340 31 q 358 101 340 83 q 403 119 376 119 q 447 101 429 119 q 465 57 465 83 q 447 13 465 31 m 711 13 q 702 3 711 13 q 667 -6 693 -6 q 622 13 640 -6 q 604 57 604 31 q 622 101 604 83 q 667 119 640 119 q 711 101 693 119 q 729 57 729 83 q 711 13 729 31 z "},"‰":{"ha":1410,"x_min":61,"x_max":1349,"o":"m 432 917 q 454 828 454 874 q 363 567 454 661 q 214 501 299 501 q 89 567 129 501 q 61 661 61 611 q 150 925 61 829 q 294 992 213 992 q 352 985 326 992 q 432 946 378 978 q 530 913 493 913 q 598 923 567 913 q 673 958 629 933 q 721 985 717 983 l 751 972 l 233 -15 l 199 0 l 693 939 q 670 927 689 938 q 644 913 651 917 q 618 902 636 910 q 588 892 600 894 q 519 886 553 883 q 432 917 485 889 m 374 746 q 382 833 382 793 q 371 906 382 874 q 296 964 350 964 q 165 838 213 964 q 133 685 133 751 q 144 588 133 618 q 219 529 165 529 q 315 588 274 529 q 374 746 356 646 m 588 404 q 738 471 653 471 q 863 404 822 471 q 890 311 890 360 q 799 47 890 140 q 650 -19 735 -19 q 525 47 565 -19 q 497 140 497 92 q 588 404 497 311 m 1196 471 q 1321 404 1281 471 q 1349 311 1349 360 q 1257 47 1349 140 q 1108 -19 1193 -19 q 983 47 1024 -19 q 956 140 956 92 q 966 244 956 189 q 1010 357 976 300 q 1196 471 1079 471 m 810 225 q 818 313 818 272 q 807 385 818 354 q 732 443 786 443 q 637 385 678 443 q 578 225 596 326 q 569 138 569 179 q 581 67 569 97 q 656 8 601 8 q 751 67 710 8 q 810 225 792 125 m 1268 225 q 1276 313 1276 272 q 1265 385 1276 354 q 1190 443 1244 443 q 1095 385 1136 443 q 1036 225 1054 326 q 1028 138 1028 179 q 1039 67 1028 97 q 1114 8 1060 8 q 1209 67 1168 8 q 1268 225 1250 125 z "},"‹":{"ha":365,"x_min":54,"x_max":311,"o":"m 310 674 q 146 406 249 518 q 311 132 249 289 l 299 125 q 56 406 193 290 q 190 531 133 469 q 299 681 246 592 l 310 674 z "},"›":{"ha":365,"x_min":56,"x_max":311,"o":"m 56 132 q 221 406 117 289 q 57 674 118 518 l 68 681 q 177 531 121 592 q 311 406 233 469 q 68 125 174 290 l 56 132 z "},"⁄":{"ha":753,"x_min":26,"x_max":726,"o":"m 692 992 l 725 968 l 63 -19 l 28 3 l 692 992 z "},"€":{"ha":1018,"x_min":-14,"x_max":950,"o":"m 643 -18 q 314 99 454 -18 q 142 394 174 215 l -14 394 l 1 436 l 135 436 q 133 485 133 461 q 135 533 133 510 l -14 533 l 1 575 l 140 575 q 312 874 171 756 q 643 992 453 992 q 947 910 879 992 l 903 776 l 889 776 q 892 813 892 794 q 881 858 892 832 q 845 903 871 885 q 782 932 819 921 q 643 950 721 950 q 382 844 493 950 q 244 575 271 738 l 835 575 l 819 533 l 239 533 q 238 485 238 510 q 239 436 238 461 l 786 436 l 772 394 l 244 394 q 384 128 274 232 q 634 24 494 24 q 845 69 774 24 q 935 214 917 114 l 949 214 l 947 68 q 822 3 906 25 q 643 -18 738 -18 z "},"™":{"ha":619,"x_min":13,"x_max":607,"o":"m 240 922 l 236 922 l 236 929 q 230 945 236 939 q 214 953 224 951 l 149 953 l 149 726 q 156 710 149 717 q 174 703 163 703 l 178 703 l 178 699 l 76 699 l 76 703 l 81 703 q 98 710 90 703 q 106 726 106 717 l 106 953 l 40 953 q 24 945 31 951 q 18 929 18 939 l 18 922 l 14 922 l 14 979 q 61 972 31 972 l 193 972 q 240 979 224 972 l 240 922 m 600 703 l 607 703 l 607 699 l 508 699 l 508 703 l 514 703 q 526 708 521 703 q 529 719 531 713 l 504 888 l 431 733 q 417 693 419 710 l 414 693 l 318 879 l 306 719 q 310 708 306 713 q 321 703 315 703 l 328 703 l 328 699 l 242 699 l 242 703 l 249 703 q 276 726 274 703 l 306 978 l 310 978 l 425 761 l 525 978 l 529 978 l 572 726 q 600 703 578 703 z "},"∂":{"ha":786,"x_min":82,"x_max":704,"o":"m 388 601 q 604 511 499 601 q 604 522 604 517 q 517 839 604 725 q 324 925 450 925 q 110 801 197 925 l 97 811 q 225 960 150 915 q 360 994 282 994 q 572 907 488 994 q 674 727 643 832 q 704 515 704 622 q 657 221 704 340 q 538 44 610 101 q 342 -19 457 -19 q 99 146 153 -19 q 83 249 83 194 q 99 360 83 304 q 147 464 114 417 q 339 596 218 567 q 388 601 363 601 m 604 492 q 417 549 501 549 q 285 496 342 549 q 192 321 219 436 q 181 235 181 272 q 247 57 181 114 q 346 21 289 21 q 519 147 449 21 q 603 463 589 272 l 604 492 z "},"∏":{"ha":1060,"x_min":75,"x_max":985,"o":"m 726 -264 q 781 -242 758 -264 q 804 -189 803 -221 l 804 856 q 781 908 803 886 q 729 931 760 931 l 332 931 q 280 909 301 931 q 257 857 258 888 l 257 -190 q 281 -242 258 -221 q 335 -264 303 -264 l 349 -264 l 350 -278 l 76 -278 l 76 -264 l 92 -264 q 158 -226 135 -264 q 168 -189 168 -210 l 168 883 q 129 949 168 926 q 92 958 113 958 l 76 958 l 76 972 l 985 972 l 985 958 l 969 958 q 917 937 939 958 q 893 885 894 915 l 893 -190 q 916 -242 893 -221 q 969 -264 939 -264 l 985 -264 l 985 -278 l 711 -278 l 713 -264 l 726 -264 z "},"∑":{"ha":882,"x_min":56,"x_max":835,"o":"m 56 -250 l 56 -236 l 422 350 l 64 958 l 64 972 l 622 972 q 731 982 683 972 q 792 997 778 992 l 792 822 l 778 824 l 778 847 q 754 906 778 882 q 697 931 731 929 l 183 931 l 500 388 l 160 -161 l 642 -161 q 755 -110 710 -157 q 821 13 800 -62 l 835 13 l 789 -250 l 56 -250 z "},"−":{"ha":668,"x_min":56,"x_max":614,"o":"m 56 399 l 56 461 l 614 461 l 614 399 l 56 399 z "},"√":{"ha":825,"x_min":26,"x_max":799,"o":"m 35 556 l 28 597 l 221 625 l 392 13 l 756 1171 l 797 1168 l 371 -204 l 149 572 l 35 556 z "},"∞":{"ha":824,"x_min":54,"x_max":825,"o":"m 439 365 q 347 268 404 307 q 220 229 289 229 q 103 281 151 229 q 56 411 56 332 q 104 543 56 490 q 217 596 153 596 q 340 558 282 596 q 440 464 397 521 q 540 558 482 521 q 662 596 597 596 q 775 543 726 596 q 824 411 824 490 q 776 281 824 332 q 658 229 728 229 q 531 269 589 229 q 439 365 474 308 m 118 413 q 118 387 118 413 q 150 325 118 361 q 228 289 182 289 q 321 325 274 289 q 401 414 368 361 q 225 536 310 536 q 150 500 182 536 q 118 413 118 464 m 478 414 q 559 324 513 358 q 652 289 606 289 q 730 325 699 289 q 761 403 761 361 q 747 474 761 446 q 708 519 732 503 q 654 536 683 536 q 478 414 569 536 z "},"∫":{"ha":611,"x_min":28,"x_max":571,"o":"m 311 1001 q 464 1101 354 1101 q 514 1092 482 1101 q 558 1062 546 1082 q 571 1024 571 1042 q 556 990 571 1007 q 517 972 540 972 q 484 983 494 972 q 468 1002 474 993 q 458 1018 463 1011 q 450 1032 454 1025 q 422 1047 439 1047 q 374 922 379 1047 q 327 30 332 103 q 313 -84 322 -43 q 286 -167 304 -125 q 143 -267 244 -267 q 75 -253 103 -267 q 28 -193 28 -229 q 43 -155 28 -172 q 81 -137 58 -137 q 115 -149 104 -137 q 132 -172 125 -160 q 144 -192 139 -183 q 176 -212 156 -212 q 225 -87 218 -212 q 271 806 267 732 q 311 1001 281 925 z "},"≈":{"ha":668,"x_min":56,"x_max":614,"o":"m 196 604 q 331 565 247 604 q 433 522 415 525 q 463 518 450 518 q 501 527 476 518 q 538 545 525 536 q 576 575 550 554 l 614 540 q 605 531 613 539 q 592 519 597 524 q 578 505 588 514 q 561 491 568 496 q 542 478 554 486 q 519 467 529 469 q 496 459 510 464 q 471 456 482 454 q 443 457 460 457 q 324 499 396 465 q 228 538 251 533 q 197 542 206 542 q 178 542 188 543 q 164 540 169 540 q 150 534 158 539 q 139 527 142 529 q 127 517 136 525 q 116 508 118 510 q 104 497 114 507 q 93 486 94 488 l 56 519 q 196 604 119 604 m 196 368 q 288 347 238 368 q 378 307 339 325 q 453 282 431 282 q 501 291 476 282 q 538 309 525 300 q 576 339 550 318 l 614 304 q 605 295 613 303 q 592 283 597 288 q 578 269 588 278 q 561 255 568 260 q 542 242 554 250 q 519 231 529 233 q 497 223 510 228 q 478 218 485 218 q 466 219 472 218 q 443 221 460 221 q 364 246 406 228 q 284 281 322 264 q 226 302 246 299 q 197 306 206 306 q 182 306 189 307 q 168 303 175 306 q 156 300 161 301 q 144 294 151 299 q 134 288 138 290 q 124 279 131 286 q 114 270 117 272 q 103 260 111 268 q 93 250 96 251 l 56 283 q 196 368 119 368 z "},"≠":{"ha":668,"x_min":56,"x_max":614,"o":"m 614 506 l 419 506 l 332 325 l 614 325 l 614 263 l 301 263 l 219 93 l 163 118 l 232 263 l 56 263 l 56 325 l 263 325 l 350 506 l 56 506 l 56 568 l 381 568 l 456 721 l 511 694 l 450 568 l 614 568 l 614 506 z "},"≤":{"ha":668,"x_min":56,"x_max":614,"o":"m 614 818 l 614 751 l 138 522 l 614 292 l 614 225 l 56 490 l 56 553 l 614 818 m 56 60 l 56 122 l 614 122 l 614 60 l 56 60 z "},"≥":{"ha":668,"x_min":56,"x_max":614,"o":"m 56 818 l 614 553 l 614 490 l 56 225 l 56 292 l 531 522 l 56 751 l 56 818 m 56 60 l 56 122 l 614 122 l 614 60 l 56 60 z "},"◊":{"ha":736,"x_min":68,"x_max":668,"o":"m 668 486 l 360 -19 l 69 486 l 360 992 l 668 486 m 129 486 l 360 76 l 608 486 l 360 896 l 129 486 z "},"ﬁ":{"ha":1221,"x_min":82,"x_max":1139,"o":"m 656 957 l 656 840 l 642 840 l 642 861 q 622 909 642 889 q 574 929 603 929 l 281 929 l 281 500 l 515 500 q 563 521 543 501 q 582 568 582 540 l 582 589 l 596 589 l 596 369 l 582 369 l 582 390 q 563 438 582 418 q 517 458 544 457 l 281 458 l 281 101 q 307 40 281 65 q 369 14 333 14 l 388 14 l 388 0 l 83 0 l 83 14 l 101 14 q 163 40 138 14 q 190 101 189 65 l 190 879 q 163 935 190 913 q 101 958 136 958 l 85 958 l 83 972 l 490 972 q 584 981 533 972 q 656 997 635 989 l 656 957 m 853 14 q 929 57 903 14 q 942 101 942 78 l 942 872 q 915 933 940 908 q 853 958 889 958 l 835 958 l 835 972 l 1139 972 l 1139 958 l 1121 958 q 1059 933 1085 958 q 1032 872 1033 908 l 1032 101 q 1058 40 1032 65 q 1121 14 1085 14 l 1139 14 l 1139 0 l 835 0 l 835 14 l 853 14 z "},"ﬂ":{"ha":1532,"x_min":82,"x_max":1492,"o":"m 656 957 l 656 840 l 642 840 l 642 861 q 622 909 642 889 q 574 929 603 929 l 281 929 l 281 500 l 515 500 q 563 521 543 501 q 582 568 582 540 l 582 589 l 596 589 l 596 369 l 582 369 l 582 390 q 563 438 582 418 q 517 458 544 457 l 281 458 l 281 101 q 307 40 281 65 q 369 14 333 14 l 388 14 l 388 0 l 83 0 l 83 14 l 101 14 q 163 40 138 14 q 190 101 189 65 l 190 879 q 163 935 190 913 q 101 958 136 958 l 85 958 l 83 972 l 490 972 q 584 981 533 972 q 656 997 635 989 l 656 957 m 853 14 q 915 40 889 14 q 942 101 940 65 l 942 871 q 915 933 940 907 q 853 958 889 958 l 835 958 l 835 972 l 1139 972 l 1139 958 l 1121 958 q 1044 915 1071 958 q 1032 871 1032 894 l 1032 43 l 1231 43 q 1388 89 1333 43 q 1478 225 1442 135 l 1492 225 l 1411 0 l 835 0 l 835 14 l 853 14 z "}}}
